<?xml version="1.0" encoding="UTF-8"?><svg id="Layer_2" xmlns="http://www.w3.org/2000/svg" viewBox="0 0 494.6 614.72"><defs><style>.cls-1{fill:#392719;}.cls-1,.cls-2,.cls-3,.cls-4{stroke-width:0px;}.cls-2{fill:#745540;}.cls-5{stroke-width:1.28px;}.cls-5,.cls-6{fill:#fff;stroke:#1d1d1b;stroke-miterlimit:10;}.cls-3{fill:#7a563e;}.cls-4{fill:#5d3c2c;}.cls-6{stroke-width:1.22px;}</style></defs><g id="_Слой_2_копия_"><path class="cls-6" d="M383.87,368.4l-2.69-62.78c.32,3.56.61,7.18.88,10.86.76,10.45,1.28,21.43,1.56,32.96h0c.08,3.41.15,6.85.19,10.35.04,2.83.06,5.71.06,8.61Z"/><path class="cls-4" d="M361.94,503.48c-5.93,20.29-12.39,39.62-18.46,57.71-22.93,10.33-55.06,16.75-90.64,16.75-41.63,0-78.55-8.79-101.52-22.34-4.64-14.4-10.04-32.01-15.3-51.13,21.25,5.79,63.11,9.72,111.27,9.72,50.87,0,94.7-4.39,114.65-10.71Z"/><path class="cls-5" d="M332.91,593.12c-.07.33-.18.66-.31.99.1-.33.21-.66.31-.99Z"/><path class="cls-1" d="M478.64,346.72c0,9.43-.79,17.85-7.51,24.83-22.6-4.72-58.23-2.19-58.23-21.47,0-9.43,14.59-38.18,21.31-45.15,22.59,4.72,44.43,22.52,44.43,41.8Z"/><path class="cls-1" d="M447.98,268.2c-20.89,38.74-48.33,69.98-77.38,90.88-.28-11.53-.8-22.51-1.56-32.96,10.44-14.16,20.37-29.8,29.45-46.64,49.74-92.25,55.18-185.85,12.15-209.05-24.86-13.4-60.46-.38-95.69,30.8.12-.58.18-1.16.18-1.75,0-6.38-7.14-12.23-18.96-16.73,45.54-42.2,98.64-58.81,137.94-37.62,57.4,30.95,63.61,130.83,13.87,223.07Z"/><path class="cls-4" d="M471.13,371.55c-9.64,12.74-24.94,20.97-42.15,20.97-29.19,0-52.85-23.66-52.85-52.85,0-15.15,7.22-27.7,16.59-38.45,6.57-9.89,12.86-20.38,18.79-31.38,49.74-92.25,55.18-185.85,12.15-209.05-24.86-13.4-60.46-.38-95.69,30.8.12-.58.18-1.16.18-1.75,0-6.38-7.14-12.23-18.96-16.73,45.54-42.2,98.64-58.81,137.94-37.62,57.4,30.95,63.61,130.83,13.87,223.07-5.7,10.58-11.9,20.6-18.49,30.01.03.01.06.01.08.02-6.72,8.86-20.46,42.83-20.46,54.81,0,24.48,26.4,22.15,49,28.15Z"/><path class="cls-1" d="M15.95,346.72c0,9.43.79,17.85,7.51,24.83,22.6-4.72,58.23-2.19,58.23-21.47,0-9.43-14.59-38.18-21.31-45.15-22.59,4.72-44.43,22.52-44.43,41.8Z"/><path class="cls-1" d="M46.62,268.2c20.89,38.74,48.33,69.98,77.38,90.88.28-11.53.8-22.51,1.56-32.96-10.44-14.16-20.37-29.8-29.45-46.64-49.74-92.25-55.18-185.85-12.15-209.05,24.86-13.4,60.46-.38,95.69,30.8-.12-.58-.18-1.16-.18-1.75,0-6.38,7.14-12.23,18.96-16.73C152.89,40.55,99.79,23.94,60.49,45.13,3.09,76.08-3.12,175.96,46.62,268.2Z"/><path class="cls-4" d="M23.46,371.55c9.64,12.74,24.94,20.97,42.15,20.97,29.19,0,52.85-23.66,52.85-52.85,0-15.15-7.22-27.7-16.59-38.45-6.57-9.89-12.86-20.38-18.79-31.38-49.74-92.25-55.18-185.85-12.15-209.05,24.86-13.4,60.46-.38,95.69,30.8-.12-.58-.18-1.16-.18-1.75,0-6.38,7.14-12.23,18.96-16.73C139.86,30.91,86.76,14.3,47.46,35.49c-57.4,30.95-63.61,130.83-13.87,223.07,5.7,10.58,11.9,20.6,18.49,30.01-.03.01-.06.01-.08.02,6.72,8.86,20.46,42.83,20.46,54.81,0,24.48-26.4,22.15-49,28.15Z"/><path class="cls-1" d="M313.51,13.14c0,1.21-.81,2.39-2.34,3.5h0c-7.6,5.56-32.86,9.65-62.85,9.65s-55.18-4.08-62.82-9.62h0c-1.54-1.13-2.37-2.31-2.37-3.53,0-6.69,24.81-12.21,56.89-13.03,1.36-.03,2.73-.06,4.12-.08,1.38-.02,2.78-.03,4.18-.03s2.8.01,4.18.03c1.39.02,2.76.05,4.12.08,32.09.82,56.89,6.34,56.89,13.03Z"/><path class="cls-2" d="M311.17,16.65c-.11.25-.25.49-.42.74-3,4.4-5.06,10.63-6.48,17.29-1.1,5.1-1.81,10.45-2.27,15.42-6.36,1.66-14.65,3.01-24.19,3.9-8.33.78-17.63,1.22-27.42,1.22-10.62,0-20.64-.51-29.5-1.42-10.93-1.12-20.08-2.84-26.37-4.95-.41-4.18-1.01-8.6-1.87-12.88-1.42-7.14-3.56-13.89-6.74-18.58-.17-.24-.31-.47-.41-.72,7.64,5.54,32.87,9.62,62.82,9.62s55.25-4.09,62.85-9.64Z"/><path class="cls-6" d="M190.48,71.79c-.34.11-.67.22-.99.34.24-.14.47-.29.69-.45.1.04.2.08.3.11Z"/><path class="cls-6" d="M306.83,71.88c-.16-.05-.32-.11-.48-.16.05-.02.1-.04.15-.06.11.08.22.15.33.22Z"/><path class="cls-4" d="M383.88,370.51c0,1.78-.01,3.56-.05,5.33-.56,35.14-6.62,69.46-14.83,101.84h0c-1.01,3.99-2.05,7.94-3.12,11.85-.1.38-.2.75-.3,1.12h0c-19.14,6.61-63.97,11.24-116.22,11.24s-98.53-4.78-117.13-11.55c-.17-.64-.33-1.28-.5-1.92-.89-3.46-1.78-6.95-2.64-10.46-8.55-34.72-15.5-71.67-16.25-102.11-.05-1.8-.07-3.58-.07-5.34,0-1.07,0-2.14.01-3.2,0-2.53.02-5.04.06-7.52.12-10.31.43-20.2.91-29.68.22-4.34.48-8.59.78-12.76.25-3.55.53-7.03.83-10.45.29-3.32.6-6.57.94-9.78.35-3.39.74-6.73,1.15-10,.29-2.29.59-4.55.9-6.78,1.13-8.09,2.43-15.79,3.88-23.12.19-.97.39-1.94.59-2.9,3.1-14.98,6.87-28.36,11.23-40.29,1.16-3.19,2.36-6.26,3.61-9.24.32-.78.65-1.55.98-2.31.89-2.05,1.8-4.04,2.72-5.99,2.25-4.74,4.62-9.19,7.09-13.37,4.72-7.97,9.84-14.96,15.31-21.04.38-.43.77-.86,1.16-1.28,2.97-3.2,5.69-6.6,8.15-10.16,8.55-12.34,13.98-26.62,15.66-41.65,14.92,5.25,36.19,8.53,59.8,8.53s44.44-3.21,59.34-8.37c.75,15.21,6.15,29.71,15.21,41.79,2.03,2.71,4.24,5.29,6.62,7.73,1.01,1.03,2,2.09,2.98,3.18,5.35,5.9,10.36,12.68,15,20.4,2.66,4.43,5.2,9.17,7.61,14.25,1.07,2.25,2.11,4.56,3.12,6.94.2.47.4.94.6,1.42,1.25,2.95,2.44,6.01,3.59,9.17,4.49,12.29,8.36,26.13,11.5,41.69.09.44.18.89.27,1.34h0c1.4,6.99,2.65,14.31,3.75,21.99.44,3.07.85,6.2,1.25,9.39.4,3.27.77,6.6,1.12,9.99.24,2.37.47,4.76.69,7.19l.4,9.39.59,13.77h0s1.7,39.62,1.7,39.62c.01.7.01,1.41.01,2.11Z"/><path class="cls-2" d="M365.58,490.66c-1.19,4.31-2.4,8.59-3.64,12.82-19.95,6.32-63.78,10.71-114.65,10.71-48.16,0-90.02-3.93-111.27-9.72-1.28-4.63-2.55-9.35-3.79-14.13,18.6,6.77,64.04,11.55,117.13,11.55s97.08-4.63,116.22-11.23Z"/><path class="cls-2" d="M343.48,561.19c-3.74,11.14-7.34,21.82-10.57,31.93-.1.32-.21.65-.31.98,0,.01-.01.03-.01.04-2,4.77-6.53,8.8-14.14,11.99-12.08,5.09-31.93,8.06-61.7,8.52-.32.02-.65.02-.97.02-1.06.02-2.13.03-3.22.03h-.12c-.85,0-1.71,0-2.58,0-.5.01-1.02.01-1.53.01-38.11,0-61.49-4.21-73.95-11.22-5.32-2.98-8.66-6.48-10.29-10.38,0-.01-5.44-14.75-12.77-37.52,22.97,13.55,59.89,22.34,101.52,22.34,35.58,0,67.71-6.42,90.64-16.75Z"/><path class="cls-2" d="M252.44,614.7c-.56,0-1.11.02-1.67.02-.3,0-.61,0-.91-.01.87,0,1.73,0,2.58,0Z"/><path class="cls-2" d="M332.68,161.85c-22.45,3.01-52.41,4.85-85.31,4.85s-61.35-1.74-83.61-4.62c.38-.43.77-.86,1.16-1.28,2.97-3.2,5.69-6.6,8.15-10.16,21.2,2.36,47.66,3.76,76.36,3.76s52.93-1.28,73.65-3.46c2.03,2.71,4.24,5.29,6.62,7.73,1.01,1.03,2,2.09,2.98,3.18Z"/><path class="cls-2" d="M330.3,90.69c0,7.15-8.53,13.65-22.43,18.46-14.9,5.16-35.98,8.37-59.34,8.37s-44.88-3.28-59.8-8.53c-13.64-4.79-21.98-11.23-21.98-18.3s8.65-13.75,22.74-18.56c.32-.12.65-.23.99-.34,10.88,4.21,32.69,7.08,57.84,7.08s47.23-2.9,58.03-7.15c.16.05.32.11.48.16,14.52,4.84,23.47,11.48,23.47,18.81Z"/><path class="cls-4" d="M306.5,71.66s-.1.04-.15.06c-10.8,4.25-32.72,7.15-58.03,7.15s-46.96-2.87-57.84-7.08c-.1-.03-.2-.07-.3-.11,3.32-2.31,5.31-6.21,5.17-10.38-.03-1-.08-2.07-.14-3.19-.14-2.82-.35-5.97-.69-9.26,6.29,2.11,15.44,3.83,26.37,4.95,8.86.91,18.88,1.42,29.5,1.42,9.79,0,19.09-.44,27.42-1.22,9.54-.89,17.83-2.24,24.19-3.9-.26,2.83-.45,5.54-.57,8-.05,1.08-.1,2.11-.13,3.09-.14,4.21,1.87,8.11,5.2,10.47Z"/><path class="cls-3" d="M130.17,285.35l-15.64,32c.25-3.55.53-7.03.83-10.45.29-3.32.6-6.57.94-9.78.35-3.39.74-6.73,1.15-10,.29-2.29.59-4.55.9-6.78,1.13-8.09,2.43-15.79,3.88-23.12.19-.97.39-1.94.59-2.9l7.35,31.03Z"/><polygon class="cls-3" points="172.27 259.95 184.83 304.63 168.9 340.95 156.04 303.46 172.27 259.95"/><polygon class="cls-3" points="245.79 265.72 260.19 309.82 245.79 346.72 231.4 309.82 245.79 265.72"/><polygon class="cls-3" points="320.73 258.67 336.96 302.18 324.1 339.67 308.17 303.36 320.73 258.67"/><path class="cls-3" d="M381.58,315.01l-14.5-29.66,7.02-29.63c.09.44.18.89.27,1.34h0c1.4,6.99,2.65,14.31,3.75,21.99.44,3.07.85,6.2,1.25,9.39.4,3.27.77,6.6,1.12,9.99.24,2.37.47,4.76.69,7.19l.4,9.39Z"/><polygon class="cls-3" points="173.19 405.36 185.76 450.05 169.83 486.36 156.97 448.88 173.19 405.36"/><polygon class="cls-3" points="246.72 411.14 261.11 455.24 246.72 492.13 232.32 455.24 246.72 411.14"/><polygon class="cls-3" points="321.65 404.08 337.88 447.6 325.02 485.08 309.09 448.77 321.65 404.08"/><polygon class="cls-3" points="153.6 177.69 135.71 220.62 146.93 258.69 164.22 222.96 153.6 177.69"/><polygon class="cls-3" points="208.23 189.98 221.28 234.47 206.01 270.98 192.77 233.69 208.23 189.98"/><polygon class="cls-3" points="283.7 190.43 299.16 234.14 285.92 271.43 270.65 234.92 283.7 190.43"/><polygon class="cls-3" points="342.59 177.69 360.47 220.62 349.25 258.69 331.96 222.96 342.59 177.69"/><polygon class="cls-3" points="141.72 318.74 121.46 361.66 134.17 399.73 153.76 364.01 141.72 318.74"/><polygon class="cls-3" points="203.63 331.02 218.41 375.51 201.11 412.02 186.1 374.73 203.63 331.02"/><polygon class="cls-3" points="289.14 331.48 306.66 375.19 291.66 412.48 274.36 375.97 289.14 331.48"/><polygon class="cls-3" points="355.87 318.74 376.13 361.66 363.42 399.73 343.83 364.01 355.87 318.74"/></g></svg>