<?xml version="1.0" encoding="UTF-8"?><svg id="Layer_2" xmlns="http://www.w3.org/2000/svg" viewBox="0 0 301.51 646.45"><defs><style>.cls-1{fill:#d68561;}.cls-1,.cls-2,.cls-3,.cls-4,.cls-5,.cls-6,.cls-7,.cls-8,.cls-9,.cls-10{stroke-width:0px;}.cls-2{fill:#e23e2c;}.cls-3{fill:#33201a;}.cls-11,.cls-12,.cls-13{stroke:#1d1d1b;stroke-miterlimit:10;}.cls-11,.cls-13{fill:none;}.cls-4{fill:#d39d84;}.cls-5{fill:#d1bbb4;}.cls-6{fill:#58744c;}.cls-7{fill:#d67958;}.cls-8{fill:#bba7a0;}.cls-9{fill:#c47249;}.cls-12{fill:#fff;}.cls-13{stroke-width:1.01px;}.cls-10{fill:#405b32;}</style></defs><g id="_Слой_1_копия2_"><path class="cls-12" d="M220.58,529.68c-.01,10.12-.27,19.82-.75,28.82-.07-2.46-.1-4.94-.1-7.45,0-7.35.29-14.5.85-21.37Z"/><ellipse class="cls-1" cx="47.46" cy="299.9" rx="15.32" ry="18.72"/><ellipse class="cls-5" cx="204.89" cy="244.13" rx="28.46" ry="70.93" transform="translate(-61.34 68.91) rotate(-16.64)"/><path class="cls-1" d="M281.5,551.05c0,52.69-15.12,95.4-33.77,95.4s-32.3-38.71-33.66-87.89v-.06c.48-9,.74-18.7.75-28.82v-.54c0-8.62-.18-16.94-.52-24.78-7.35,2.13-15.3,3.38-23.67,3.75-2.07.1-4.18.14-6.31.13-7.49-.03-15.28-.74-23.24-2.12-.29,7.33-.44,15.05-.44,23.02,0,.81,0,1.62.01,2.43.03,8.9.25,17.45.64,25.47-1.09,49.9-15.75,89.41-33.69,89.41s-32.6-39.51-33.69-89.41c.39-8.02.61-16.57.64-25.47.01-.81.01-1.62.01-2.43,0-18.75-.84-36.1-2.29-50.21-2.18-21.43-5.73-35.37-9.73-35.37-3.15,0-6.02,8.64-8.16,22.78-7.26-5.69-13.96-11.71-20.06-17.97-1.51,47.08-13.05,83.7-27.07,83.7-15.05,0-27.25-42.17-27.25-94.18,0-33.71,5.12-63.28,12.83-79.92.56-11.47,3.8-22.19,9.98-31.56,27.1-41.06,100.44-40.44,163.8,1.38,55.65,36.73,85.1,93.04,73.07,134.02,12.75,13.63,21.82,48.45,21.82,89.24Z"/><path class="cls-9" d="M287.26,551.05c0,52.69-15.12,95.4-33.77,95.4s-32.3-38.71-33.66-87.89v-.06c.48-9,.74-18.7.75-28.82v-.54c0-8.62-.18-16.94-.52-24.78-7.35,2.13-15.3,3.38-23.67,3.75-2.07.1-4.18.14-6.31.13-7.49-.03-15.28-.74-23.24-2.12-.29,7.33-.44,15.05-.44,23.02,0,.81,0,1.62.01,2.43.03,8.9.25,17.45.64,25.47-1.09,49.9-15.75,89.41-33.69,89.41s-32.6-39.51-33.69-89.41c.39-8.02.61-16.57.64-25.47.01-.81.01-1.62.01-2.43,0-18.75-.84-36.1-2.29-50.21-2.18-21.43-5.73-35.37-9.73-35.37-3.15,0-6.02,8.64-8.16,22.78-7.26-5.69-13.96-11.71-20.06-17.97-1.51,47.08-13.05,83.7-27.07,83.7-15.05,0-27.25-42.17-27.25-94.18,0-33.71,5.12-63.28,12.83-79.92.56-11.47,3.8-22.19,9.98-31.56,27.1-41.06,100.44-40.44,163.8,1.38,55.65,36.73,85.1,93.04,73.07,134.02,12.75,13.63,21.82,48.45,21.82,89.24Z"/><path class="cls-12" d="M98.03,478.93c-1.27-.79-2.54-1.61-3.81-2.45-4.9-3.23-9.6-6.62-14.08-10.14,2.14-14.14,5.01-22.78,8.16-22.78,4,0,7.55,13.94,9.73,35.37Z"/><path class="cls-6" d="M206.75,311.95c-11.05,29.2-33.32,49.15-59,49.15-5.18,0-10.22-.81-15.05-2.35-1.31,12.57-4.6,26.73-9.92,41.23-15.29,41.65-41.49,70.34-58.54,64.09-17.05-6.26-18.48-45.09-3.2-86.74,8.63-23.51,28.54-62.91,26.87-67.64,4.32,1.82,10.59,3.42,18.27,4.7,5.53.92,11.8,1.67,18.6,2.22,8.02.64,16.78.99,25.95.99,23,0,43.39-2.22,56.02-5.65Z"/><path class="cls-12" d="M100.31,531.57c-.03,8.9-.25,17.45-.64,25.47-.05-1.98-.07-3.98-.07-5.99,0-6.68.24-13.19.71-19.48Z"/><path class="cls-12" d="M167.12,551.05c0,2.01-.02,4.01-.07,5.99-.39-8.02-.61-16.57-.64-25.47.47,6.29.71,12.8.71,19.48Z"/><path class="cls-7" d="M180.16,132.79c-3.4-.69-6.91-.6-10.34.37-4.84,1.37-8.87,4.33-11.85,8.31-2.54-.24-4.97.17-7.15,1.3-5.68,2.94-8.32,10.1-7.68,18.6-.46.42-.91.87-1.34,1.33-5.8,2.24-11.94,5.17-18.19,8.75-5.98-2.97-11.68-7.34-16.74-12.86-7.43-8.1-13.51-18.67-17.17-30.9-1.73-5.77-2.8-11.54-3.26-17.16-2.19-26.5,9.15-49.74,29.04-55.69,24.12-7.21,51.67,13.72,61.54,46.75,3.21,10.73,4.15,21.41,3.14,31.2Z"/><path class="cls-12" d="M143.2,162.17c-.46.17-.93.35-1.4.53.43-.46.88-.91,1.34-1.33.01.26.03.53.06.8Z"/><circle class="cls-9" cx="130.07" cy="99.83" r="11.1"/><circle class="cls-4" cx="133.03" cy="98.94" r="11.1"/><ellipse class="cls-9" cx="164.14" cy="91.26" rx="6.82" ry="11.1" transform="translate(-19.26 50.84) rotate(-16.64)"/><ellipse class="cls-4" cx="166.43" cy="89.62" rx="6.82" ry="11.1" transform="translate(-18.7 51.43) rotate(-16.64)"/><ellipse class="cls-4" cx="163.49" cy="105.63" rx="6.82" ry="11.1" transform="translate(-26.81 146.55) rotate(-45)"/><ellipse class="cls-3" cx="175.64" cy="126.74" rx="6.82" ry="11.1" transform="translate(-38.17 161.32) rotate(-45)"/><ellipse class="cls-3" cx="157.77" cy="132.43" rx="15.98" ry="6.82" transform="translate(-43.86 174.56) rotate(-51.81)"/><ellipse class="cls-3" cx="128.36" cy="87.58" rx="13.9" ry="5.19" transform="translate(-10.89 18.61) rotate(-7.95)"/><ellipse class="cls-3" cx="161.04" cy="77.37" rx="13.9" ry="5.19" transform="translate(-17.48 70.17) rotate(-23.35)"/><path class="cls-8" d="M214.19,270.09c0,9.39-1.04,18.44-2.97,26.96-1.16,5.18-2.66,10.16-4.47,14.9-12.63,3.43-33.02,5.65-56.02,5.65-27.76,0-51.71-3.23-62.82-7.91-1.17-3.3-2.19-6.72-3.06-10.23-2.3-9.22-3.54-19.09-3.54-29.37,0-50.26,29.74-91,66.44-91s66.44,40.74,66.44,91Z"/><ellipse class="cls-1" cx="214.2" cy="367.16" rx="80.32" ry="52.25" transform="translate(-210.23 343.67) rotate(-56.57)"/><ellipse class="cls-9" cx="220.15" cy="372.41" rx="80.32" ry="52.25" transform="translate(-211.93 350.99) rotate(-56.57)"/><ellipse class="cls-8" cx="94.47" cy="214.44" rx="43.1" ry="27.63" transform="translate(-98.53 81.55) rotate(-31.67)"/><path class="cls-9" d="M123.61,171.45c-5.77,3.29-11.64,7.13-17.46,11.48-1.57,1.17-3.1,2.36-4.6,3.55,1.19-3.19,2.2-6.51,3.02-9.95,1.45-6.08,2.2-12.11,2.3-17.94,5.06,5.52,10.76,9.89,16.74,12.86Z"/><circle class="cls-2" cx="124.29" cy="421.83" r="4.32"/><circle class="cls-2" cx="129.13" cy="437.62" r="4.32"/><circle class="cls-2" cx="136.27" cy="450.6" r="4.32"/><circle class="cls-2" cx="145.33" cy="460.93" r="4.32"/><circle class="cls-2" cx="155.92" cy="468.79" r="4.32"/><circle class="cls-2" cx="167.66" cy="474.34" r="4.32"/><circle class="cls-2" cx="180.18" cy="477.75" r="4.32"/><circle class="cls-2" cx="193.1" cy="479.19" r="4.32"/><circle class="cls-2" cx="206.03" cy="478.84" r="4.32"/><circle class="cls-2" cx="218.59" cy="476.86" r="4.32"/><circle class="cls-2" cx="230.41" cy="473.42" r="4.32"/><circle class="cls-2" cx="241.11" cy="468.7" r="4.32"/><circle class="cls-2" cx="250.3" cy="462.85" r="4.32"/><circle class="cls-2" cx="257.6" cy="456.06" r="4.32"/><circle class="cls-5" cx="124.29" cy="418.48" r="4.32"/><circle class="cls-5" cx="129.13" cy="434.27" r="4.32"/><circle class="cls-5" cx="136.27" cy="447.25" r="4.32"/><circle class="cls-5" cx="145.33" cy="457.58" r="4.32"/><circle class="cls-5" cx="155.92" cy="465.44" r="4.32"/><circle class="cls-5" cx="167.66" cy="470.99" r="4.32"/><circle class="cls-5" cx="180.18" cy="474.4" r="4.32"/><circle class="cls-5" cx="193.1" cy="475.84" r="4.32"/><circle class="cls-5" cx="206.03" cy="475.49" r="4.32"/><circle class="cls-5" cx="218.59" cy="473.51" r="4.32"/><circle class="cls-5" cx="230.41" cy="470.07" r="4.32"/><circle class="cls-5" cx="241.11" cy="465.35" r="4.32"/><circle class="cls-5" cx="250.3" cy="459.5" r="4.32"/><circle class="cls-5" cx="257.6" cy="452.71" r="4.32"/><ellipse class="cls-10" cx="80.9" cy="451.22" rx="22.98" ry="32.61" transform="translate(-365.63 347.52) rotate(-66.76)"/><ellipse class="cls-1" cx="244.25" cy="366.21" rx="52.25" ry="89.45"/><ellipse class="cls-9" cx="209.71" cy="301.52" rx="18.96" ry="29.14" transform="translate(-91.03 90.68) rotate(-20.15)"/><ellipse class="cls-1" cx="213.54" cy="301.52" rx="18.96" ry="29.14" transform="translate(-90.79 92) rotate(-20.15)"/><ellipse class="cls-9" cx="277.5" cy="301.52" rx="29.14" ry="18.96" transform="translate(-101.15 458.19) rotate(-69.85)"/><ellipse class="cls-1" cx="281.08" cy="301.52" rx="29.14" ry="18.96" transform="translate(-98.81 461.54) rotate(-69.85)"/><ellipse class="cls-3" cx="277.5" cy="371.07" rx="15.58" ry="10.14" transform="translate(-166.45 503.78) rotate(-69.85)"/><ellipse class="cls-5" cx="279.55" cy="371.07" rx="15.58" ry="10.14" transform="translate(-165.11 505.7) rotate(-69.85)"/><ellipse class="cls-3" cx="220.15" cy="373.66" rx="10.14" ry="15.58" transform="translate(-115.23 98.7) rotate(-20.15)"/><ellipse class="cls-5" cx="222.37" cy="373.66" rx="10.14" ry="15.58" transform="translate(-115.1 99.46) rotate(-20.15)"/><ellipse class="cls-3" cx="222.37" cy="373.66" rx="4.09" ry="7.49" transform="translate(-115.1 99.46) rotate(-20.15)"/><ellipse class="cls-3" cx="278.6" cy="373.66" rx="7.49" ry="4.09" transform="translate(-168.16 506.5) rotate(-69.85)"/><path class="cls-10" d="M120.84,81.43c-35.18,10.51-65.51,12.98-67.74,5.5-1.21-4.03,5.99-10.12,18.4-16.53l2.27,6.64c1.44,4.1,13.54,3.8,29.54-.14,5.3-1.31,11.04-3.02,16.96-5.1,5.13-1.8,9.97-3.73,14.4-5.71,16.1-7.2,26.67-15.01,25.16-19.29l-.67-1.95c12.16-.98,20.23.28,21.34,4,2.23,7.47-24.47,22.06-59.66,32.58Z"/><path class="cls-12" d="M159.83,46.8c-.27-.77-.91-1.38-1.89-1.85.41-.04.82-.07,1.22-.1l.67,1.95Z"/><line class="cls-11" x1="144.79" y1="3.2" x2="144.77" y2="3.12"/><polyline class="cls-11" points="144.8 3.21 145.65 5.68 145.65 5.69"/><path class="cls-6" d="M57.45,29.22c-.53-1.77-1-3.54-1.4-5.31-.24-1-.45-1.99-.64-2.98,2.14-5.6,20.24-13.14,43.02-17.62,22.56-4.44,41.99-4.36,46.36-.11h.01c.27.94.54,1.88.78,2.81.03-.11.06-.22.07-.32l13.51,39.16.67,1.95c1.51,4.28-9.06,12.09-25.16,19.29-4.43,1.98-9.27,3.91-14.4,5.71-5.92,2.08-11.66,3.79-16.96,5.1-16,3.94-28.1,4.24-29.54.14l-2.27-6.64-11.9-34.88"/><line class="cls-13" x1="145.65" y1="5.69" x2="145.65" y2="5.68"/><path class="cls-9" d="M181.66,192.9c-.99,1.09-2.13,1.99-3.44,2.67-.68.36-1.39.64-2.12.85-1.3.39-2.66.55-4.06.51-8.34-.22-18.07-7.62-24.06-19.18-.4-.77-.77-1.54-1.13-2.32-2.03-4.49-3.24-9.03-3.65-13.26-.03-.27-.05-.54-.06-.8-.64-8.5,2-15.66,7.68-18.6,2.18-1.13,4.61-1.54,7.15-1.3-2.85,3.79-4.73,8.52-5.44,13.68-.18,1.37-.28,2.77-.29,4.19-.04,3.34.41,6.81,1.39,10.27.34,1.21.74,2.39,1.2,3.52,3.91,9.9,11.7,16.96,20.33,19.1,1.13.29,2.28.49,3.44.59,1.02.1,2.04.13,3.06.08Z"/><path class="cls-12" d="M143.2,162.17c-.46.17-.93.35-1.4.53.43-.46.88-.91,1.34-1.33.01.26.03.53.06.8Z"/><path class="cls-5" d="M176.1,196.42c-3.13,3.98-6.9,7.08-10.92,9.2-6.73,7.74-15.18,15.6-24.95,22.9-31.38,23.45-64.45,32.26-73.86,19.67-4.04-5.4-3.06-13.87,1.84-23.63,5.96-11.84,17.72-25.59,33.34-38.08,1.5-1.19,3.03-2.38,4.6-3.55,5.82-4.35,11.69-8.19,17.46-11.48,6.25-3.58,12.39-6.51,18.19-8.75.47-.18.94-.36,1.4-.53.41,4.23,1.62,8.77,3.65,13.26.36.78.73,1.55,1.13,2.32,5.99,11.56,15.72,18.96,24.06,19.18,1.4.04,2.76-.12,4.06-.51Z"/><path class="cls-9" d="M186.56,192.1c-1.63.46-3.26.72-4.9.8-1.02.05-2.04.02-3.06-.08-1.16-.1-2.31-.3-3.44-.59-8.63-2.14-16.42-9.2-20.33-19.1-.46-1.13-.86-2.31-1.2-3.52-.98-3.46-1.43-6.93-1.39-10.27,0-1.42.11-2.82.29-4.19.71-5.16,2.59-9.89,5.44-13.68,2.98-3.98,7.01-6.94,11.85-8.31,3.43-.97,6.94-1.06,10.34-.37,10.04,2.01,19.13,10.7,22.59,22.86,4.62,16.28-2.62,32.6-16.19,36.45Z"/><ellipse class="cls-3" cx="133.2" cy="99.52" rx="6.37" ry="4.34" transform="translate(-22.92 42.32) rotate(-16.64)"/><ellipse class="cls-3" cx="166.69" cy="89.43" rx="5.87" ry="4" transform="translate(-18.63 51.49) rotate(-16.64)"/><ellipse class="cls-2" cx="248.31" cy="605.93" rx="4.09" ry="11.49" transform="translate(-269.7 205.33) rotate(-30)"/><ellipse class="cls-2" cx="260.45" cy="605.93" rx="11.49" ry="4.09" transform="translate(-394.52 528.52) rotate(-60)"/><ellipse class="cls-2" cx="248.31" cy="583.87" rx="4.09" ry="11.49" transform="translate(-258.67 202.38) rotate(-30)"/><ellipse class="cls-2" cx="260.45" cy="583.87" rx="11.49" ry="4.09" transform="translate(-375.42 517.49) rotate(-60)"/><ellipse class="cls-2" cx="248.31" cy="561.81" rx="4.09" ry="11.49" transform="translate(-247.64 199.42) rotate(-30)"/><ellipse class="cls-2" cx="260.45" cy="561.81" rx="11.49" ry="4.09" transform="translate(-356.31 506.46) rotate(-60)"/><ellipse class="cls-2" cx="248.31" cy="539.75" rx="4.09" ry="11.49" transform="translate(-236.61 196.46) rotate(-30)"/><ellipse class="cls-2" cx="260.45" cy="539.75" rx="11.49" ry="4.09" transform="translate(-337.21 495.43) rotate(-60)"/><ellipse class="cls-2" cx="248.31" cy="517.69" rx="4.09" ry="11.49" transform="translate(-225.58 193.51) rotate(-30)"/><ellipse class="cls-2" cx="260.45" cy="517.69" rx="11.49" ry="4.09" transform="translate(-318.1 484.4) rotate(-60)"/><ellipse class="cls-2" cx="248.31" cy="495.63" rx="4.09" ry="11.49" transform="translate(-214.55 190.55) rotate(-30)"/><ellipse class="cls-2" cx="260.45" cy="495.63" rx="11.49" ry="4.09" transform="translate(-299 473.37) rotate(-60)"/><ellipse class="cls-5" cx="248.38" cy="601.35" rx="4.09" ry="11.49" transform="translate(-267.4 204.75) rotate(-30)"/><ellipse class="cls-5" cx="260.52" cy="601.35" rx="11.49" ry="4.09" transform="translate(-390.52 526.29) rotate(-60)"/><ellipse class="cls-5" cx="248.38" cy="579.29" rx="4.09" ry="11.49" transform="translate(-256.37 201.8) rotate(-30)"/><ellipse class="cls-5" cx="260.52" cy="579.29" rx="11.49" ry="4.09" transform="translate(-371.42 515.26) rotate(-60)"/><ellipse class="cls-5" cx="248.38" cy="557.23" rx="4.09" ry="11.49" transform="translate(-245.34 198.84) rotate(-30)"/><ellipse class="cls-5" cx="260.52" cy="557.23" rx="11.49" ry="4.09" transform="translate(-352.32 504.23) rotate(-60)"/><ellipse class="cls-5" cx="248.38" cy="535.17" rx="4.09" ry="11.49" transform="translate(-234.31 195.89) rotate(-30)"/><ellipse class="cls-5" cx="260.52" cy="535.17" rx="11.49" ry="4.09" transform="translate(-333.21 493.2) rotate(-60)"/><ellipse class="cls-5" cx="248.38" cy="513.11" rx="4.09" ry="11.49" transform="translate(-223.28 192.93) rotate(-30)"/><ellipse class="cls-5" cx="260.52" cy="513.11" rx="11.49" ry="4.09" transform="translate(-314.11 482.17) rotate(-60)"/><ellipse class="cls-5" cx="248.38" cy="491.05" rx="4.09" ry="11.49" transform="translate(-212.25 189.98) rotate(-30)"/><ellipse class="cls-5" cx="260.52" cy="491.05" rx="11.49" ry="4.09" transform="translate(-295 471.14) rotate(-60)"/><ellipse class="cls-2" cx="126.72" cy="612.05" rx="4.09" ry="11.49" transform="translate(-289.05 145.36) rotate(-30)"/><ellipse class="cls-2" cx="138.86" cy="612.05" rx="11.49" ry="4.09" transform="translate(-460.62 426.28) rotate(-60)"/><ellipse class="cls-2" cx="126.72" cy="589.99" rx="4.09" ry="11.49" transform="translate(-278.02 142.4) rotate(-30)"/><ellipse class="cls-2" cx="138.86" cy="589.99" rx="11.49" ry="4.09" transform="translate(-441.52 415.26) rotate(-60)"/><ellipse class="cls-2" cx="126.72" cy="567.93" rx="4.09" ry="11.49" transform="translate(-266.99 139.45) rotate(-30)"/><ellipse class="cls-2" cx="138.86" cy="567.93" rx="11.49" ry="4.09" transform="translate(-422.41 404.23) rotate(-60)"/><ellipse class="cls-2" cx="126.72" cy="545.87" rx="4.09" ry="11.49" transform="translate(-255.96 136.49) rotate(-30)"/><ellipse class="cls-2" cx="138.86" cy="545.87" rx="11.49" ry="4.09" transform="translate(-403.31 393.2) rotate(-60)"/><ellipse class="cls-2" cx="126.72" cy="523.82" rx="4.09" ry="11.49" transform="translate(-244.93 133.54) rotate(-30)"/><ellipse class="cls-2" cx="138.86" cy="523.82" rx="11.49" ry="4.09" transform="translate(-384.21 382.17) rotate(-60)"/><ellipse class="cls-2" cx="126.72" cy="501.76" rx="4.09" ry="11.49" transform="translate(-233.9 130.58) rotate(-30)"/><ellipse class="cls-2" cx="138.86" cy="501.76" rx="11.49" ry="4.09" transform="translate(-365.1 371.14) rotate(-60)"/><ellipse class="cls-2" cx="247.35" cy="396.32" rx="3.13" ry="9.1" transform="translate(-172.97 192.4) rotate(-32.15)"/><ellipse class="cls-2" cx="256.51" cy="395.67" rx="9.1" ry="3.13" transform="translate(-209.36 468.64) rotate(-65.95)"/><ellipse class="cls-2" cx="249.32" cy="380.6" rx="3.13" ry="9.1" transform="translate(-164.3 191.04) rotate(-32.15)"/><ellipse class="cls-2" cx="258.48" cy="379.95" rx="9.1" ry="3.13" transform="translate(-193.82 461.13) rotate(-65.95)"/><ellipse class="cls-2" cx="248.84" cy="362.94" rx="3.13" ry="9.1" transform="translate(-154.98 188.07) rotate(-32.15)"/><ellipse class="cls-2" cx="258" cy="362.29" rx="9.1" ry="3.13" transform="translate(-177.99 450.22) rotate(-65.95)"/><ellipse class="cls-2" cx="246.58" cy="344.39" rx="3.13" ry="9.1" transform="translate(-145.46 184.03) rotate(-32.15)"/><ellipse class="cls-2" cx="255.74" cy="343.75" rx="9.1" ry="3.13" transform="translate(-162.39 437.18) rotate(-65.95)"/><ellipse class="cls-2" cx="243.26" cy="326.01" rx="3.13" ry="9.1" transform="translate(-136.18 179.44) rotate(-32.15)"/><ellipse class="cls-2" cx="252.42" cy="325.37" rx="9.1" ry="3.13" transform="translate(-147.58 423.26) rotate(-65.95)"/><ellipse class="cls-2" cx="239.56" cy="308.85" rx="3.13" ry="9.1" transform="translate(-127.62 174.84) rotate(-32.15)"/><ellipse class="cls-2" cx="248.72" cy="308.2" rx="9.1" ry="3.13" transform="translate(-134.09 409.71) rotate(-65.95)"/><ellipse class="cls-2" cx="236.18" cy="293.94" rx="3.13" ry="9.1" transform="translate(-120.2 170.76) rotate(-32.15)"/><ellipse class="cls-2" cx="245.34" cy="293.29" rx="9.1" ry="3.13" transform="translate(-122.48 397.79) rotate(-65.95)"/><ellipse class="cls-5" cx="247.23" cy="392.71" rx="3.13" ry="9.1" transform="translate(-171.07 191.79) rotate(-32.15)"/><ellipse class="cls-5" cx="256.39" cy="392.06" rx="9.1" ry="3.13" transform="translate(-206.13 466.4) rotate(-65.95)"/><ellipse class="cls-5" cx="249.21" cy="376.98" rx="3.13" ry="9.1" transform="translate(-162.4 190.42) rotate(-32.15)"/><ellipse class="cls-5" cx="258.37" cy="376.33" rx="9.1" ry="3.13" transform="translate(-190.59 458.88) rotate(-65.95)"/><ellipse class="cls-5" cx="248.72" cy="359.32" rx="3.13" ry="9.1" transform="translate(-153.07 187.46) rotate(-32.15)"/><ellipse class="cls-5" cx="257.88" cy="358.68" rx="9.1" ry="3.13" transform="translate(-174.76 447.98) rotate(-65.95)"/><ellipse class="cls-5" cx="246.47" cy="340.78" rx="3.13" ry="9.1" transform="translate(-143.55 183.42) rotate(-32.15)"/><ellipse class="cls-5" cx="255.63" cy="340.13" rx="9.1" ry="3.13" transform="translate(-159.16 434.93) rotate(-65.95)"/><ellipse class="cls-5" cx="243.14" cy="322.4" rx="3.13" ry="9.1" transform="translate(-134.28 178.83) rotate(-32.15)"/><ellipse class="cls-5" cx="252.3" cy="321.75" rx="9.1" ry="3.13" transform="translate(-144.35 421.01) rotate(-65.95)"/><ellipse class="cls-5" cx="239.44" cy="305.23" rx="3.13" ry="9.1" transform="translate(-125.71 174.23) rotate(-32.15)"/><ellipse class="cls-5" cx="248.6" cy="304.59" rx="9.1" ry="3.13" transform="translate(-130.86 407.46) rotate(-65.95)"/><ellipse class="cls-5" cx="236.06" cy="290.33" rx="3.13" ry="9.1" transform="translate(-118.3 170.14) rotate(-32.15)"/><ellipse class="cls-5" cx="245.22" cy="289.68" rx="9.1" ry="3.13" transform="translate(-119.25 395.54) rotate(-65.95)"/><ellipse class="cls-5" cx="126.79" cy="607.48" rx="4.09" ry="11.49" transform="translate(-286.75 144.78) rotate(-30)"/><ellipse class="cls-5" cx="138.93" cy="607.48" rx="11.49" ry="4.09" transform="translate(-456.63 424.06) rotate(-60)"/><ellipse class="cls-5" cx="126.79" cy="585.42" rx="4.09" ry="11.49" transform="translate(-275.72 141.82) rotate(-30)"/><ellipse class="cls-5" cx="138.93" cy="585.42" rx="11.49" ry="4.09" transform="translate(-437.52 413.03) rotate(-60)"/><ellipse class="cls-5" cx="126.79" cy="563.36" rx="4.09" ry="11.49" transform="translate(-264.69 138.87) rotate(-30)"/><ellipse class="cls-5" cx="138.93" cy="563.36" rx="11.49" ry="4.09" transform="translate(-418.42 402) rotate(-60)"/><ellipse class="cls-5" cx="126.79" cy="541.3" rx="4.09" ry="11.49" transform="translate(-253.66 135.91) rotate(-30)"/><ellipse class="cls-5" cx="138.93" cy="541.3" rx="11.49" ry="4.09" transform="translate(-399.31 390.97) rotate(-60)"/><ellipse class="cls-5" cx="126.79" cy="519.24" rx="4.09" ry="11.49" transform="translate(-242.63 132.96) rotate(-30)"/><ellipse class="cls-5" cx="138.93" cy="519.24" rx="11.49" ry="4.09" transform="translate(-380.21 379.94) rotate(-60)"/><ellipse class="cls-5" cx="126.79" cy="497.18" rx="4.09" ry="11.49" transform="translate(-231.6 130) rotate(-30)"/><ellipse class="cls-5" cx="138.93" cy="497.18" rx="11.49" ry="4.09" transform="translate(-361.1 368.91) rotate(-60)"/><ellipse class="cls-2" cx="27.25" cy="500.75" rx="4.09" ry="11.49" transform="translate(-246.72 80.71) rotate(-30)"/><ellipse class="cls-2" cx="39.4" cy="500.75" rx="11.49" ry="4.09" transform="translate(-413.96 284.49) rotate(-60)"/><ellipse class="cls-2" cx="27.25" cy="478.69" rx="4.09" ry="11.49" transform="translate(-235.69 77.76) rotate(-30)"/><ellipse class="cls-2" cx="39.4" cy="478.69" rx="11.49" ry="4.09" transform="translate(-394.86 273.46) rotate(-60)"/><ellipse class="cls-2" cx="27.25" cy="456.63" rx="4.09" ry="11.49" transform="translate(-224.66 74.8) rotate(-30)"/><ellipse class="cls-2" cx="39.4" cy="456.63" rx="11.49" ry="4.09" transform="translate(-375.75 262.43) rotate(-60)"/><ellipse class="cls-2" cx="27.25" cy="434.57" rx="4.09" ry="11.49" transform="translate(-213.63 71.85) rotate(-30)"/><ellipse class="cls-2" cx="39.4" cy="434.57" rx="11.49" ry="4.09" transform="translate(-356.65 251.4) rotate(-60)"/><ellipse class="cls-2" cx="27.25" cy="412.51" rx="4.09" ry="11.49" transform="translate(-202.6 68.89) rotate(-30)"/><ellipse class="cls-2" cx="39.4" cy="412.51" rx="11.49" ry="4.09" transform="translate(-337.54 240.37) rotate(-60)"/><ellipse class="cls-2" cx="27.25" cy="390.45" rx="4.09" ry="11.49" transform="translate(-191.57 65.94) rotate(-30)"/><ellipse class="cls-2" cx="39.4" cy="390.45" rx="11.49" ry="4.09" transform="translate(-318.44 229.34) rotate(-60)"/><ellipse class="cls-5" cx="27.25" cy="497.36" rx="4.09" ry="11.49" transform="translate(-245.03 80.26) rotate(-30)"/><ellipse class="cls-5" cx="39.4" cy="497.36" rx="11.49" ry="4.09" transform="translate(-411.02 282.8) rotate(-60)"/><ellipse class="cls-5" cx="27.25" cy="475.3" rx="4.09" ry="11.49" transform="translate(-234 77.3) rotate(-30)"/><ellipse class="cls-5" cx="39.4" cy="475.3" rx="11.49" ry="4.09" transform="translate(-391.92 271.77) rotate(-60)"/><ellipse class="cls-5" cx="27.25" cy="453.24" rx="4.09" ry="11.49" transform="translate(-222.97 74.35) rotate(-30)"/><ellipse class="cls-5" cx="39.4" cy="453.24" rx="11.49" ry="4.09" transform="translate(-372.82 260.74) rotate(-60)"/><ellipse class="cls-5" cx="27.25" cy="431.18" rx="4.09" ry="11.49" transform="translate(-211.94 71.39) rotate(-30)"/><ellipse class="cls-5" cx="39.4" cy="431.18" rx="11.49" ry="4.09" transform="translate(-353.71 249.71) rotate(-60)"/><ellipse class="cls-5" cx="27.25" cy="409.12" rx="4.09" ry="11.49" transform="translate(-200.91 68.44) rotate(-30)"/><ellipse class="cls-5" cx="39.4" cy="409.12" rx="11.49" ry="4.09" transform="translate(-334.61 238.68) rotate(-60)"/><ellipse class="cls-5" cx="27.25" cy="387.06" rx="4.09" ry="11.49" transform="translate(-189.88 65.48) rotate(-30)"/><ellipse class="cls-5" cx="39.4" cy="387.06" rx="11.49" ry="4.09" transform="translate(-315.5 227.65) rotate(-60)"/><circle class="cls-5" cx="171.78" cy="214.64" r="6.59"/><circle class="cls-5" cx="179.82" cy="232.55" r="6.59"/><circle class="cls-5" cx="185.67" cy="266.7" r="6.59"/><circle class="cls-5" cx="181.66" cy="297.12" r="6.59"/><circle class="cls-3" cx="171.78" cy="210.37" r="6.59"/><circle class="cls-3" cx="179.82" cy="228.27" r="6.59"/><circle class="cls-3" cx="185.67" cy="262.43" r="6.59"/><circle class="cls-3" cx="181.66" cy="292.85" r="6.59"/><ellipse class="cls-9" cx="50.46" cy="295.05" rx="15.32" ry="18.72"/><ellipse class="cls-4" cx="86.17" cy="123.11" rx="8.68" ry="13.9" transform="translate(-50.01 59.58) rotate(-30)"/><ellipse class="cls-7" cx="88.05" cy="119.63" rx="8.68" ry="13.9" transform="translate(-48.02 60.05) rotate(-30)"/></g></svg>