<?xml version="1.0" encoding="UTF-8"?><svg id="Layer_2" xmlns="http://www.w3.org/2000/svg" viewBox="0 0 716.6 588.5"><defs><style>.cls-1{fill:#c17539;}.cls-1,.cls-2,.cls-3,.cls-4{stroke-width:0px;}.cls-2{fill:#b05d27;}.cls-5{fill:none;}.cls-5,.cls-6{stroke:#1d1d1b;stroke-miterlimit:10;}.cls-3{fill:#bd7238;}.cls-6{fill:#fff;}.cls-4{fill:#61321b;}</style></defs><g id="_Слой_2_копия_"><path class="cls-3" d="M693.48,481.01c-17.21,63.32-83.07,107.49-335.18,107.49S40.3,544.32,23.11,480.97c29.06,50.14,109.96,83.37,335.19,83.37s306.09-33.21,335.18-83.33Z"/><path class="cls-6" d="M437.09,207.37c-25.35-1.54-51.72-2.36-78.79-2.36s-53.45.82-78.8,2.36c25.33-2.98,51.71-4.56,78.8-4.56s53.46,1.58,78.79,4.56Z"/><path class="cls-2" d="M709.79,383.58c0,35.88,0,69.31-16.31,97.43-29.09,50.12-110.01,83.33-335.18,83.33S52.17,531.11,23.11,480.97h0c-16.29-28.12-16.29-61.53-16.29-97.39,0-1.52.04-3.04.11-4.55.38,24.11,2.22,46.78,10.89,67.09h0c23.9,56.01,99.75,93.98,340.48,93.98s316.57-37.96,340.48-93.95h0c8.68-20.32,10.52-43.01,10.9-67.12.07,1.51.11,3.03.11,4.55Z"/><path class="cls-3" d="M709.79,359.33c0,6.66,0,13.23-.11,19.7-.38,24.11-2.22,46.8-10.9,67.11h0c-23.91,56-99.77,93.96-340.48,93.96S41.71,502.13,17.81,446.13h0c-8.67-20.32-10.51-42.99-10.89-67.1-.11-6.47-.11-13.04-.11-19.7,0-3.86.23-7.67.7-11.47,1.29,1.69,2.74,3.36,4.36,5.01,3.99,4.11,8.95,8.11,14.81,11.99,53.54,35.41,181.85,60.36,331.61,60.36s278.07-24.95,331.61-60.36c5.87-3.88,10.83-7.89,14.82-12,1.62-1.66,3.08-3.33,4.36-5.02.46,3.8.7,7.63.7,11.49Z"/><path class="cls-6" d="M437.09,207.37c-25.35-1.54-51.72-2.36-78.79-2.36s-53.45.82-78.8,2.36c25.33-2.98,51.71-4.56,78.8-4.56s53.46,1.58,78.79,4.56Z"/><path class="cls-2" d="M716.6,327.94c0,6.82-2.58,13.48-7.51,19.9-1.28,1.69-2.74,3.36-4.36,5.02-3.99,4.11-8.95,8.12-14.82,12-53.54,35.41-181.84,60.36-331.61,60.36s-278.07-24.95-331.61-60.36c-5.86-3.88-10.82-7.88-14.81-11.99-1.62-1.65-3.07-3.32-4.36-5.01h0c-4.93-6.44-7.52-13.1-7.52-19.92,0-4.35,1.05-8.63,3.1-12.82,2.05,4.24,5.12,8.4,9.13,12.45,2.28,2.31,4.87,4.59,7.76,6.82,5.02,3.91,10.92,7.69,17.65,11.34,58.78,31.92,180.29,53.84,320.66,53.84s261.89-21.92,320.66-53.84c6.73-3.65,12.64-7.43,17.66-11.34,2.88-2.23,5.47-4.51,7.76-6.82,4.01-4.05,7.07-8.21,9.12-12.45,2.05,4.19,3.1,8.47,3.1,12.82Z"/><path class="cls-4" d="M609.65,232.97c-46.8-12.51-106.2-21.56-172.56-25.6-25.35-1.54-51.72-2.36-78.79-2.36s-53.45.82-78.8,2.36c-66.35,4.04-125.75,13.09-172.54,25.6C40.93,250.61,0,275.15,0,302.29c0,4.35,1.05,8.62,3.1,12.82h0c2.05,4.25,5.12,8.41,9.13,12.46,2.28,2.31,4.87,4.59,7.76,6.82,5.02,3.91,10.92,7.69,17.65,11.34,58.78,31.92,180.29,53.84,320.66,53.84s261.89-21.92,320.66-53.84c6.73-3.65,12.64-7.43,17.66-11.34,2.88-2.23,5.47-4.51,7.76-6.82,4.01-4.05,7.07-8.21,9.12-12.45h0c2.05-4.21,3.1-8.48,3.1-12.83,0-27.14-40.93-51.68-106.95-69.32ZM682.64,313.79c-3.55,5.42-9.16,10.67-16.62,15.69-46.95,31.62-167.02,54.1-307.72,54.1s-260.77-22.48-307.72-54.1c-7.45-5.02-13.06-10.26-16.61-15.68-2.98-4.52-4.52-9.16-4.52-13.89,0-1.83.23-3.65.69-5.45,0-.01.01-.02.01-.02.64-2.56,1.74-5.09,3.28-7.58h.01c4.35-7.08,12.19-13.86,23.07-20.23,23.93-14.03,62.51-26.05,110.83-34.84.01,0,.02,0,.03,0,53.83-9.78,119.74-15.53,190.93-15.53s137.14,5.76,190.98,15.54c.01.01.02.01.02.01,48.32,8.79,86.89,20.82,110.81,34.84h.01c10.86,6.37,18.7,13.15,23.04,20.22h.01c1.53,2.48,2.63,4.99,3.27,7.54,0,0,0,.01,0,.02.47,1.81.7,3.64.7,5.49,0,4.73-1.54,9.36-4.51,13.88Z"/><path class="cls-2" d="M687.15,299.91c0,4.73-1.54,9.36-4.51,13.88-3.55,5.42-9.16,10.67-16.62,15.69-46.95,31.62-167.02,54.1-307.72,54.1s-260.77-22.48-307.72-54.1c-7.45-5.02-13.06-10.26-16.61-15.68-2.98-4.52-4.52-9.16-4.52-13.89,0-1.83.23-3.65.69-5.45,0-.01.01-.02.01-.02.64-2.56,1.74-5.09,3.28-7.58h.01c4.35-7.08,12.19-13.86,23.07-20.23,23.93-14.03,62.51-26.05,110.83-34.84.01,0,.02,0,.03,0,53.83-9.78,119.74-15.53,190.93-15.53s137.14,5.76,190.98,15.54c.01.01.02.01.02.01,48.32,8.79,86.89,20.82,110.81,34.84h.01c10.86,6.37,18.7,13.15,23.04,20.22h.01c1.53,2.48,2.63,4.99,3.27,7.54,0,0,0,.01,0,.02.47,1.81.7,3.64.7,5.49Z"/><path class="cls-2" d="M436.59,17.48v6.13c0-5.14-2.25-9.78-5.82-12.98-3.09-2.79-7.19-4.5-11.66-4.5l-109.93,9.65c-9.61,0-17.48,7.86-17.48,17.48v10.9c-.04,1.6-.09,3.34-.16,5.21-.04.93-.08,1.89-.13,2.89-.08,1.49-.16,3.05-.27,4.67-.02.39-.05.78-.08,1.17-.16,2.34-.35,4.79-.6,7.32-.05.59-.11,1.19-.17,1.79-.42,4.21-.96,8.64-1.66,13.18-.2,1.3-.41,2.6-.63,3.91-.23,1.31-.46,2.63-.71,3.95s-.52,2.64-.79,3.97c-.27,1.33-.57,2.65-.88,3.98-.16.72-.34,1.45-.51,2.17-.16.6-.31,1.2-.46,1.8,0,0,.01.01,0,.02-.25.99-.52,1.98-.79,2.97-.06.21-.12.42-.18.64-.25.91-.52,1.82-.79,2.73-1.48,4.9-3.2,9.69-5.21,14.24-.21.48-.42.95-.64,1.42-.02.04-.04.08-.05.12-.22.48-.45.95-.68,1.42-.23.49-.46.97-.71,1.45-.2.4-.4.8-.61,1.19-.31.59-.62,1.18-.94,1.76-.24.43-.48.85-.72,1.26-.26.46-.53.91-.8,1.36-1.94,3.22-4.08,6.22-6.45,8.94-.23.28-.48.56-.73.83-.28.31-.56.62-.86.93-.22.23-.44.46-.67.69-.19.2-.39.41-.6.6-.35.35-.71.69-1.07,1.02-.36.34-.72.66-1.09.98-4.41,3.82-9.45,6.73-15.21,8.42-.01-.01-.01,0-.02,0-1.08.31-2.18.58-3.31.8-.05.01-.08.02-.12.02-3.3.42-6.07.71-7.67.79-.1,0-.2.01-.3.01-.17,0-.32,0-.45,0-.01,0-.03,0-.04,0-.49-.14-.98-.29-1.47-.44-1.45-.44-2.87-.89-4.26-1.34-.92-.3-1.83-.61-2.72-.92-.89-.31-1.77-.62-2.62-.94-1.29-.47-2.54-.96-3.75-1.44-.4-.16-.8-.33-1.2-.49-.79-.33-1.56-.66-2.32-1-.34-.15-.67-.3-1.01-.45-1.14-.52-2.24-1.05-3.3-1.59-.34-.17-.68-.34-1.01-.52-1.33-.69-2.58-1.4-3.76-2.12-.27-.16-.53-.33-.79-.49-1.17-.74-2.26-1.49-3.27-2.25-.47-.35-.92-.71-1.36-1.07-.47-.39-.92-.78-1.35-1.18-1.85-1.42-3.62-2.93-5.28-4.53.17-.5.37-1,.61-1.5.87-1.84,2.22-3.64,4-5.4h.01c16.8-1.53,31.77-8.56,42.65-19.03,3.91-3.76,7.29-7.96,10.04-12.52,5.17-8.56,8.1-18.37,8.1-28.78V20.83c0-9.61,9.59-17.48,21.31-17.48L415.27,0c7.66,0,14.41,3.36,18.16,8.36,2,2.66,3.16,5.79,3.16,9.12Z"/><path class="cls-1" d="M241.74,108.08c-10.88,10.47-25.85,17.5-42.65,19.03,7.4-7.31,22.37-13.85,42.65-19.03Z"/><path class="cls-1" d="M521.53,132.5c-9.86,20.7-79.18,36.75-163.23,36.75-1.55,0-3.1-.01-4.64-.02-1.54,0-3.08-.02-4.61-.05-1.53-.02-3.05-.04-4.57-.08-1.52-.03-3.04-.07-4.54-.11-.87-.02-1.74-.05-2.6-.08-1.13-.03-2.25-.07-3.37-.12h-.03c-2.27-.08-4.53-.18-6.77-.29-9.03-.44-17.79-1.07-26.23-1.87-1.37-.13-2.74-.26-4.09-.4-1.12-.12-2.23-.23-3.33-.35-2.25-.25-4.47-.51-6.67-.78-.66-.08-1.31-.16-1.96-.24-10.58-1.35-20.52-2.98-29.65-4.85-.86-.17-1.7-.35-2.55-.53-4.2-.9-8.21-1.85-12.04-2.84-1.29-.34-2.56-.68-3.8-1.03-.49-.13-.97-.27-1.45-.41-.47-.13-.95-.27-1.42-.41.13,0,.28,0,.45,0,.1,0,.2-.01.3-.01,1.6-.08,4.37-.37,7.67-.79.04,0,.07,0,.12-.02.12-.01.28-.03.47-.06.13-.01.27-.03.4-.05.26-.04.55-.08.88-.12,1.75-.23,3.61-.49,5.48-.77,5.5-.43,10.8-1.44,15.83-2.99.18-.05.35-.1.52-.15.18-.05.36-.11.53-.16.16-.05.31-.09.45-.14,9.34-3.05,17.72-7.89,24.62-14.06,1.25-1.11,2.44-2.27,3.59-3.47l.04-.04c.29-.3.57-.6.85-.91.45-.49.89-.99,1.33-1.49.38-.45.75-.9,1.12-1.35.45-.55.88-1.1,1.31-1.66.42-.56.84-1.13,1.25-1.71.2-.29.4-.57.6-.86.2-.29.39-.59.58-.88.02-.03.04-.06.06-.09.18-.27.35-.55.53-.83.17-.28.34-.55.51-.83.01-.02.03-.05.05-.08.35-.58.69-1.16,1.02-1.75h0c.08-.15.15-.29.23-.43.09-.15.17-.31.26-.47.05-.09.1-.19.15-.29.1-.2.21-.4.31-.6.02-.04.04-.09.07-.14,0-.02.02-.05.03-.07.06-.11.12-.21.17-.32.05-.11.11-.22.16-.33.18-.36.35-.73.52-1.1.04-.08.08-.17.12-.25.12-.26.24-.53.35-.79.08-.18.15-.35.22-.53.12-.26.23-.52.34-.79.17-.41.33-.82.49-1.23.01,0,.01-.03.01-.04.13-.34.26-.68.38-1.02.05-.15.1-.29.15-.44.08-.22.15-.43.23-.65.05-.15.1-.3.15-.45.14-.43.27-.87.4-1.3.13-.45.27-.91.39-1.37.12-.45.24-.91.35-1.37.1-.41.2-.82.29-1.23.1-.45.19-.89.28-1.34.07-.41.15-.82.22-1.23,0-.05.02-.09.02-.13.08-.45.15-.91.21-1.36.05-.36.1-.72.14-1.08.07-.56.13-1.12.18-1.68.08,0,.15,0,.23,0,.18-.01.36-.03.54-.04.06,0,.13-.01.2-.01,1.35-.11,2.72-.21,4.09-.3.45-.02.9-.05,1.35-.09,1.68-.1,3.38-.21,5.08-.3,2.1-.12,4.21-.23,6.34-.33,1.7-.07,3.4-.14,5.11-.21,3.95-.14,7.94-.26,11.98-.33,1.98-.04,3.97-.06,5.96-.08,2.01-.02,4.03-.03,6.06-.03,1.65,0,3.3.01,4.94.02,1.48.01,2.96.03,4.42.04.45.01.89.02,1.33.03,1.35.02,2.69.05,4.03.08.85.01,1.7.04,2.55.06,1.23.03,2.45.07,3.67.11,1.38.04,2.74.09,4.1.14,4.09.16,8.12.35,12.1.59,1.32.08,2.64.16,3.95.25,1.32.08,2.63.17,3.93.27.99.07,1.99.14,2.98.22,1.6.13,3.19.26,4.77.39,1.26.11,2.52.22,3.77.34,1.41.13,2.81.26,4.2.41,1.7.17,3.38.35,5.05.53.82.09,1.64.19,2.45.28.04,0,.11.01.23.03.05.01.1.01.16.02,1.26.14,2.5.3,3.74.45.95.12,1.89.24,2.82.36,1.03.13,7.62,1.06,9.79,1.39,5.5.84,10.78,1.77,15.83,2.77,1.01.2,2,.4,2.99.61,1.79.37,3.55.75,5.27,1.14.88.2,1.75.4,2.61.61.18.04.36.08.54.12,1.63.38,3.23.78,4.8,1.19.01,0,.02.01.03.01.7.18,1.39.36,2.07.54.69.18,1.37.37,2.04.55.48.14.96.27,1.44.4.31.09.62.18.92.27.54.16,1.06.31,1.59.47.17.05.34.1.51.15.47.14.94.28,1.4.43.63.19,1.26.39,1.88.59.61.2,1.23.4,1.83.6s1.2.4,1.79.61c.01,0,.03.01.04.01.12.04.25.08.38.13.03.01.05.02.08.03.67.23,1.32.46,1.97.7.72.26,1.43.52,2.12.79,3.88,1.49,7.39,3.04,10.51,4.66.35.18.69.36,1.03.54.67.36,1.32.72,1.96,1.09.31.18.63.36.93.55.61.37,1.21.74,1.78,1.12.63.41,1.23.82,1.81,1.24.67.49,1.31.98,1.91,1.46.06.06.12.11.18.15.23.2.46.39.69.59.3.26.59.52.87.79.16.15.32.3.47.46,1.78,1.75,3.11,3.54,3.98,5.37Z"/><path class="cls-4" d="M470.52,107.01c-.18-.04-.36-.08-.54-.12-.86-.21-1.73-.41-2.61-.61-1.72-.39-3.48-.77-5.27-1.14-.99-.21-1.98-.41-2.99-.61-5.05-1-10.33-1.93-15.83-2.77-2.17-.33-8.76-1.26-9.79-1.39-.93-.12-1.87-.24-2.82-.36-1.24-.15-2.48-.31-3.74-.45-.06-.01-.11-.01-.16-.02-.12-.02-.19-.03-.23-.03-5.27-1.03-24.12-2.63-22.55-46.12v-9.5c0-4.61-3.61-7.98-9.27-9.59-2.44-.69-5.26-1.06-8.33-1.06l-9.54.6h-.12s-53.14,4.68-53.14,4.68c-6.6,0-12,5.4-12,12v36.79c-.08,0-.17,0-.25.02.17,1.72.25,3.45.25,5.21,0,1.66-.07,3.31-.23,4.94-.05.56-.11,1.12-.18,1.68-.04.36-.09.72-.14,1.08-.06.45-.13.91-.21,1.36,0,.04-.01.08-.02.13-.07.41-.15.82-.22,1.23-.09.45-.18.89-.28,1.34-.09.41-.19.82-.29,1.23-.11.46-.23.92-.35,1.37-.12.46-.26.92-.39,1.37-.13.43-.26.87-.4,1.3-.05.15-.1.3-.15.45-.08.22-.15.43-.23.65-.05.15-.1.29-.15.44-.12.34-.25.68-.38,1.02,0,.01,0,.03-.01.04-.16.41-.32.82-.49,1.23-.11.27-.22.53-.34.79-.07.18-.14.35-.22.53-.11.26-.23.53-.35.79-.04.08-.08.17-.12.25-.17.37-.34.74-.52,1.1-.05.11-.11.22-.16.33-.05.11-.11.21-.17.32-.01.02-.02.05-.03.07-.03.05-.05.1-.07.14-.1.2-.21.4-.31.6-.06.1-.11.2-.16.29-.08.16-.16.32-.25.47-.08.14-.15.28-.23.42h0c-.33.6-.67,1.18-1.02,1.76-.02.03-.04.06-.05.08-.17.28-.34.55-.51.83-.18.28-.35.56-.53.83-.02.03-.04.06-.06.09-.19.29-.38.59-.58.88-.2.29-.4.57-.6.86-.41.58-.83,1.15-1.25,1.71-.43.56-.86,1.11-1.31,1.66-.37.45-.74.9-1.12,1.35-.44.5-.88,1-1.33,1.49-.28.31-.56.61-.85.91l-.04.04c-1.15,1.2-2.34,2.36-3.59,3.47-6.9,6.17-15.28,11.01-24.62,14.06-.14.05-.29.09-.45.14-.17.05-.35.11-.53.16-.17.05-.34.1-.52.15-5.22,1.41-16.57,3.09-21.31,3.76-.33.04-.62.08-.88.12-.14.02-.28.03-.4.05-.19.03-.35.05-.47.06,1.13-.22,2.23-.49,3.31-.8.01,0,.01-.01.02,0,5.76-1.69,10.8-4.6,15.21-8.42.37-.32.73-.64,1.09-.98.37-.33.72-.67,1.07-1.02.21-.19.41-.4.6-.6.23-.23.45-.46.67-.69.3-.31.58-.62.86-.93.25-.27.5-.55.73-.83,2.37-2.72,4.51-5.72,6.45-8.94.28-.45.54-.9.8-1.36.25-.41.49-.84.72-1.26.32-.58.63-1.17.94-1.76.21-.39.41-.79.61-1.19.25-.48.48-.96.71-1.45.23-.47.46-.94.68-1.42.01-.04.03-.08.05-.12.22-.47.43-.94.64-1.42,2.01-4.55,3.73-9.34,5.21-14.24.27-.91.54-1.82.79-2.73.06-.22.12-.43.18-.64.27-.99.54-1.98.79-2.97.01-.01,0-.02,0-.02h.01c.15-.6.3-1.2.45-1.8.17-.72.35-1.45.51-2.17.31-1.33.61-2.65.88-3.98.28-1.33.55-2.65.79-3.97.25-1.32.49-2.64.71-3.95.23-1.31.43-2.61.63-3.91.7-4.54,1.24-8.97,1.66-13.18.06-.6.12-1.2.17-1.79.25-2.53.44-4.98.6-7.32.03-.39.06-.78.08-1.17.11-1.62.19-3.18.27-4.67.05-1,.09-1.96.13-2.89.07-1.87.12-3.61.16-5.21.15-6.76,0-10.9,0-10.9,0-9.62,7.87-17.48,17.48-17.48l109.93-9.65c4.47,0,8.57,1.71,11.66,4.5,3.57,3.2,5.82,7.84,5.82,12.98v29.78c.5,42.36,33.35,53.02,33.93,53.62Z"/><path class="cls-6" d="M305.18,118.32c-.05.1-.1.2-.15.29-.09.16-.17.32-.26.47.09-.15.17-.31.25-.47.05-.09.1-.19.16-.29Z"/><path class="cls-5" d="M491.24,112.96c-.13-.05-.26-.09-.38-.13h.02c.12.04.24.08.36.13Z"/><path class="cls-6" d="M522.73,137.58c0,23.1-73.62,41.83-164.43,41.83s-164.42-18.73-164.42-41.83c0-.29.01-.58.04-.87,0-.05,0-.09.01-.14.02-.26.06-.52.1-.78.05-.3.11-.6.18-.89.08-.3.16-.59.26-.89,1.66,1.6,3.43,3.11,5.28,4.53.43.4.88.79,1.35,1.18.44.36.89.72,1.36,1.07,1.01.76,2.1,1.51,3.27,2.25.26.16.52.33.79.49,1.18.72,2.43,1.43,3.76,2.12.33.18.67.35,1.01.52,1.06.54,2.16,1.07,3.3,1.59.34.15.67.3,1.01.45.76.34,1.53.67,2.32,1,.4.16.8.33,1.2.49,1.21.48,2.46.97,3.75,1.44.85.32,1.73.63,2.62.94.89.31,1.8.62,2.72.92,1.39.45,2.81.9,4.26,1.34.49.15.98.3,1.47.44,0,0,.03,0,.04,0,.47.14.95.28,1.42.41.48.14.96.28,1.45.41,1.24.35,2.51.69,3.8,1.03,3.83.99,7.84,1.94,12.04,2.84.85.18,1.69.36,2.55.53,9.13,1.87,19.07,3.5,29.65,4.85.65.08,1.3.16,1.96.24,2.2.27,4.42.53,6.67.78,1.1.12,2.21.23,3.33.35,1.35.14,2.72.27,4.09.4,8.44.8,17.2,1.43,26.23,1.87,2.24.11,4.5.21,6.77.29h.03c1.12.05,2.24.09,3.37.12.86.03,1.73.06,2.6.08,1.5.04,3.02.08,4.54.11,1.52.04,3.04.06,4.57.08,1.53.03,3.07.04,4.61.05,1.54.01,3.09.02,4.64.02,84.05,0,153.37-16.05,163.23-36.75.79,1.67,1.2,3.36,1.2,5.08Z"/><path class="cls-2" d="M522.73,137.58c0,23.1-73.62,41.83-164.43,41.83s-164.42-18.73-164.42-41.83c0-.29.01-.58.04-.87,0-.05,0-.09.01-.14.02-.26.06-.52.1-.78.05-.3.11-.6.18-.89.08-.3.16-.59.26-.89,1.66,1.6,3.43,3.11,5.28,4.53.43.4.88.79,1.35,1.18.44.36.89.72,1.36,1.07,1.01.76,2.1,1.51,3.27,2.25.26.16.52.33.79.49,1.18.72,2.43,1.43,3.76,2.12.33.18.67.35,1.01.52,1.06.54,2.16,1.07,3.3,1.59.34.15.67.3,1.01.45.76.34,1.53.67,2.32,1,.4.16.8.33,1.2.49,1.21.49,2.46.97,3.75,1.44.86.32,1.73.64,2.62.94.89.31,1.8.62,2.72.92,1.38.46,2.8.91,4.26,1.34.49.15.98.3,1.47.44,0,0,.03,0,.04,0,.47.14.95.28,1.42.41.48.14.96.28,1.45.41,1.24.35,2.51.69,3.8,1.03,3.83.99,7.84,1.94,12.04,2.84.85.18,1.69.36,2.55.53,9.13,1.87,19.07,3.5,29.65,4.85.65.08,1.3.16,1.96.24,2.2.27,4.42.53,6.67.78,1.1.12,2.21.23,3.33.35,1.35.14,2.72.27,4.09.4,8.44.8,17.2,1.43,26.23,1.87,2.24.11,4.5.21,6.77.29h.03c1.12.05,2.24.09,3.37.12.86.03,1.73.06,2.6.08,1.5.04,3.02.08,4.54.11,1.52.04,3.04.06,4.57.08,1.53.03,3.07.04,4.61.05,1.54.01,3.09.02,4.64.02,84.05,0,153.37-16.05,163.23-36.75.79,1.67,1.2,3.36,1.2,5.08Z"/><path class="cls-1" d="M641.41,267.2c2.21,3.49,9.91,4.23,11.58,1.7,2.07-3.14-4.47-12.4-12.26-17.36-5.76-3.67-15.86-7.31-20.42-4.42-6.47,4.08-5.94,23.9,20.05,87.85-57.5,24.34-162.3,40.63-282.06,40.63-149.5,0-275.7-25.38-315.66-60.13,6.22-29.71,19.3-41.55,25.84-46.23,1.27-.9,16.22-11.59,19.4-8.51,2.26,2.19-1.5,11.23-4.42,11.24-1.68,0-2.16-2.96-4.09-3.07-2.95-.17-7.04,6.5-5.44,8.85,1.89,2.8,12.92,1.2,18.72-5.44,6.31-7.23,6.09-20.03,1.02-23.15-4.46-2.75-12,2.41-18.72,6.81-10.26,6.7-24.38,15.41-42.88,25.37,3.35-6.75,9.85-13.24,19.13-19.38l.03-.02,31.74-27.67,110.91-96.69c0,23.1,73.61,41.83,164.42,41.83s164.43-18.73,164.43-41.83l110.91,96.68,31.77,27.7c13.62,9.03,21.28,18.81,21.72,29.04-19.55,2.26-46.53,2.58-54.23-11.2-3.48-6.24-5.2-19.28-1.02-21.79,2.17-1.3,6.46-.11,8.17,2.38,1.64,2.39-.07,4.54,1.36,6.81Z"/><path class="cls-2" d="M426.54,99.51c-.81-.09-1.63-.19-2.45-.28-1.67-.18-3.35-.36-5.05-.53-1.39-.15-2.79-.28-4.2-.41-1.25-.12-2.51-.23-3.77-.34-1.58-.13-3.17-.26-4.77-.39-.99-.08-1.99-.15-2.98-.22-1.3-.1-2.61-.19-3.93-.27-1.31-.09-2.63-.17-3.95-.25-3.98-.24-8.01-.43-12.1-.59-1.36-.05-2.72-.1-4.1-.14-1.22-.04-2.44-.08-3.67-.11-.85-.02-1.7-.05-2.55-.06-1.34-.03-2.68-.06-4.03-.08-.44-.01-.88-.02-1.33-.03-1.46-.01-2.94-.03-4.42-.04-1.64-.01-3.29-.02-4.94-.02-2.03,0-4.05.01-6.06.03-1.99.02-3.98.04-5.96.08-4.04.07-8.03.19-11.98.33-1.71.07-3.41.14-5.11.21-2.13.1-4.24.21-6.34.33-1.7.09-3.4.2-5.08.3-.45.04-.9.07-1.35.09-1.37.09-2.74.19-4.09.3,14.58-1.29,30.01-1.99,45.97-1.99,2.05,0,4.09.01,6.12.04,1.61,0,3.21.05,4.81.08,4.24.07,8.44.2,12.59.38v-53.64c0-3.95-1.69-5.83-5.09-8.44h.12s9.54-.61,9.54-.61c3.07,0,5.89.37,8.33,1.06,5.66,1.61,9.27,4.98,9.27,9.59v9.5c-1.57,43.49,17.28,45.09,22.55,46.12Z"/><path class="cls-2" d="M144.23,309.01c-9,8.93-24.79,8.02-25.53,5.62-.95-3.1,22.65-10.6,21.45-15.83-.63-2.73-7.9-4.25-14.05-3.06-15.36,2.96-23.36,22.75-26.04,29.36-2.95,7.28-4.38,13.86-5.26,19.16-3.66-1.26-7.19-2.55-10.57-3.87-6.68-2.59-12.81-5.28-18.34-8.07-2.77-1.39-5.39-2.81-7.86-4.24,53.83-46.92,81.98-58.52,89.52-52.77,6.87,5.24,6.16,24.31-3.32,33.7Z"/><path class="cls-2" d="M221.85,331.74c-10.78,6.41-27.11,7.36-31.4.51-2.16-3.45-1.59-9.34,1.53-12,5.84-5.01,17.32,4.16,21.7-.26,2.91-2.93,1.67-10.85-2.55-14.3-8.78-7.16-28.56,6.48-29.88,7.41-4.13,2.91-20.38,14.34-19.91,29.61.29,9.49,6.88,15.74,11.62,20.82-10.55-1.86-20.66-3.86-30.26-6.01-9.73-2.17-18.95-4.48-27.6-6.94-3.78-1.06-7.46-2.15-11.02-3.27,8.32-7.85,15.93-14.02,22.02-18.64,24.96-18.9,28.28-14.63,82.73-41.1,3.59-1.75,11.45-5.6,18.64-2.56,7.74,3.28,10.12,12.62,10.46,14.04,3.01,12.53-5.29,26.26-16.08,32.69Z"/><path class="cls-2" d="M454.45,318.97c-2.43,11.07-12.81,19.86-22.47,19.4-7.02-.33-14.16-5.57-13.53-8.42.39-1.79,5.06-.35,10.72-3.32,5.39-2.83,10.34-8.9,8.93-12.26-1.43-3.43-9.36-3.6-14.55-2.55-10.01,2.03-19.19,10.54-22.21,21.19-2.7,9.51.37,17.66,2.55,23.24.82,2.1,4.59,12.22,12.77,20.78-18.55.83-37.64,1.26-57.12,1.26-14.07,0-27.94-.22-41.54-.66,18.31-38.91,80.79-76.47,96.62-85.98.88-.53,3.25-1.93,6.63-2.81,6.18-1.6,15.87-1.48,23.75,4.85,7,5.63,11.61,15.4,9.45,25.28Z"/><path class="cls-2" d="M558.49,361.24c-30.25,5.86-64.62,10.42-101.8,13.34,11.8-25.51,17.69-76.12,49.07-89.31,2.53-1.06,12.07-4.76,22.98-2.05,13.13,3.27,26.82,15.44,25.28,27.07-1.16,8.74-10.7,15.48-13.28,14.04-2.69-1.5,3.42-11.22-1.53-18.64-2.8-4.19-8.4-6.55-13.28-5.87-9.4,1.32-12.98,13.54-13.53,15.57-4.05,15.04,7.9,28.05,8.43,28.6,7.14,7.53,16.23,9.51,26.55,11.75,4.39.95,8.19,3.49,11.11,5.5Z"/><path class="cls-2" d="M567.59,359.41c7.65-16.75.33-69.03.22-95.08-.01-.94.01-2.9,1.27-3.83,4.72-3.46,24.14,9.42,32.17,27.58,4.06,9.17,5.77,20.94,3.07,22.21-2.32,1.08-9.33-4.87-10.73-12-.97-5,1.33-7.92-.76-10.47-2.17-2.65-7.68-3.2-10.47-1.02-5.22,4.08-1.63,18.35,2.81,26.81,7,13.33,23.91,26.07,36.77,31.44-15.82,5.33-34.08,10.15-54.35,14.36Z"/><path class="cls-2" d="M341.08,321.01c-3.19,11.5-12.91,23.11-25.53,24.77-6.16.81-16.05-.36-19.4-6.64-1.22-2.28-2.09-6.18-.26-8.43,2.85-3.49,9.1.84,15.83-2.29,5.61-2.62,9.81-9.62,8.17-13.28-2.04-4.57-13.65-5.01-21.96-1.79-15.4,5.97-20.76,25.06-22.97,32.94-2.58,9.17-3.91,19.33-4.05,28.92-26.54-1.88-51.73-4.59-75.11-8.02,43.22-29.29,72.6-50.61,87.84-64.31,2.63-2.36,12.33-11.24,26.81-13.53,4.79-.76,19.2-3.04,27.31,6.13,7.93,8.95,4.19,22.43,3.32,25.53Z"/><path class="cls-2" d="M121.64,262.42c-10.52,3.19-21.87,14.79-19.53,18.38,3.08,4.73,24.13-8.68,30.89-11.74,3.14-1.42-6.71-8.05-11.36-6.64Z"/><path class="cls-2" d="M165.68,279.57c-2.64,11.32-6.71,17.85-4.94,20.68,2.95,4.7,38.18-8.29,36.94-15.66-.1-.58-.44-1.22-3.4-3.06-8.78-5.46-20.49-6.54-25.36-6.3-1.7.09-2.9,2.89-3.23,4.34Z"/><path class="cls-2" d="M246.13,294.07c.28,11.62-2.03,18.96.4,21.26,4.03,3.81,34.89-17.59,31.84-24.41-.24-.54-.73-1.07-4.06-2.11-9.86-3.09-21.47-1.2-26.13.25-1.63.51-2.08,3.52-2.04,5.01Z"/><path class="cls-2" d="M352.46,295.5c.28,11.62-2.03,18.96.4,21.26,4.03,3.81,34.89-17.59,31.84-24.41-.24-.54-.73-1.07-4.06-2.11-9.86-3.09-21.47-1.2-26.13.25-1.63.51-2.08,3.52-2.04,5.01Z"/><path class="cls-2" d="M456.6,293.77c3.64,11.04,3.56,18.73,6.55,20.23,4.96,2.48,28.28-26.96,23.38-32.6-.39-.45-1.01-.81-4.5-.84-10.34-.09-20.9,5.08-24.93,7.83-1.41.96-.97,3.98-.5,5.39Z"/><path class="cls-2" d="M542.24,276.19c3.13,7.54,3.47,12.93,5.65,13.82,3.61,1.48,18.39-20.36,14.66-24.05-.29-.29-.75-.52-3.2-.35-7.24.48-14.37,4.65-17.05,6.79-.94.75-.47,2.83-.07,3.8Z"/><path class="cls-2" d="M592.3,262.05c3.92,7.16,4.85,12.48,7.1,13.13,3.74,1.08,16.09-22.22,11.98-25.49-.32-.26-.8-.43-3.22,0-7.15,1.26-13.78,6.18-16.22,8.58-.85.84-.16,2.87.34,3.79Z"/><path class="cls-2" d="M92.65,272.31c-5.8,6.64-16.83,8.24-18.72,5.44-1.6-2.35,2.49-9.02,5.44-8.85,1.93.11,2.41,3.07,4.09,3.07,2.92-.01,6.68-9.05,4.42-11.24-3.18-3.08-18.13,7.61-19.4,8.51-6.54,4.68-19.62,16.52-25.84,46.23-8.59-7.46-13.19-15.36-13.19-23.53,0-3.6.89-7.13,2.62-10.6,18.5-9.96,32.62-18.67,42.88-25.37,6.72-4.4,14.26-9.56,18.72-6.81,5.07,3.12,5.29,15.92-1.02,23.15Z"/><path class="cls-2" d="M687.15,291.94c0,15.74-17.08,30.46-46.79,43.03-25.99-63.95-26.52-83.77-20.05-87.85,4.56-2.89,14.66.75,20.42,4.42,7.79,4.96,14.33,14.22,12.26,17.36-1.67,2.53-9.37,1.79-11.58-1.7-1.43-2.27.28-4.42-1.36-6.81-1.71-2.49-6-3.68-8.17-2.38-4.18,2.51-2.46,15.55,1.02,21.79,7.7,13.78,34.68,13.46,54.23,11.2.01.31.02.63.02.94Z"/></g></svg>