<?xml version="1.0" encoding="UTF-8"?><svg id="Layer_2" xmlns="http://www.w3.org/2000/svg" viewBox="0 0 551.86 719.91"><defs><style>.cls-1{fill:#9a6047;}.cls-1,.cls-2,.cls-3,.cls-4,.cls-5,.cls-6{stroke-width:0px;}.cls-2{fill:#c17d56;}.cls-7{fill:#fff;stroke:#1d1d1b;stroke-miterlimit:10;stroke-width:.77px;}.cls-3{fill:#cba28b;}.cls-4{fill:#b8774e;}.cls-5{fill:#a4694a;}.cls-6{fill:#3a140d;}</style></defs><g id="_Слой_1_копия_"><path class="cls-6" d="M197.39,9.11c0,.1-.02.2-.06.3-1.63,4.89-42.71,8.8-93.15,8.8-19.98,0-38.49-.62-53.66-1.66-23.13-1.59-38.5-4.19-39.49-7.14-.04-.1-.06-.2-.06-.3s.02-.19.05-.29c.09-.3.34-.6.74-.9,3.71-2.8,20.4-5.19,43.97-6.6,14.12-.84,30.71-1.32,48.45-1.32,47.35,0,86.45,3.45,92.42,7.92.4.29.65.6.74.9.04.1.05.19.05.29Z"/><path class="cls-4" d="M168.41,175.58c-.04.1-.05.19-.05.29,0,.11.02.21.06.31.01,1.55.04,3.08.06,4.58.24,12.61.92,23.58,2.9,32.99-.98,1.54-1.73,3.13-2.24,4.74-.39,1.26-.64,2.52-.73,3.81-.04.41-.05.8-.05,1.22s.02.87.06,1.28c0,.03,0,.07.01.11,0,.24,0,.47.01.7.01.99.02,1.96.04,2.93.03,1.72.07,3.41.12,5.07.18,5.73.48,11.09.99,16.11h0c.84,8.14,2.24,15.35,4.58,21.66v5.05c-5.98,1.9-9.33,4.03-9.33,6.28,0,.74.37,1.48,1.09,2.2-1.09,2.96-1.09,6.18-1.09,9.54,0,4.18,3.35,8.13,9.33,11.65v224.83C86.33,471.65,25.11,338.34,25.11,183.4c0-13.35.45-26.54,1.35-39.54,17.63,6.67,45.88,10.99,77.72,10.99,34.09,0,64.05-4.95,81.28-12.43-.78,9.29-1.34,18.77-1.65,28.42-7.65,1.13-12.8,2.43-14.67,3.84-.39.3-.64.6-.73.9Z"/><path class="cls-1" d="M348.97,306.1v42.64c-11.35,1.42-20.46,45.4-20.46,99.45s9.11,98.03,20.46,99.45v101.24c0,10.06-39.13,18.21-87.4,18.21s-87.4-8.15-87.4-18.21v-342.78c5.78,3.42,14.03,6.45,24.09,8.89,16.97,4.13,39.1,6.63,63.31,6.63,38.57,0,71.87-6.34,87.4-15.52Z"/><path class="cls-6" d="M33.08,125.86c-1.75-.28-3.43-.58-5.02-.89-10.08-1.94-16.98-4.28-19.52-6.83-.71-.71-1.09-1.45-1.09-2.2,0-2.28,3.48-4.45,9.68-6.39.5-.16,1.02-.31,1.55-.46,2.39,4.99,5.54,9.34,9.67,13.07,1.45,1.31,3.02,2.55,4.73,3.7Z"/><path class="cls-6" d="M200.91,115.94c0,.75-.37,1.49-1.08,2.2-1.89,1.9-6.19,3.68-12.42,5.26-3.47.89-7.54,1.71-12.13,2.46,6.23-4.23,10.71-9.49,13.92-15.8.17-.32.33-.64.48-.97.53.15,1.05.3,1.55.46,6.2,1.94,9.68,4.11,9.68,6.39Z"/><path class="cls-2" d="M197.39,56.75c0,.43-.02.87-.06,1.28,0,.04,0,.08-.01.11-.01,1.23-.03,2.44-.05,3.64-.05,2.73-.12,5.38-.23,7.95-.62,15.97-2.39,29.04-7.36,39.36-.1-.03-.21-.06-.32-.09-.05.35-.11.71-.16,1.06-3.21,6.31-7.69,11.57-13.92,15.8,0,0,0,.01,0,.01-17.67,2.89-42.98,4.7-71.09,4.7s-53.42-1.81-71.09-4.71h0c-1.71-1.15-3.28-2.39-4.73-3.7-4.13-3.73-7.28-8.08-9.67-13.07-5.77-11.99-7.22-27.67-7.59-47.32,0-1.19-.03-2.4-.05-3.63,0-.03-.01-.07-.01-.11-.04-.41-.06-.85-.06-1.28s.02-.81.05-1.22c.09-1.28.34-2.54.74-3.81.5-1.61,1.25-3.19,2.23-4.74-1.98-9.41-2.66-20.38-2.9-32.98-.02-1.51-.05-3.04-.06-4.59.99,2.95,16.36,5.55,39.49,7.14,15.17,1.04,33.68,1.66,53.66,1.66,50.44,0,91.52-3.91,93.15-8.8-.01,1.55-.04,3.08-.06,4.59-.24,12.61-.92,23.59-2.9,33,.98,1.54,1.72,3.11,2.23,4.72.4,1.25.65,2.53.74,3.81.04.41.05.81.05,1.22Z"/><path class="cls-5" d="M200.91,127.68c0,5.43-5.67,10.49-15.45,14.74-17.23,7.48-47.19,12.43-81.28,12.43-31.84,0-60.09-4.32-77.72-10.99-11.94-4.52-19.01-10.12-19.01-16.18,0-3.36,0-6.57,1.09-9.54,2.54,2.55,9.44,4.89,19.52,6.83,1.59.31,3.27.61,5.02.89h0c17.67,2.9,42.98,4.71,71.09,4.71s53.42-1.81,71.09-4.7c0,0,0-.01,0-.01,4.59-.75,8.66-1.57,12.13-2.46,6.23-1.58,10.53-3.36,12.42-5.26,1.08,2.97,1.08,6.18,1.08,9.54Z"/><path class="cls-6" d="M190.45,292.62c-6.57-1.08-12.08-2.3-16.28-3.64-3.99-1.27-6.81-2.64-8.24-4.07-.72-.72-1.09-1.46-1.09-2.2,0-2.25,3.35-4.38,9.33-6.28.12-.04.23-.07.35-.11.5-.16,1.02-.31,1.55-.46,3.23,6.74,7.84,12.31,14.38,16.76Z"/><path class="cls-6" d="M358.3,282.71c0,.74-.37,1.48-1.09,2.2-1.43,1.43-4.25,2.8-8.24,4.07-4.21,1.34-9.72,2.57-16.3,3.64,6.55-4.44,11.16-10.02,14.4-16.76.53.15,1.05.3,1.55.46.12.04.23.07.35.11,5.98,1.9,9.33,4.03,9.33,6.28Z"/><path class="cls-2" d="M354.78,223.52c0,.43-.02.87-.06,1.28,0,.03-.01.07-.01.11,0,.23,0,.47,0,.7-.01.99-.02,1.97-.04,2.94-.03,1.72-.07,3.41-.12,5.06-.18,5.73-.48,11.09-.99,16.11h0c-.84,8.14-2.23,15.35-4.58,21.66-.57,1.55-1.2,3.04-1.9,4.48-3.24,6.74-7.85,12.32-14.4,16.76h-.01c-17.67,2.9-42.98,4.72-71.09,4.72s-50.83-1.64-68.33-4.28c-.95-.14-1.88-.29-2.79-.44-6.54-4.45-11.15-10.02-14.38-16.76-.7-1.44-1.33-2.93-1.9-4.48-2.34-6.31-3.74-13.52-4.58-21.65h0c-.51-5.03-.81-10.39-.99-16.12-.05-1.66-.09-3.35-.12-5.07-.02-.97-.03-1.94-.04-2.93-.01-.23-.01-.46-.01-.7-.01-.04-.01-.08-.01-.11-.04-.41-.06-.85-.06-1.28s.01-.81.05-1.22c.09-1.29.34-2.55.73-3.81.51-1.61,1.26-3.2,2.24-4.74-1.98-9.41-2.66-20.38-2.9-32.99-.02-1.5-.05-3.03-.06-4.58.58,1.72,6.06,3.32,15.14,4.67,16.64,2.49,45.36,4.13,78.01,4.13,50.43,0,91.51-3.92,93.15-8.8-.01,1.55-.04,3.08-.06,4.59-.05,2.74-.13,5.4-.23,7.99-3.18,1.45-4.9,3.01-4.9,4.61,0,.75.37,1.48,1.08,2.2-1.08,2.96-1.08,6.18-1.08,9.54,0,2.2.93,4.33,2.68,6.37-.14.77-.29,1.54-.45,2.29.98,1.53,1.72,3.11,2.23,4.72.4,1.24.65,2.52.74,3.81.04.41.05.8.05,1.22Z"/><ellipse class="cls-3" cx="168" cy="201.33" rx="13.79" ry="8.09"/><ellipse class="cls-3" cx="215.6" cy="210.64" rx="13.79" ry="8.09"/><ellipse class="cls-3" cx="304" cy="210.64" rx="13.79" ry="8.09"/><ellipse class="cls-3" cx="351.6" cy="201.33" rx="13.79" ry="8.09"/><ellipse class="cls-5" cx="168" cy="196.4" rx="13.79" ry="8.09"/><ellipse class="cls-5" cx="215.6" cy="205.71" rx="13.79" ry="8.09"/><ellipse class="cls-5" cx="304" cy="205.71" rx="13.79" ry="8.09"/><ellipse class="cls-5" cx="351.6" cy="196.4" rx="13.79" ry="8.09"/><path class="cls-5" d="M358.3,294.45c0,4.18-3.35,8.13-9.33,11.65-15.53,9.18-48.83,15.52-87.4,15.52-24.21,0-46.34-2.5-63.31-6.63-10.06-2.44-18.31-5.47-24.09-8.89-5.98-3.52-9.33-7.47-9.33-11.65,0-3.36,0-6.58,1.09-9.54,1.43,1.43,4.25,2.8,8.24,4.07,4.2,1.34,9.71,2.56,16.28,3.64.91.15,1.84.3,2.79.44,17.5,2.64,41.65,4.28,68.33,4.28,28.11,0,53.42-1.82,71.09-4.71h.01c6.58-1.08,12.09-2.31,16.3-3.65,3.99-1.27,6.81-2.64,8.24-4.07,1.09,2.96,1.09,6.18,1.09,9.54Z"/><path class="cls-6" d="M354.78,175.87c0,.11-.02.21-.06.31-1.64,4.88-42.72,8.8-93.15,8.8-32.65,0-61.37-1.64-78.01-4.13-9.08-1.35-14.56-2.95-15.14-4.67-.04-.1-.06-.2-.06-.31,0-.1.01-.19.05-.29.09-.3.34-.6.73-.9,1.87-1.41,7.02-2.71,14.67-3.84,16.69-2.46,45.29-4.08,77.76-4.08,47.35,0,86.45,3.45,92.42,7.92.4.3.65.6.74.9.04.1.05.19.05.29Z"/><path class="cls-6" d="M374.2,202.62c-.01.17-.02.34-.02.51-1.14-.19-2.24-.39-3.31-.59-.54-.1-1.06-.2-1.58-.31-.66-.13-1.31-.26-1.95-.4-.41-.08-.81-.17-1.2-.26-.17-.04-.34-.07-.51-.11-.26-.06-.51-.12-.76-.18-.46-.11-.92-.22-1.36-.33-.29-.07-.58-.14-.86-.22-.32-.08-.64-.16-.95-.25-1.03-.28-2.01-.56-2.92-.86-.3-.09-.6-.19-.89-.29-.16-.05-.32-.11-.47-.16-.3-.11-.58-.21-.86-.31-.27-.11-.54-.21-.79-.31-.36-.14-.71-.29-1.04-.43-.28-.13-.55-.25-.81-.38-.36-.17-.7-.35-1.02-.53-.16-.08-.32-.18-.47-.27-.3-.18-.58-.36-.83-.54-.23-.17-.44-.33-.64-.5-.12-.11-.24-.22-.35-.33-.71-.72-1.08-1.45-1.08-2.2,0-1.6,1.72-3.16,4.9-4.61,1.34-.62,2.94-1.21,4.78-1.78.5-.16,1.02-.31,1.55-.46,3.07,6.41,7.39,11.76,13.44,16.1Z"/><path class="cls-6" d="M542.99,193.37c0,.75-.38,1.48-1.09,2.2-.14.14-.3.29-.47.43-.14.11-.29.23-.45.35-.17.12-.35.25-.54.37-.6.39-1.3.77-2.09,1.14-.26.12-.53.24-.81.36-.88.38-1.87.76-2.95,1.12-.57.2-1.17.39-1.79.57-.63.2-1.3.39-1.98.57-.63.18-1.29.35-1.97.52-.44.1-.88.21-1.34.32-.38.08-.76.17-1.15.26-1.17.26-2.38.51-3.65.76-1.69.33-3.48.65-5.36.95,4.21-2.85,7.61-6.17,10.36-9.96h0c1.55-2.12,2.89-4.39,4.04-6.81.54.15,1.06.3,1.56.46,6.2,1.93,9.68,4.11,9.68,6.39Z"/><path class="cls-2" d="M539.47,134.18c0,.43-.02.87-.06,1.28,0,.04-.01.08-.01.11-.02,1.23-.04,2.44-.06,3.64-.37,19.65-1.82,35.33-7.59,47.31-1.15,2.42-2.49,4.69-4.04,6.8h0c-2.75,3.8-6.15,7.12-10.36,9.97h-.01c-1.1.18-2.23.36-3.39.53-.9.13-1.81.26-2.74.39-1.04.15-2.1.29-3.19.42-.55.07-1.11.14-1.67.2-1.64.2-3.32.39-5.04.57-.58.06-1.16.12-1.75.18-1.18.12-2.37.23-3.58.34-6.66.61-13.84,1.09-21.42,1.44-.45.02-.9.04-1.36.07-.93.04-1.86.07-2.81.11-.7.03-1.4.05-2.11.08-.78.03-1.56.05-2.35.08-1.17.03-2.35.07-3.53.09-1.63.05-3.28.08-4.94.11-.55.01-1.11.02-1.66.03-.92,0-1.85.03-2.78.03-.74.01-1.49.02-2.24.02-1.5.01-3,.02-4.52.02s-3.02,0-4.52-.02c-.75,0-1.5-.01-2.24-.02-.93,0-1.86-.02-2.78-.03-.55-.01-1.11-.02-1.66-.03-1.66-.03-3.31-.06-4.94-.11-1.2-.02-2.39-.06-3.58-.1-.77-.02-1.54-.04-2.3-.07-.71-.03-1.41-.05-2.11-.08-.94-.03-1.86-.07-2.77-.11-1.11-.05-2.21-.1-3.3-.16-4.84-.24-9.5-.53-13.96-.88-1.26-.1-2.5-.2-3.73-.31-.62-.05-1.23-.1-1.83-.16-1.21-.11-2.41-.22-3.58-.34-.59-.06-1.17-.12-1.75-.18-1.67-.18-3.29-.36-4.88-.55-.79-.09-1.57-.18-2.34-.28-.91-.12-1.8-.24-2.69-.36-.93-.13-1.84-.26-2.74-.39-1.16-.17-2.29-.35-3.39-.53h-.01c-.33-.21-.65-.44-.96-.67-6.05-4.34-10.37-9.69-13.44-16.1-5.78-11.99-7.23-27.67-7.59-47.32-.02-1.2-.04-2.4-.05-3.63-.01-.03-.01-.07-.01-.11-.04-.41-.06-.85-.06-1.28s.01-.81.05-1.22c.09-1.28.34-2.54.73-3.81.51-1.61,1.26-3.2,2.24-4.74-1.98-9.41-2.66-20.38-2.9-32.99-.03-1.5-.05-3.03-.06-4.58.02.05.04.1.06.15.03.05.05.09.08.13t.01,0c.06.09.13.19.22.28.11.11.24.22.39.33.1.08.21.15.33.22h0c.11.08.24.15.37.22.13.07.26.14.4.2.32.15.68.3,1.07.45.19.07.38.14.59.22,1.06.35,2.33.7,3.8,1.04.26.06.54.12.82.18.3.06.6.13.91.19.2.04.41.08.61.12.83.16,1.71.32,2.63.48.25.04.51.09.76.13.45.07.91.14,1.38.22.07.01.14.02.22.03.32.05.65.1.98.15,1.9.27,3.96.54,6.16.8.88.1,1.78.2,2.7.3,2.21.23,4.54.46,6.99.67.54.05,1.1.09,1.66.14.7.06,1.42.12,2.14.17.83.07,1.67.13,2.52.19.95.07,1.91.14,2.89.2,1.01.07,2.04.14,3.09.2,1.24.07,2.51.15,3.79.22.65.03,1.29.07,1.94.1.65.04,1.31.07,1.97.1,1.68.08,3.39.16,5.12.23.33.02.65.03.98.04,1.24.05,2.5.1,3.77.15.82.03,1.64.05,2.46.08,1.42.05,2.85.09,4.3.13.16,0,.33.01.49.01,1.12.03,2.24.06,3.38.09,6.8.15,13.88.23,21.16.23.95,0,1.89,0,2.83-.01.94,0,1.87,0,2.81,0,1.24,0,2.48-.01,3.7-.03.77,0,1.53-.01,2.3-.02.77-.01,1.53-.02,2.28-.03,1.52-.02,3.01-.05,4.5-.08.94-.02,1.87-.04,2.79-.06,1.14-.02,2.28-.05,3.4-.08,1.59-.04,3.16-.09,4.71-.14.71-.02,1.42-.05,2.12-.07,1.98-.07,3.92-.15,5.83-.23,1.46-.06,2.9-.13,4.32-.2,3.34-.16,6.57-.34,9.66-.54,1.21-.07,2.39-.15,3.56-.24.6-.04,1.18-.09,1.76-.13.58-.04,1.16-.09,1.73-.13,1.14-.09,2.26-.18,3.35-.28.55-.04,1.09-.09,1.63-.14.54-.05,1.07-.1,1.59-.15.53-.05,1.05-.1,1.56-.15,1.02-.1,2.02-.21,3-.31,1.68-.18,3.28-.37,4.8-.57.13-.02.25-.03.37-.05.13-.01.25-.03.37-.05,2.19-.29,4.21-.59,6.04-.9.35-.06.7-.12,1.04-.19,1.4-.25,2.68-.51,3.83-.78.28-.06.55-.12.81-.19.78-.19,1.5-.39,2.15-.59.33-.1.65-.21.95-.31.58-.2,1.08-.4,1.51-.61.29-.13.54-.27.76-.41.12-.07.23-.14.33-.22.1-.07.19-.15.27-.22.08-.08.16-.15.22-.23.06-.06.11-.13.15-.2.05-.08.09-.17.12-.25-.01,1.55-.04,3.08-.07,4.59-.23,12.61-.91,23.58-2.89,33,.97,1.53,1.72,3.11,2.23,4.72.39,1.25.64,2.53.73,3.81.04.41.06.8.06,1.22Z"/><path class="cls-5" d="M542.99,205.11c0,5.6-6.03,10.81-16.37,15.13-17.36,7.26-46.87,12.04-80.36,12.04-29.07,0-55.15-3.6-72.88-9.31-10.09-3.24-17.48-7.16-21.17-11.49-1.75-2.04-2.68-4.17-2.68-6.37,0-3.36,0-6.58,1.08-9.54.11.11.23.22.35.33.2.17.41.33.64.5.25.18.53.36.83.54.15.09.31.19.47.27.32.18.66.36,1.02.53.26.13.53.25.81.38.33.14.68.29,1.04.43.25.11.52.21.79.31.28.1.56.21.86.31.15.05.31.11.47.16.29.1.59.2.89.29.91.3,1.89.58,2.92.86.31.09.63.17.95.25.28.08.57.15.86.22.44.11.9.22,1.36.33.25.06.5.12.76.18.17.04.34.07.51.11.39.09.79.18,1.2.26.64.14,1.29.27,1.95.4.52.11,1.04.21,1.58.31,1.07.2,2.17.4,3.31.59.32.05.65.11.98.16h.01c1.1.18,2.23.36,3.39.53.9.13,1.81.26,2.74.39.89.12,1.78.24,2.69.36.77.1,1.55.19,2.34.28,1.59.2,3.21.38,4.88.55.58.06,1.16.12,1.75.18,1.17.12,2.37.23,3.58.34.6.06,1.21.11,1.83.16,1.23.11,2.47.21,3.73.31,4.46.35,9.12.64,13.96.88,1.09.06,2.19.11,3.3.16.91.04,1.83.08,2.77.11.7.03,1.4.05,2.11.08.76.03,1.53.05,2.3.07,1.19.04,2.38.08,3.58.1,1.63.05,3.28.08,4.94.11.55.01,1.11.02,1.66.03.92,0,1.85.03,2.78.03.74.01,1.49.02,2.24.02,1.5.01,3,.02,4.52.02s3.02,0,4.52-.02c.75,0,1.5-.01,2.24-.02.93,0,1.86-.02,2.78-.03.55-.01,1.11-.02,1.66-.03,1.66-.03,3.31-.06,4.94-.11,1.18-.02,2.36-.06,3.53-.09.79-.03,1.57-.05,2.35-.08.71-.03,1.41-.05,2.11-.08.95-.04,1.88-.07,2.81-.11.46-.03.91-.05,1.36-.07,7.58-.35,14.76-.83,21.42-1.44,1.21-.11,2.4-.22,3.58-.34.59-.06,1.17-.12,1.75-.18,1.72-.18,3.4-.37,5.04-.57.56-.06,1.12-.13,1.67-.2,1.09-.13,2.15-.27,3.19-.42.93-.13,1.84-.26,2.74-.39,1.16-.17,2.29-.35,3.39-.53h.01c1.88-.3,3.67-.62,5.36-.95,1.27-.25,2.48-.5,3.65-.76.39-.09.77-.18,1.15-.26.46-.11.9-.22,1.34-.32.68-.17,1.34-.34,1.97-.52.68-.18,1.35-.37,1.98-.57.62-.18,1.22-.37,1.79-.57,1.08-.36,2.07-.74,2.95-1.12.28-.12.55-.24.81-.36.79-.37,1.49-.75,2.09-1.14.19-.12.37-.25.54-.37.16-.12.31-.24.45-.35.17-.14.33-.29.47-.43,1.09,2.96,1.09,6.18,1.09,9.54Z"/><path class="cls-6" d="M539.47,86.53c0,.11-.02.21-.06.31-.03.08-.07.17-.12.25-.04.07-.09.14-.15.2-.06.08-.14.15-.22.23-.08.07-.17.15-.27.22-.1.08-.21.15-.33.22-.22.14-.47.28-.76.41-.43.21-.93.41-1.51.61-.3.1-.62.21-.95.31-.65.2-1.37.4-2.15.59-.26.07-.53.13-.81.19-1.15.27-2.43.53-3.83.78-.34.07-.69.13-1.04.19-1.83.31-3.85.61-6.04.9-.12.02-.24.04-.37.05-.12,0-.24.03-.37.04h0c-1.52.21-3.12.4-4.8.58-.98.1-1.98.21-3,.31-.51.05-1.03.1-1.56.15-.52.05-1.05.1-1.59.15-.54.05-1.08.1-1.63.14-1.09.1-2.21.19-3.35.28-.57.04-1.15.09-1.73.13-.58.04-1.16.09-1.76.13-1.17.09-2.35.17-3.56.24-3.09.2-6.32.38-9.66.54-1.42.07-2.86.14-4.32.2-1.91.08-3.85.16-5.83.23-.7.02-1.41.05-2.12.07-1.55.05-3.12.1-4.71.14-1.12.03-2.26.06-3.4.08-.92.02-1.85.04-2.79.06-1.49.03-2.98.06-4.5.08-.75.01-1.51.02-2.28.03-.77.01-1.53.02-2.3.02-1.22.02-2.46.03-3.7.03-.94,0-1.87,0-2.81,0-.94.01-1.88.01-2.83.01-7.28,0-14.36-.08-21.16-.23-1.14-.03-2.26-.06-3.38-.09-.16,0-.33-.01-.49-.01-1.45-.04-2.88-.08-4.3-.13-.82-.03-1.64-.05-2.46-.08-1.27-.05-2.53-.1-3.77-.15-.33-.01-.65-.02-.98-.04-1.73-.07-3.44-.15-5.12-.23-.66-.03-1.32-.06-1.97-.1-.65-.03-1.29-.07-1.94-.1-1.28-.07-2.55-.15-3.79-.22-1.05-.06-2.08-.13-3.09-.2-.98-.06-1.94-.13-2.89-.2-.85-.06-1.69-.12-2.52-.19-.72-.05-1.44-.11-2.14-.17-.56-.05-1.12-.09-1.66-.14-2.45-.21-4.78-.44-6.99-.67-.92-.1-1.82-.2-2.7-.3-2.2-.26-4.26-.53-6.16-.8-.33-.05-.66-.1-.98-.15-.08,0-.15-.02-.22-.03-.47-.08-.93-.15-1.38-.22-.25-.04-.51-.09-.76-.13-.92-.16-1.8-.32-2.63-.48-.2-.04-.41-.08-.61-.12-.31-.06-.61-.13-.91-.19-.28-.06-.56-.12-.82-.18-1.47-.34-2.74-.69-3.8-1.04-.21-.08-.4-.15-.59-.22-.39-.15-.75-.3-1.07-.45-.14-.06-.27-.13-.4-.2-.13-.07-.26-.14-.37-.21h0c-.12-.08-.23-.15-.33-.23-.15-.11-.28-.22-.39-.33-.09-.09-.16-.19-.22-.28t-.01,0s-.05-.08-.08-.13c-.02-.05-.04-.1-.06-.15-.04-.1-.06-.2-.06-.31,0-.09.01-.19.05-.28.09-.31.34-.61.73-.9,1.44-1.09,4.83-2.11,9.81-3.04,15.58-2.91,46.74-4.89,82.62-4.89,29.15,0,55.18,1.31,72.27,3.36,10.67,1.28,17.85,2.85,20.15,4.57.39.29.64.59.73.9.04.09.06.19.06.28Z"/><path class="cls-5" d="M451.28,667.09c0,29.17-84.93,52.82-189.71,52.82s-189.71-23.65-189.71-52.82c0-3.11.97-6.16,2.83-9.12,8.11,27.08,89.65,48.36,189.04,48.36,93.61,0,171.36-18.87,186.88-43.69.45,1.47.67,2.96.67,4.45Z"/><path class="cls-4" d="M450.61,662.64c-15.52,24.82-93.27,43.69-186.88,43.69-99.39,0-180.93-21.28-189.04-48.36,10.29-16.47,47.96-30.31,99.48-37.76v28.67c0,10.06,39.12,18.21,87.4,18.21s87.4-8.15,87.4-18.21v-28.67c56.33,8.15,96.11,23.93,101.64,42.43Z"/><path class="cls-4" d="M526.62,220.24c-9.69,152.71-79.06,279.03-172.4,324.94-1.72.85-3.45,1.67-5.19,2.46h-.06c-11.35-1.42-20.46-45.4-20.46-99.45s9.11-98.03,20.46-99.45v-.03c12.86-34.07,21.64-77.55,24.41-125.74,17.73,5.71,43.81,9.31,72.88,9.31,33.49,0,63-4.78,80.36-12.04Z"/><ellipse class="cls-3" cx="13.79" cy="31.23" rx="13.79" ry="8.09"/><ellipse class="cls-3" cx="61.39" cy="40.55" rx="13.79" ry="8.09"/><ellipse class="cls-3" cx="149.79" cy="40.55" rx="13.79" ry="8.09"/><ellipse class="cls-3" cx="197.39" cy="31.23" rx="13.79" ry="8.09"/><ellipse class="cls-3" cx="354.46" cy="108.25" rx="13.79" ry="8.09"/><ellipse class="cls-3" cx="402.06" cy="117.56" rx="13.79" ry="8.09"/><ellipse class="cls-3" cx="490.47" cy="117.56" rx="13.79" ry="8.09"/><ellipse class="cls-3" cx="538.07" cy="108.25" rx="13.79" ry="8.09"/><path class="cls-7" d="M354.22,545.18c-1.5,1.63-3.07,2.49-4.69,2.49-.17,0-.34-.01-.5-.03,1.74-.79,3.47-1.61,5.19-2.46Z"/><ellipse class="cls-5" cx="13.79" cy="26.3" rx="13.79" ry="8.09"/><ellipse class="cls-5" cx="61.39" cy="35.61" rx="13.79" ry="8.09"/><ellipse class="cls-5" cx="149.79" cy="35.61" rx="13.79" ry="8.09"/><ellipse class="cls-5" cx="197.39" cy="26.3" rx="13.79" ry="8.09"/><ellipse class="cls-5" cx="354.46" cy="103.31" rx="13.79" ry="8.09"/><ellipse class="cls-5" cx="402.06" cy="112.63" rx="13.79" ry="8.09"/><ellipse class="cls-5" cx="490.47" cy="112.63" rx="13.79" ry="8.09"/><ellipse class="cls-5" cx="538.07" cy="103.31" rx="13.79" ry="8.09"/></g></svg>