<?xml version="1.0" encoding="UTF-8"?><svg id="Layer_2" xmlns="http://www.w3.org/2000/svg" viewBox="0 0 619.9 683.73"><defs><style>.cls-1{fill:#d58b5a;}.cls-1,.cls-2,.cls-3{stroke-width:0px;}.cls-2{fill:#8e2613;}.cls-3{fill:#bd5c1e;}</style></defs><g id="_Слой_2_копия_"><path class="cls-3" d="M619.9,544.3v25.66c0,15.38-3.31,29.99-9.27,43.14-13.02,28.82-38.71,50.69-69.97,58.52-.08.02-.15.04-.23.05-3.48.72-7.04,1.41-10.69,2.07h0s-.09.01-.13.02c-.01.01-.03.01-.04.01-34.66,6.28-76.95,9.96-122.59,9.96s-87.94-3.68-122.6-9.96h-.03c-3.7-.67-7.32-1.37-10.84-2.1-.08,0-.15-.03-.23-.05-.02,0-.03-.01-.05-.01-31.23-7.84-56.9-29.7-69.92-58.51-5.96-13.15-9.27-27.76-9.27-43.14v-9.69c3.3.26,6.63.46,9.97.6,12.7,10.25,36.87,19.2,68.65,25.83,36.64,7.65,83.39,12.24,134.32,12.24s97.67-4.59,134.31-12.24c47.98-10.02,78.62-25.29,78.62-42.4Z"/><path class="cls-1" d="M334.43,247.38c-.04.07-.12.12-.19.19.04-.06.09-.13.15-.21.01.01.03.01.04.02Z"/><path class="cls-3" d="M530.47,558.68c0,.12,0,.25-.01.37-.35,7.98-12.18,15.25-31.45,20.77h-.02c-22.61,6.48-55.46,10.55-92.02,10.55s-69.41-4.07-92.02-10.55h-.02c-19.57-5.61-31.47-13.01-31.47-21.14,0-.16,0-.33.02-.49.13-2.26,1.19-4.47,3.08-6.6,2.28-2.56,5.78-5,10.32-7.29h.64c.13-.16.26-.33.38-.5,1.87-2.49,3.63-5.16,5.27-7.99,2.65-4.59,4.76-9.26,6.32-13.86,2.06-5.99,3.2-11.86,3.43-17.29,1.21.67,2.51,1.33,3.88,1.96-.16.79-.25,1.58-.25,2.38,0,9.56,12.08,18.13,31.18,23.94,8.48,2.58,18.35,4.62,29.17,5.95,9.4,1.17,19.52,1.8,30.07,1.8,1.78,0,3.56-.02,5.32-.05,20.57-.42,39.3-3.25,53.91-7.7,19.11-5.81,31.19-14.38,31.19-23.94,0-.8-.09-1.59-.25-2.37,1.36-.64,2.64-1.28,3.85-1.95.25,9.79,3.5,21.11,9.77,31.97,1.35,2.34,2.79,4.58,4.31,6.69h0c.68.32,1.35.64,1.99.96,8.58,4.32,13.41,9.2,13.41,14.38Z"/><path class="cls-3" d="M497.39,509c0,9.56-12.08,18.13-31.19,23.94-14.61,4.45-33.34,7.28-53.91,7.7-1.76.03-3.54.05-5.32.05-10.55,0-20.67-.63-30.07-1.8-10.82-1.33-20.69-3.37-29.17-5.95-19.1-5.81-31.18-14.38-31.18-23.94,0-.8.09-1.59.25-2.38,1.02.48,2.09.95,3.19,1.41h.01c2.89,1.21,6.06,2.35,9.47,3.43,8.36,2.61,18.21,4.81,29.15,6.46,14.52,2.19,30.95,3.43,48.35,3.43,35.87,0,67.6-5.25,86.96-13.3,1.11-.47,2.18-.94,3.21-1.42.16.78.25,1.57.25,2.37Z"/><path class="cls-3" d="M366.13,281.91c-.98-.32-1.95-.65-2.9-.98-10.38-3.55-19.13-6.77-22.06-8.1-.09-.05-.18-.08-.27-.13-19.25-9.23-40.91-15.95-64.13-19.56-12.69-1.97-25.86-3.01-39.35-3.01-104.91,0-189.95,62.64-189.95,139.91,0,72.03,73.9,131.35,168.9,139.07-.27,1.04-.41,2.09-.41,3.15,0,5.33,3.49,10.46,9.97,15.28-3.34-.13-6.67-.31-9.97-.55-108.94-7.88-194.03-75.14-194.03-156.94,0-87.11,96.48-157.72,215.49-157.72,15.95,0,31.5,1.27,46.46,3.68,10.18,1.63,20.09,3.8,29.67,6.45,15.1,4.19,29.5,9.59,42.77,16.02-.06.07-2.5,5.03-2.5,7.4,0,5.32,3.66,10.32,10.05,14.61.72.48,1.47.96,2.26,1.42Z"/><path class="cls-3" d="M500.96,479.08c0,4.12-2.33,8.06-6.59,11.67-.91.77-1.91,1.53-2.99,2.28-.23.16-.47.32-.71.48-.23.15-.46.3-.7.46-15.8,9.99-47.04,16.8-83,16.8-12.7,0-24.81-.85-35.87-2.4-.65-.08-1.3-.17-1.94-.27-9.59-1.42-18.35-3.37-25.94-5.74-.94-.29-1.86-.58-2.76-.89-6.53-2.2-12.11-4.73-16.49-7.5-.24-.16-.48-.31-.71-.46-.24-.16-.48-.32-.71-.48-1.08-.75-2.08-1.51-2.99-2.28-4.26-3.61-6.59-7.55-6.59-11.67,0-1.33.24-2.65.72-3.94.15-.39.31-.78.5-1.16.56-1.17,1.32-2.33,2.25-3.45,2.47-2.98,6.2-5.78,10.98-8.33,18.45-24.5,31.02-73.15,31.02-129.17,0-7.48-.22-14.83-.66-22.01,7.04,2.58,15.24,4.62,24.22,5.95,7.81,1.17,16.21,1.8,24.97,1.8,1.48,0,2.96-.02,4.42-.05,17.08-.42,32.63-3.25,44.76-7.7-.44,7.18-.66,14.53-.66,22.01,0,56.02,12.58,104.68,31.03,129.17,4.78,2.55,8.5,5.35,10.97,8.33.93,1.12,1.69,2.28,2.25,3.45.19.38.36.78.5,1.17.48,1.29.72,2.6.72,3.93Z"/><path class="cls-1" d="M482.05,287.08c0,9.56-10.03,18.13-25.9,23.94-12.13,4.45-27.68,7.28-44.76,7.7-1.46.03-2.94.05-4.42.05-8.76,0-17.16-.63-24.97-1.8-8.98-1.33-17.18-3.37-24.22-5.95-15.86-5.81-25.89-14.38-25.89-23.94,0-1.47.24-2.92.7-4.34,6.17,3.45,14.15,6.43,23.46,8.79,1.69.43,3.42.84,5.2,1.22,10.49,2.28,22.41,3.8,35.16,4.35,3.46.14,6.99.22,10.56.22,18.96,0,36.52-2.14,50.91-5.79,9.32-2.36,17.3-5.35,23.47-8.79.46,1.42.7,2.87.7,4.34Z"/><path class="cls-1" d="M497.39,509c0,9.56-12.08,18.13-31.19,23.94-14.61,4.45-33.34,7.28-53.91,7.7-1.76.03-3.54.05-5.32.05-10.55,0-20.67-.63-30.07-1.8-10.82-1.33-20.69-3.37-29.17-5.95-19.1-5.81-31.18-14.38-31.18-23.94,0-.8.09-1.59.25-2.38.14-.66.34-1.31.59-1.96,7.43,3.45,17.04,6.43,28.26,8.79,2.03.43,4.12.84,6.26,1.22,12.63,2.28,26.99,3.8,42.34,4.35,4.17.14,8.42.22,12.72.22,22.83,0,43.98-2.14,61.31-5.79,11.23-2.36,20.84-5.35,28.27-8.79.25.65.45,1.31.59,1.97.16.78.25,1.57.25,2.37Z"/><path class="cls-2" d="M495.32,265.63c0,6.3-5.13,12.17-13.97,17.11-6.17,3.44-14.15,6.43-23.47,8.79-14.39,3.65-31.95,5.79-50.91,5.79-3.57,0-7.1-.08-10.56-.22-12.75-.55-24.67-2.07-35.16-4.35-1.78-.38-3.51-.79-5.2-1.22-9.31-2.36-17.29-5.34-23.46-8.79-8.85-4.93-13.98-10.81-13.98-17.11,0-.96.12-1.9.36-2.84.09.05.18.09.27.14,2.93,1.45,11.68,4.94,22.06,8.79.95.35,1.92.71,2.9,1.06,2.89,1.86,6.22,3.57,9.95,5.13,8.73,3.65,19.56,6.4,31.66,7.89.2.03.4.06.6.08,6.54.78,13.43,1.2,20.56,1.2,20.59,0,39.25-3.5,52.82-9.17,4.73-1.98,8.85-4.22,12.21-6.67,6.39-4.66,10.05-10.08,10.05-15.85,0-2.58-.73-5.08-2.1-7.48h-.01c-.04-.08-.08-.14-.12-.21,3.95,2.06,7.24,4.3,9.76,6.68,3.71,3.49,5.74,7.28,5.74,11.25Z"/><path class="cls-3" d="M482.05,255.39c0,5.77-3.66,11.19-10.05,15.85-3.36,2.45-7.48,4.69-12.21,6.67-13.57,5.67-32.23,9.17-52.82,9.17-7.13,0-14.02-.42-20.56-1.2-.2-.02-.4-.05-.6-.08-12.1-1.49-22.93-4.24-31.66-7.89-3.73-1.56-7.06-3.27-9.95-5.13-.79-.5-1.54-1.02-2.26-1.54-6.39-4.66-10.05-10.08-10.05-15.85,0-2.58.73-5.09,2.11-7.49h.01c.1-.1.18-.18.26-.28-.03.01-.07.03-.1.04.02-.03.04-.06.07-.09.04-.06.09-.13.15-.21.87-1.16,2.97-3.94,4.39-5.25,0,0,0,0,.01,0,1.57-2.22,3.07-4.69,4.49-7.38,8.39-15.86,14.28-39.62,15.91-66.88.28-4.57.43-9.24.46-13.98,12.67,4.12,28.56,6.58,45.8,6.58,18.65,0,35.69-2.87,48.82-7.62.01,4.48.13,8.89.36,13.21,1.47,28.01,7.44,52.47,16.02,68.69,1.42,2.69,2.92,5.15,4.48,7.37.01,0,.01.01.01.01,1.96,1.78,3.54,3.65,4.68,5.6.04.07.08.13.12.2h.01c1.37,2.41,2.1,4.91,2.1,7.49Z"/><path class="cls-1" d="M467.4,146.77c0,9.56-8.28,18.13-21.37,23.94-10.01,4.45-22.84,7.28-36.93,7.7-1.2.03-2.43.05-3.65.05-7.23,0-14.16-.63-20.6-1.8-7.41-1.33-14.18-3.37-19.98-5.95-13.09-5.81-21.36-14.38-21.36-23.94,0-1.47.2-2.92.58-4.34,5.09,3.45,11.68,6.43,19.36,8.79,1.39.43,2.82.84,4.29,1.22,8.66,2.28,18.49,3.8,29.01,4.35,2.85.14,5.77.22,8.71.22,15.64,0,30.13-2.14,42.01-5.79,7.69-2.36,14.27-5.35,19.37-8.79.38,1.42.58,2.87.58,4.34Z"/><path class="cls-2" d="M480.53,128.75c0,9.63-10.18,18.26-26.26,24.07-13.13,4.75-30.17,7.62-48.82,7.62-17.24,0-33.13-2.46-45.8-6.58-17.81-5.79-29.28-14.89-29.28-25.11,0-2.76.84-5.44,2.41-7.99,6.78,7.34,15.46,13.8,26.55,18.58,12.54,5.42,28.17,8.69,47.64,8.69s35.09-3.27,47.63-8.68c10.06-4.34,18.13-10.05,24.61-16.55.87,1.93,1.32,3.92,1.32,5.95Z"/><path class="cls-3" d="M505.54,43.88c0,2.2,0,5.15-.13,8.66-.62,17.33-4.31,48.3-26.2,70.26-6.48,6.5-14.55,12.21-24.61,16.55-12.54,5.41-28.16,8.68-47.63,8.68s-35.1-3.27-47.64-8.69c-11.09-4.78-19.77-11.24-26.55-18.58-20.17-21.81-23.65-51.43-24.25-68.23-.13-3.5-.13-6.45-.13-8.65s.53-4.42,1.56-6.54c8.27,14.81,48.56,26.05,97.01,26.05s88.74-11.24,97.01-26.05c1.03,2.12,1.56,4.31,1.56,6.54Z"/><path class="cls-1" d="M503.98,37.34c-8.27,14.81-48.57,26.05-97.01,26.05s-88.74-11.24-97.01-26.05c8.26-17.18,48.55-30.22,97.01-30.22s88.74,13.04,97.01,30.22Z"/><path class="cls-2" d="M505.54,31.7c0,1.92-.53,3.81-1.56,5.64-8.27-17.18-48.56-30.22-97.01-30.22s-88.75,13.04-97.01,30.22c-1.03-1.83-1.56-3.72-1.56-5.64,0-17.51,44.13-31.7,98.57-31.7s98.57,14.19,98.57,31.7Z"/><path class="cls-1" d="M344.2,272.78c-.98-.35-1.95-.71-2.9-1.06-10.38-3.85-19.13-7.34-22.06-8.79-.09-.05-.18-.09-.27-.14-19.25-10.01-40.91-17.3-64.13-21.21-12.69-2.14-25.86-3.26-39.35-3.26-104.91,0-189.95,67.93-189.95,151.74,0,78.12,73.9,142.45,168.9,150.82-.27,1.13-.41,2.27-.41,3.42,0,5.78,3.49,11.34,9.97,16.57-3.34-.14-6.67-.34-9.97-.6C85.09,551.72,0,478.78,0,390.06c0-94.47,96.48-171.05,215.49-171.05,15.95,0,31.5,1.38,46.46,3.99,10.18,1.77,20.09,4.12,29.67,6.99,15.1,4.54,29.5,10.4,42.77,17.37-.06.08-2.5,5.45-2.5,8.03,0,5.77,3.66,11.19,10.05,15.85.72.52,1.47,1.04,2.26,1.54Z"/><path class="cls-2" d="M619.9,544.3c0,17.11-30.64,32.38-78.62,42.4-36.64,7.65-83.38,12.24-134.31,12.24s-97.68-4.59-134.32-12.24c-31.78-6.63-55.95-15.58-68.65-25.83-6.48-5.23-9.97-10.79-9.97-16.57,0-1.15.14-2.29.41-3.42,3.21-13.32,25.03-25.35,58.88-34.4,14.48-3.87,31.15-7.19,49.51-9.84,2.14,2.84,5.57,5.53,10.09,8.02-.23,5.43-1.37,11.3-3.43,17.29-1.56,4.6-3.67,9.27-6.32,13.86-1.64,2.83-3.4,5.5-5.27,7.99-.35.17-.69.34-1.02.5-4.54,2.29-8.04,4.73-10.32,7.29-1.89,2.13-2.95,4.34-3.08,6.6-.02.16-.02.33-.02.49,0,8.13,11.9,15.53,31.47,21.14h.02c22.61,6.48,55.46,10.55,92.02,10.55s69.41-4.07,92.02-10.55h.02c19.27-5.52,31.1-12.79,31.45-20.77.01-.12.01-.25.01-.37,0-5.18-4.83-10.06-13.41-14.38-.64-.32-1.31-.64-1.99-.95h0c-1.52-2.12-2.96-4.36-4.31-6.7-6.27-10.86-9.52-22.18-9.77-31.97,4.54-2.49,7.97-5.19,10.12-8.04,18.1,2.61,34.57,5.88,48.9,9.67,37.08,9.83,59.89,23.23,59.89,37.99Z"/><path class="cls-2" d="M513.71,489.66c0,2.4-.9,4.74-2.6,6.98-2.15,2.85-5.58,5.55-10.12,8.04-1.21.67-2.49,1.31-3.85,1.95-1.03.48-2.1.95-3.21,1.42-19.36,8.05-51.09,13.3-86.96,13.3-17.4,0-33.83-1.24-48.35-3.43-10.94-1.65-20.79-3.85-29.15-6.46-3.41-1.08-6.58-2.22-9.47-3.42h-.01c-1.1-.47-2.17-.94-3.19-1.42-1.37-.63-2.67-1.29-3.88-1.96-4.52-2.49-7.95-5.18-10.09-8.02-1.7-2.24-2.6-4.58-2.6-6.98,0-3.07,1.47-6.03,4.22-8.84,1-1.03,2.17-2.03,3.51-3.02h.01c1.79-1.32,3.87-2.59,6.22-3.82-.19.38-.35.77-.5,1.16-.48,1.29-.72,2.61-.72,3.94,0,4.12,2.33,8.06,6.59,11.67.91.77,1.91,1.53,2.99,2.28.23.16.47.32.71.48.23.15.47.3.71.46,4.38,2.77,9.96,5.3,16.49,7.5.9.31,1.82.6,2.76.89,7.59,2.37,16.35,4.32,25.94,5.74.64.1,1.29.19,1.94.27,11.06,1.55,23.17,2.4,35.87,2.4,35.96,0,67.2-6.81,83-16.8.24-.16.47-.31.7-.46.24-.16.48-.32.71-.48,1.08-.75,2.08-1.51,2.99-2.28,4.26-3.61,6.59-7.55,6.59-11.67,0-1.33-.24-2.64-.72-3.93-.14-.39-.31-.79-.5-1.17.3.16.6.32.9.48.56.3,1.1.61,1.63.92.16.09.32.19.48.28.36.22.72.44,1.06.66.76.49,1.48.98,2.16,1.48h.01c1.54,1.14,2.88,2.31,3.97,3.5,2.46,2.67,3.76,5.47,3.76,8.36Z"/><ellipse class="cls-2" cx="207.52" cy="592.09" rx="13.49" ry="12.65"/><ellipse class="cls-2" cx="229.62" cy="618.1" rx="13.49" ry="12.65"/><ellipse class="cls-2" cx="286.6" cy="635.43" rx="13.49" ry="12.65"/><ellipse class="cls-2" cx="364.52" cy="644.1" rx="13.49" ry="12.65"/><ellipse class="cls-2" cx="449.41" cy="644.1" rx="13.49" ry="12.65"/><ellipse class="cls-2" cx="527.33" cy="635.43" rx="13.49" ry="12.65"/><ellipse class="cls-2" cx="584.31" cy="618.1" rx="13.49" ry="12.65"/><ellipse class="cls-2" cx="606.41" cy="592.09" rx="13.49" ry="12.65"/><ellipse class="cls-1" cx="207.52" cy="587.49" rx="13.49" ry="12.65"/><ellipse class="cls-1" cx="229.62" cy="613.5" rx="13.49" ry="12.65"/><ellipse class="cls-1" cx="286.6" cy="630.84" rx="13.49" ry="12.65"/><ellipse class="cls-1" cx="364.52" cy="639.5" rx="13.49" ry="12.65"/><ellipse class="cls-1" cx="449.41" cy="639.5" rx="13.49" ry="12.65"/><ellipse class="cls-1" cx="527.33" cy="630.84" rx="13.49" ry="12.65"/><ellipse class="cls-1" cx="584.31" cy="613.5" rx="13.49" ry="12.65"/><ellipse class="cls-1" cx="606.41" cy="587.49" rx="13.49" ry="12.65"/><ellipse class="cls-2" cx="313.22" cy="68.81" rx="6.34" ry="7.88"/><ellipse class="cls-2" cx="323.6" cy="85" rx="6.34" ry="7.88"/><ellipse class="cls-2" cx="350.39" cy="95.8" rx="6.34" ry="7.88"/><ellipse class="cls-2" cx="387.01" cy="101.2" rx="6.34" ry="7.88"/><ellipse class="cls-2" cx="426.92" cy="101.2" rx="6.34" ry="7.88"/><ellipse class="cls-2" cx="463.54" cy="95.8" rx="6.34" ry="7.88"/><ellipse class="cls-2" cx="490.33" cy="85" rx="6.34" ry="7.88"/><ellipse class="cls-2" cx="500.71" cy="68.81" rx="6.34" ry="7.88"/><ellipse class="cls-1" cx="313.22" cy="65.95" rx="6.34" ry="7.88"/><ellipse class="cls-1" cx="323.6" cy="82.14" rx="6.34" ry="7.88"/><ellipse class="cls-1" cx="350.39" cy="92.94" rx="6.34" ry="7.88"/><ellipse class="cls-1" cx="387.01" cy="98.33" rx="6.34" ry="7.88"/><ellipse class="cls-1" cx="426.92" cy="98.33" rx="6.34" ry="7.88"/><ellipse class="cls-1" cx="463.54" cy="92.94" rx="6.34" ry="7.88"/><ellipse class="cls-1" cx="490.33" cy="82.14" rx="6.34" ry="7.88"/><ellipse class="cls-1" cx="500.71" cy="65.95" rx="6.34" ry="7.88"/></g></svg>