<?xml version="1.0" encoding="UTF-8"?><svg id="Layer_2" xmlns="http://www.w3.org/2000/svg" viewBox="0 0 746.64 662.81"><defs><style>.cls-1{fill:#e58a4b;}.cls-1,.cls-2,.cls-3,.cls-4{stroke-width:0px;}.cls-2{fill:#c16d35;}.cls-3{fill:#d18141;}.cls-4{fill:#eeab84;}</style></defs><g id="_Слой_1_копия2_"><path class="cls-2" d="M666.61,464.84c-41.1,41.34-98.03,62.81-152.16,62.12,12.17-9.62,22.2-20.29,29.68-31.73,35.64-5.05,70.9-21.61,97.8-48.67,41.09-41.34,51.12-95.58,30.41-137.92-7.18-14.69-18.06-27.95-32.63-38.74-56.26-41.66-146.31-30.82-201.73,24.08-4.8-9.7-8.44-20.07-10.72-30.92,69-56.93,170.87-65.43,236.2-17.06,10.13,7.5,18.83,15.96,26.08,25.15h0c43.07,54.51,35.65,134.74-22.93,193.69Z"/><path class="cls-2" d="M501.52,591.02c0,10.07-12.16,19.31-32.45,26.55-26.49,9.45-66.83,15.49-112.01,15.49s-85.53-6.04-112.02-15.49c-20.29-7.24-32.45-16.48-32.45-26.55,0-4.72,2.67-9.25,7.59-13.48h.01c13.66,7.58,28.63,14.06,44.64,19.22,28.05,9.06,59.3,14.12,92.23,14.12s64.18-5.06,92.23-14.12c16.01-5.16,30.99-11.64,44.64-19.22,4.92,4.23,7.59,8.76,7.59,13.48Z"/><path class="cls-3" d="M469.4,620.77c0,23.21,0,42.04-112.34,42.04s-112.35-18.83-112.35-42.04c0-1.08.11-2.15.33-3.2,26.49,9.45,66.83,15.49,112.02,15.49s85.52-6.04,112.01-15.49c.22,1.05.33,2.12.33,3.2Z"/><path class="cls-1" d="M577.23,456.99c0,19.92-5.41,38.95-15.26,56.42-.5.88-1.01,1.76-1.53,2.63h0c-4.35,7.32-9.48,14.33-15.31,21.01-3.77,4.33-7.84,8.49-12.19,12.52,0,0-.01,0-.01.01-35.93,14.92-101.25,24.9-175.87,24.9-18.77,0-36.95-.63-54.23-1.83-51.38-3.5-94.73-11.9-121.64-23.06-4.22-3.92-8.19-7.98-11.87-12.18-5.99-6.79-11.23-13.93-15.65-21.37-2.78-4.67-5.24-9.45-7.35-14.34-6.14-14.15-9.44-29.16-9.44-44.71,0-36,17.68-69.11,47.3-95.31,5.21-4.61,10.78-9.01,16.7-13.16l.05-.04c2.76-1.7,5.46-3.5,8.09-5.41.03,0,.05-.03.07-.04,13.44-9.73,25.26-22.09,34.91-36.44,19.21,3.1,44.4,5.4,72.93,6.53,12.79.51,26.24.78,40.13.78,44.9,0,85.24-2.82,113.04-7.31,9.66,14.36,21.48,26.71,34.92,36.44.02.01.04.03.07.04,2.77,1.75,5.47,3.56,8.09,5.41.02.02.03.03.05.04,39.56,27.81,64,66.14,64,108.47Z"/><path class="cls-4" d="M223.26,420.53c1,22-32,35-40,16-12.22-19.76,42.43-49.85,40-16Z"/><path class="cls-4" d="M272.26,422.53c-20.31,11.12-17.66-23.76-33-32-14.15-12.51-4.89-47.26,19.32-36.84-37.33,15.98,35.49,41.49,13.68,68.84Z"/><path class="cls-4" d="M223.26,397.53c-6.69,6.69-11.56-2.15-17.22-4.69-46.22,14.28-61.53,64.52.22,57.68,8,6.01-3,26.01-16,22.01-89.9-21.15,12.59-141.91,33-75Z"/><path class="cls-4" d="M232.26,346.53c-17.4,57.37-7.73,11.17-44,31-11.46-8.87,27.81-38.94,44-31Z"/><path class="cls-4" d="M249.26,506.53c-19.37,4.59-58.33,13.68-64-12,21.65,13.74,18.91-16.04,41-7.01,9,4,21,2,31-4,2,9,2,21-8,23Z"/><path class="cls-4" d="M201.07,531.53c-3.02,21.54-21.73,14.68-25-2,9-1,16,5,25,2Z"/><path class="cls-4" d="M313.26,487.53c-13.52,27.29-9.02,51.98-50,44.99.62-4.15,6.97-14.34,0-15,.4-34.22-3.61-33.61,28-27.99,7.9-2.78,25.72-20.57,22-2.01Z"/><path class="cls-4" d="M392.26,384.53c-15.51,9.64-59.59-1.52-35,30,6.83,8.79-15.87,9-25.33,9.93-4.93-16.56-10.84-31.27-18.67-46.93-8.27-26.96,24.96-17.91,39-12,12,4,23-5,33-4,8,1,19,15,7,23Z"/><path class="cls-4" d="M411.26,338.53c-15.94,16.81-101.53,25.04-83.62-7.67,6.88,8.95,42.28,8.24,20.62-1.34,5.89-9.47,50.68-13.4,55-4-11,4.01-30-2.99-33,13.01,9.54,6.23,47.68-17.9,41,0Z"/><path class="cls-4" d="M284.26,320.53c.72,22.28-41.17,7.04-26.83-7.87,9.79,1.17,16.57,9.74,26.83,7.87Z"/><path class="cls-4" d="M339.26,327.53c-23.3-12.98-26.05,17.28-47,0-15.06-21.7,71.56-9.22,47,0Z"/><path class="cls-4" d="M469.26,318.53c-6,5-17,0-20,5-3.12,6.82-17.29,17.66-18,6-55.98-10.66,44.73-22.37,38-11Z"/><path class="cls-4" d="M494.26,377.53c-23.79,10.8-8.32-37.65-21.46-49.09,24.05-3.09,28.89,35.31,21.46,49.09Z"/><path class="cls-4" d="M486.26,410.53c-20.89,58.67-45.83,31.91-46-15,3.34-15.31,45.17,7.6,46,15Z"/><path class="cls-4" d="M316.02,424.52c5.17-63.64-96.31-103.99-35.43-19.48,10.58,25.63-27.07,51.85-4.16,74.69,32.86,3.37,41.74-27.24,39.59-55.21ZM267.26,337.52c-1.49-.56-1.32-.48.06.03l-.06-.03ZM383.52,558.49c7.45.66,15.07.52,21.12-.95-6.13,1.38-13.79,1.54-21.12.95ZM406.23,364.39c.37,2.9,1.51,5.39,3.25,7.5-1.6-2.92-2.66-5.4-3.25-7.5ZM468.31,340.86c1.06,1.29,2.14,3.09,3.13,4.99-.92-2.02-1.97-3.68-3.13-4.99ZM524.94,538.41v.21c.05-.07.03-.14,0-.21ZM565.26,407.53c-10.21,1.24-11.36,44.76-5.45,52.39-16.81,57.04,39.52-14.29,5.45-52.39ZM316.02,424.52c5.43-63.71-96.61-103.63-35.43-19.48,10.58,25.63-27.07,51.85-4.16,74.69,32.86,4.04,41.46-27.56,39.59-55.21ZM481.97,441.41c-.03,1.82-.11,3.59-.25,5.31.26-1.81.36-3.59.25-5.31ZM363.25,554.53s.04-.05.06-.07c-.02.02-.04.05-.06.07ZM477.68,527.91c.13-1.03.3-2.08.52-3.15-.23,1.07-.4,2.12-.52,3.15ZM565.26,407.53c-10.21,1.24-11.36,44.76-5.45,52.39-16.81,57.04,39.52-14.29,5.45-52.39Z"/><path class="cls-4" d="M314.26,354.53c-9.49,4.29-78.87-5.29-78.04-7.86,10.6-17.97-17.08-2.49-7.42-13.66,8.58-8.68,27.28.41,38.52,4.54,11.93,6.63,51.38-6.49,46.94,16.98Z"/><path class="cls-4" d="M464.2,374.72c-17.26,10.09-64.45,11.3-57.26-18.12,13.2-10.34,33.77,3.83,46.44-17.55,20.14-12.33,30.29,32,10.83,35.67Z"/><path class="cls-4" d="M559.07,509.46c-5.32,10.79-22.54,15.36-32.4,7.95-18.14-10.26,40.05-61.67,32.4-7.95Z"/><path class="cls-4" d="M524.94,538.41c-11.65,31.04-58.81,15.08-45.76-17.51-21.22-27.87,16.27.23,25.19-18.94,14.89-15.73,9.06,25.2,20.57,36.45Z"/><path class="cls-4" d="M416.53,544.17c-.73,22.35-39.55,14.15-53.22,10.29,28.14-17.38-9.13-102.81,41.21-49.1,23.27,7.28,1.17,24.53,12.01,38.81Z"/><path class="cls-4" d="M534.48,481.47c-5.94,13.32-22.12,4.28-31.95,7.22-7.32,16.05-30.7,10.28-31.11-3.18-4.76-14.77,13.03-28.38,10.55-44.1,22.87-9.63,64.6,12.63,52.51,40.06Z"/><path class="cls-4" d="M442.26,558.53c-20.74-10.54-30.1-37.02-8-53,45.59-.28,55.29,54.69,8,53Z"/><path class="cls-4" d="M460.26,474.53c11.57,30.07-7.02,42.56-26,14-10.34,0-19.68,21.28-30,6-12.01-20.35,29.13-25.63,18-49,20.68,5.02,67.74,6.74,38.01,29Z"/><path class="cls-4" d="M549.26,438.53c-15.12,17.05-13.67-22.16-32-13-17.5,11.58-47.6,1.79-19.4-13.89,18.76-1.99-3.79-11.52-11.6-15.11-8.22-35.26,84.59,23.73,63,42Z"/><path class="cls-4" d="M550.26,409.53c-43.68-14.76-73.85-97.35-11.99-39,4.52,5.75,26.13,35.75,11.99,39Z"/><path class="cls-4" d="M418.26,431.53c-27.2,1.8-62.08-2.99-56-32,21-1,44-17,60-9,10,5,13,38-4,41Z"/><path class="cls-4" d="M412.26,453.53c-7,36.09-79.59-27.24-44,28-5,19-30,13-46,10,11.9-10.13-.28-28.99,4-42,3.54-24.98,86.86-21.22,86,4Z"/><path class="cls-4" d="M339.26,558.53c-55.46,14.88-135.41-7.85-30-29,41.57-75.56,86.86-1.88,30,29Z"/><path class="cls-4" d="M245.26,545.53c-8,3-19-2-29-5-5-2-5,10-11,7-2.47-1.64-1.55-3.29,1.07-4.37-17.69-44.83,18.85-24.41,49.94-30.63,9.07,6.77-1.76,29.95-11.01,33Z"/><path class="cls-4" d="M192.26,515.53c-21.74,46.3-83.44-117.24,5-25-8,5-13-4-19-7-20.08,2.99,7.76,24.31,14,32Z"/><path class="cls-4" d="M246.26,477.53c-13.65,11.4-46.28,7.15-35-15,20.62-15.52,17.9-33.38,15.9-56.33,27.84-12.01,45.08,58.29,19.1,71.33Z"/><path class="cls-2" d="M218.37,420.53c1,22-32,35-40,16-12.22-19.76,42.43-49.85,40-16Z"/><path class="cls-2" d="M267.37,422.53c-20.31,11.12-17.66-23.76-33-32-14.15-12.51-4.89-47.26,19.32-36.84-37.33,15.98,35.49,41.49,13.68,68.84Z"/><path class="cls-2" d="M218.37,397.53c-6.69,6.69-11.56-2.15-17.22-4.69-46.22,14.28-61.53,64.52.22,57.68,8,6.01-3,26.01-16,22.01-89.9-21.15,12.59-141.91,33-75Z"/><path class="cls-2" d="M227.37,346.53c-17.4,57.37-7.73,11.17-44,31-11.46-8.87,27.81-38.94,44-31Z"/><path class="cls-2" d="M244.37,506.53c-19.37,4.59-58.33,13.68-64-12,21.65,13.74,18.91-16.04,41-7.01,9,4,21,2,31-4,2,9,2,21-8,23Z"/><path class="cls-2" d="M196.18,531.53c-3.02,21.54-21.73,14.68-25-2,9-1,16,5,25,2Z"/><path class="cls-2" d="M308.37,487.53c-13.52,27.29-9.02,51.98-50,44.99.62-4.15,6.97-14.34,0-15,.4-34.22-3.61-33.61,28-27.99,7.9-2.78,25.72-20.57,22-2.01Z"/><path class="cls-2" d="M387.37,384.53c-15.51,9.64-59.59-1.52-35,30,6.83,8.79-15.87,9-25.33,9.93-4.93-16.56-10.84-31.27-18.67-46.93-8.27-26.96,24.96-17.91,39-12,12,4,23-5,33-4,8,1,19,15,7,23Z"/><path class="cls-2" d="M406.37,338.53c-15.94,16.81-101.53,25.04-83.62-7.67,6.88,8.95,42.28,8.24,20.62-1.34,5.89-9.47,50.68-13.4,55-4-11,4.01-30-2.99-33,13.01,9.54,6.23,47.68-17.9,41,0Z"/><path class="cls-2" d="M279.37,320.53c.72,22.28-41.17,7.04-26.83-7.87,9.79,1.17,16.57,9.74,26.83,7.87Z"/><path class="cls-2" d="M334.37,327.53c-23.3-12.98-26.05,17.28-47,0-15.06-21.7,71.56-9.22,47,0Z"/><path class="cls-2" d="M464.37,318.53c-6,5-17,0-20,5-3.12,6.82-17.29,17.66-18,6-55.98-10.66,44.73-22.37,38-11Z"/><path class="cls-2" d="M489.37,377.53c-23.79,10.8-8.32-37.65-21.46-49.09,24.05-3.09,28.89,35.31,21.46,49.09Z"/><path class="cls-2" d="M481.37,410.53c-20.89,58.67-45.83,31.91-46-15,3.34-15.31,45.17,7.6,46,15Z"/><path class="cls-2" d="M311.13,424.52c5.17-63.64-96.31-103.99-35.43-19.48,10.58,25.63-27.07,51.85-4.16,74.69,32.86,3.37,41.74-27.24,39.59-55.21ZM262.37,337.52c-1.49-.56-1.32-.48.06.03l-.06-.03ZM378.63,558.49c7.45.66,15.07.52,21.12-.95-6.13,1.38-13.79,1.54-21.12.95ZM401.34,364.39c.37,2.9,1.51,5.39,3.25,7.5-1.6-2.92-2.66-5.4-3.25-7.5ZM463.42,340.86c1.06,1.29,2.14,3.09,3.13,4.99-.92-2.02-1.97-3.68-3.13-4.99ZM520.05,538.41v.21c.05-.07.03-.14,0-.21ZM560.37,407.53c-10.21,1.24-11.36,44.76-5.45,52.39-16.81,57.04,39.52-14.29,5.45-52.39ZM311.13,424.52c5.43-63.71-96.61-103.63-35.43-19.48,10.58,25.63-27.07,51.85-4.16,74.69,32.86,4.04,41.46-27.56,39.59-55.21ZM477.08,441.41c-.03,1.82-.11,3.59-.25,5.31.26-1.81.36-3.59.25-5.31ZM358.36,554.53s.04-.05.06-.07c-.02.02-.04.05-.06.07ZM472.79,527.91c.13-1.03.3-2.08.52-3.15-.23,1.07-.4,2.12-.52,3.15ZM560.37,407.53c-10.21,1.24-11.36,44.76-5.45,52.39-16.81,57.04,39.52-14.29,5.45-52.39Z"/><path class="cls-2" d="M309.37,354.53c-9.49,4.29-78.87-5.29-78.04-7.86,10.6-17.97-17.08-2.49-7.42-13.66,8.58-8.68,27.28.41,38.52,4.54,11.93,6.63,51.38-6.49,46.94,16.98Z"/><path class="cls-2" d="M459.31,374.72c-17.26,10.09-64.45,11.3-57.26-18.12,13.2-10.34,33.77,3.83,46.44-17.55,20.14-12.33,30.29,32,10.83,35.67Z"/><path class="cls-2" d="M554.18,509.46c-5.32,10.79-22.54,15.36-32.4,7.95-18.14-10.26,40.05-61.67,32.4-7.95Z"/><path class="cls-2" d="M520.05,538.41c-11.65,31.04-58.81,15.08-45.76-17.51-21.22-27.87,16.27.23,25.19-18.94,14.89-15.73,9.06,25.2,20.57,36.45Z"/><path class="cls-2" d="M411.64,544.17c-.73,22.35-39.55,14.15-53.22,10.29,28.14-17.38-9.13-102.81,41.21-49.1,23.27,7.28,1.17,24.53,12.01,38.81Z"/><path class="cls-2" d="M529.59,481.47c-5.94,13.32-22.12,4.28-31.95,7.22-7.32,16.05-30.7,10.28-31.11-3.18-4.76-14.77,13.03-28.38,10.55-44.1,22.87-9.63,64.6,12.63,52.51,40.06Z"/><path class="cls-2" d="M437.37,558.53c-20.74-10.54-30.1-37.02-8-53,45.59-.28,55.29,54.69,8,53Z"/><path class="cls-2" d="M455.37,474.53c11.57,30.07-7.02,42.56-26,14-10.34,0-19.68,21.28-30,6-12.01-20.35,29.13-25.63,18-49,20.68,5.02,67.74,6.74,38.01,29Z"/><path class="cls-2" d="M544.37,438.53c-15.12,17.05-13.67-22.16-32-13-17.5,11.58-47.6,1.79-19.4-13.89,18.76-1.99-3.79-11.52-11.6-15.11-8.22-35.26,84.59,23.73,63,42Z"/><path class="cls-2" d="M545.37,409.53c-43.68-14.76-73.85-97.35-11.99-39,4.52,5.75,26.13,35.75,11.99,39Z"/><path class="cls-2" d="M413.37,431.53c-27.2,1.8-62.08-2.99-56-32,21-1,44-17,60-9,10,5,13,38-4,41Z"/><path class="cls-2" d="M407.37,453.53c-7,36.09-79.59-27.24-44,28-5,19-30,13-46,10,11.9-10.13-.28-28.99,4-42,3.54-24.98,86.86-21.22,86,4Z"/><path class="cls-2" d="M334.37,558.53c-55.46,14.88-135.41-7.85-30-29,41.57-75.56,86.86-1.88,30,29Z"/><path class="cls-2" d="M240.37,545.53c-8,3-19-2-29-5-5-2-5,10-11,7-2.47-1.64-1.55-3.29,1.07-4.37-17.69-44.83,18.85-24.41,49.94-30.63,9.07,6.77-1.76,29.95-11.01,33Z"/><path class="cls-2" d="M187.37,515.53c-21.74,46.3-83.44-117.24,5-25-8,5-13-4-19-7-20.08,2.99,7.76,24.31,14,32Z"/><path class="cls-2" d="M241.37,477.53c-13.65,11.4-46.28,7.15-35-15,20.62-15.52,17.9-33.38,15.9-56.33,27.84-12.01,45.08,58.29,19.1,71.33Z"/><path class="cls-1" d="M532.93,549.58c-.21.2-.43.39-.64.59-7.01,6.44-14.73,12.47-23.08,18.05-4.88,3.27-9.98,6.38-15.28,9.32-13.65,7.58-28.63,14.06-44.64,19.22-28.05,9.06-59.3,14.12-92.23,14.12s-64.18-5.06-92.23-14.12c-16.01-5.16-30.98-11.64-44.64-19.22h-.01c-5.46-3.04-10.72-6.25-15.74-9.63-8.42-5.66-16.2-11.79-23.25-18.32,26.91,11.16,70.26,19.56,121.64,23.06,17.28,1.2,35.46,1.83,54.23,1.83,74.62,0,139.94-9.98,175.87-24.9Z"/><path class="cls-2" d="M463.99,133.12c0,2.49-2,4.88-5.7,7.11-14.35,8.67-54.25,14.91-101.23,14.91-9.78,0-19.25-.27-28.25-.78-34.23-1.92-61.62-7.26-72.99-14.13-3.7-2.23-5.7-4.62-5.7-7.11,0-.87.25-1.73.73-2.57,3.36-5.97,18.31-11.2,40.08-14.73,18.2-2.95,41.16-4.72,66.13-4.72,54.83,0,100.02,8.5,106.2,19.45.48.84.73,1.7.73,2.57Z"/><path class="cls-1" d="M458.29,140.23c-2.45,5.19-4.64,10.56-6.56,16.09-2.56,7.33-4.62,14.94-6.17,22.78-19.26,5.78-51.6,9.58-88.25,9.58-9.78,0-19.25-.27-28.25-.78-25.04-1.4-46.43-4.64-60.55-8.96-1.53-7.72-3.56-15.22-6.07-22.45-1.94-5.59-4.15-11.02-6.62-16.26,6.3,3.81,17.51,7.14,32.08,9.69,11.73,2.05,25.65,3.58,40.91,4.44,9,.51,18.47.78,28.25.78,26.5,0,50.74-1.99,69.42-5.27,14.44-2.54,25.56-5.86,31.81-9.64Z"/><path class="cls-2" d="M445.56,179.1c-1.28,6.53-2.21,13.21-2.74,20.03h0c-.36,4.57-.54,9.19-.54,13.86,0,4.25.15,8.45.45,12.61h0c-19.51,5.33-50.51,8.78-85.42,8.78-9.78,0-19.25-.27-28.25-.78-23.4-1.31-43.6-4.22-57.67-8.12.29-4.12.44-8.28.44-12.49,0-4.62-.18-9.2-.53-13.72-.54-6.92-1.47-13.71-2.79-20.33,14.12,4.32,35.51,7.56,60.55,8.96,9,.51,18.47.78,28.25.78,36.65,0,68.99-3.8,88.25-9.58Z"/><path class="cls-1" d="M470.1,306.59c-27.8,4.49-68.14,7.31-113.04,7.31-13.89,0-27.34-.27-40.13-.78-28.53-1.13-53.72-3.43-72.93-6.53,6.54-9.72,12.09-20.35,16.46-31.69,1.73-4.47,3.27-9.04,4.62-13.72,3.29-11.37,5.44-23.33,6.31-35.7,14.07,3.9,34.27,6.81,57.67,8.12,9,.51,18.47.78,28.25.78,34.91,0,65.91-3.45,85.42-8.77.45,6.39,1.25,12.67,2.37,18.82,1.92,10.59,4.81,20.79,8.54,30.46.7,1.81,1.43,3.59,2.18,5.36,3.99,9.35,8.78,18.17,14.28,26.34Z"/><path class="cls-1" d="M684.45,478.2c-41.1,47.9-98.03,72.77-152.16,71.97,12.17-11.15,22.2-23.51,29.68-36.76,35.64-5.85,70.9-25.04,97.8-56.39,41.09-47.89,51.12-110.74,30.41-159.79-7.18-17.02-18.06-32.38-32.63-44.88-56.26-48.27-146.31-35.71-201.73,27.9-4.8-11.24-8.44-23.25-10.72-35.82,69-65.96,170.87-75.81,236.2-19.77,10.13,8.69,18.83,18.49,26.08,29.14h0c43.07,63.15,35.65,156.11-22.93,224.4Z"/><path class="cls-1" d="M200.88,348.52c-5.92,4.15-11.49,8.55-16.7,13.16-29.62,26.2-47.3,59.31-47.3,95.31,0,15.55,3.3,30.56,9.44,44.71-17.64-6.8-34.69-16.84-50.17-30.12-46.95-40.27-66.59-99.28-55.09-150.23-21.07-24.22-35.13-56.41-38.4-92.25.88.78,1.78,1.57,2.68,2.34,19.57,16.79,41.64,28.39,64.25,34.83,2.11-2.32,4.3-4.54,6.56-6.66,1.17,3.1,2.43,6.18,3.81,9.24,9.79,21.83,24.81,42.33,44.76,59.44,16.41,14.08,34.57,24.51,53.34,31.3,7.95-2.9,15.59-6.62,22.82-11.07Z"/><path class="cls-1" d="M438.12,63.06c0,4.52-4.67,8.72-12.73,12.26-1.5.64-3.12,1.29-4.85,1.89-14.81,5.23-37.63,8.57-63.23,8.57s-46.63-3.08-61.45-7.96c-2.41-.79-4.63-1.63-6.64-2.5-8.06-3.54-12.72-7.74-12.72-12.26s4.56-8.61,12.45-12.11c2.34-1.04,4.96-2.02,7.85-2.94.03.09.05.2.09.29.84-.52,1.74-1.04,2.69-1.54,1.44-.75,3.01-1.47,4.69-2.16.81,1.82,1.74,3.59,2.78,5.3,9.57,15.76,28.49,26.49,50.26,26.49s40.67-10.74,50.25-26.49c1.12-1.85,2.12-3.76,2.97-5.74,2.62,1.01,4.97,2.09,7.02,3.25.65.36,1.27.74,1.87,1.12,2.83.96,5.41,1.98,7.66,3.07,7.02,3.36,11.05,7.27,11.05,11.46Z"/><path class="cls-1" d="M446.22,126.93c2.5,3.66,1.14,8.63-2.87,10.65-13.68,6.9-47.34,11.79-86.7,11.79s-70.57-4.54-85.13-11.05c-4.23-1.89-5.68-7.06-3.09-10.82,1-1.46,1.97-2.91,2.92-4.37,11.17-17.16,18.67-10.8,22.05-26.59,11.54,11.95,35.53,20.17,63.26,20.17s53.77-8.94,64.67-21.74c3.29,16.61,11.21,11.31,23.23,29.47.55.83,1.1,1.66,1.67,2.48Z"/><path class="cls-2" d="M427.9,84.96c0,4.83-2.11,9.43-5.91,13.59-10.9,11.96-35.75,20.31-64.67,20.31s-51.72-7.68-63.26-18.84c-4.7-4.54-7.33-9.65-7.33-15.06,0-3.11.87-6.11,2.5-8.97,2.01.67,4.23,1.32,6.64,1.93,14.82,3.75,36.85,6.12,61.45,6.12s48.42-2.57,63.23-6.58c1.73-.47,3.35-.96,4.85-1.46,1.63,2.86,2.5,5.86,2.5,8.97Z"/><ellipse class="cls-2" cx="38.19" cy="245.87" rx="17.95" ry="41.07" transform="translate(-201.77 180.07) rotate(-65.84)"/><path class="cls-2" d="M414.23,38.41c0,2-.23,3.96-.66,5.88-.61,2.69-1.63,5.28-3.03,7.75-.85,1.52-1.85,2.99-2.97,4.41-9.57,12.11-28.48,20.36-50.25,20.36s-40.68-8.25-50.26-20.36c-1.04-1.31-1.97-2.67-2.78-4.07-1.49-2.57-2.58-5.28-3.22-8.09-.44-1.92-.66-3.88-.66-5.88,0-21.21,25.48-38.41,56.92-38.41s56.91,17.2,56.91,38.41Z"/><circle class="cls-4" cx="265.82" cy="268.39" r="11.21"/><circle class="cls-4" cx="301" cy="277.66" r="11.21"/><circle class="cls-4" cx="337.94" cy="281.85" r="11.21"/><circle class="cls-4" cx="375.47" cy="281.41" r="11.21"/><circle class="cls-4" cx="412.4" cy="276.77" r="11.21"/><circle class="cls-4" cx="447.53" cy="268.39" r="11.21"/><circle class="cls-2" cx="265.77" cy="263.31" r="11.21"/><circle class="cls-2" cx="300.95" cy="272.58" r="11.21"/><circle class="cls-2" cx="337.9" cy="276.77" r="11.21"/><circle class="cls-2" cx="375.43" cy="276.33" r="11.21"/><circle class="cls-2" cx="412.35" cy="271.7" r="11.21"/><circle class="cls-2" cx="447.48" cy="263.31" r="11.21"/><ellipse class="cls-4" cx="506.92" cy="206.66" rx="14.23" ry="7.81" transform="translate(-39.68 176.56) rotate(-19.03)"/><ellipse class="cls-4" cx="645.48" cy="205.82" rx="8.79" ry="17.15" transform="translate(262.13 764.43) rotate(-73.23)"/><ellipse class="cls-4" cx="717.69" cy="271.85" rx="9.77" ry="20.07" transform="translate(-40.33 391.75) rotate(-29.73)"/><ellipse class="cls-4" cx="731.55" cy="370.29" rx="22.98" ry="10.75" transform="translate(305.76 1071) rotate(-85.56)"/><ellipse class="cls-4" cx="683.4" cy="476.98" rx="25.9" ry="11.72" transform="translate(-101.23 757.87) rotate(-54.61)"/><ellipse class="cls-4" cx="597.27" cy="538.62" rx="28.82" ry="12.7" transform="translate(-152.62 247.92) rotate(-20.86)"/><ellipse class="cls-2" cx="511.15" cy="206.66" rx="14.23" ry="7.81" transform="translate(-39.45 177.93) rotate(-19.03)"/><ellipse class="cls-2" cx="649.7" cy="205.82" rx="8.79" ry="17.15" transform="translate(265.14 768.48) rotate(-73.23)"/><ellipse class="cls-2" cx="721.92" cy="271.85" rx="9.77" ry="20.07" transform="translate(-39.78 393.85) rotate(-29.73)"/><ellipse class="cls-2" cx="735.78" cy="370.29" rx="22.98" ry="10.75" transform="translate(309.66 1075.22) rotate(-85.56)"/><ellipse class="cls-2" cx="687.63" cy="476.98" rx="25.9" ry="11.72" transform="translate(-99.45 761.32) rotate(-54.61)"/><ellipse class="cls-2" cx="601.49" cy="538.62" rx="28.82" ry="12.7" transform="translate(-152.35 249.43) rotate(-20.86)"/></g></svg>