<?xml version="1.0" encoding="UTF-8"?><svg id="Layer_2" xmlns="http://www.w3.org/2000/svg" viewBox="0 0 500.49 425.41"><defs><style>.cls-1,.cls-2,.cls-3{fill:#e3a076;}.cls-1,.cls-4{stroke-width:0px;}.cls-2,.cls-5,.cls-3,.cls-6{stroke:#cb7e59;stroke-linecap:round;stroke-linejoin:round;}.cls-2,.cls-5,.cls-6{stroke-width:4px;}.cls-7{stroke-width:1.07px;}.cls-7,.cls-8{fill:#fff;stroke:#1d1d1b;stroke-miterlimit:10;}.cls-5{fill:none;}.cls-3{stroke-width:8px;}.cls-4,.cls-6{fill:#cb7e59;}.cls-8{stroke-width:.95px;}</style></defs><g id="_Слой_1_копия2_"><path class="cls-7" d="M229.42,279.7c-19.04-7.6-34.75-17.68-45.65-29.41,14.89,12.33,30.43,22.21,45.65,29.41Z"/><path class="cls-4" d="M472.72,231.08c9.64,18.47,1.31,62.94-21.9,109.21-27.45,54.72-65.32,91.24-84.58,81.57-19.27-9.66-12.63-61.85,14.82-116.57,3.12-6.22,6.38-12.21,9.73-17.92-18.77,4.87-39.67,7.59-61.69,7.59-9.01,0-17.84-.46-26.41-1.33-12.44-1.27-24.34-3.41-35.49-6.33-4.33,16.35-11.22,34.52-20.48,52.99-27.45,54.72-65.32,91.24-84.59,81.57-19.26-9.66-12.63-61.85,14.82-116.57,9.24-18.42,19.66-34.78,30.16-48.01-2.98-2.22-5.94-4.56-8.88-6.99-2.59-2.15-5.16-4.37-7.71-6.66-54.64-49.18-77.13-113.26-50.24-143.12,26.31-29.24,90.2-14.86,144.12,31.9,14.1-2.53,29.12-3.89,44.7-3.89,81.54,0,147.63,37.26,147.63,83.22,0,6.66-1.39,13.14-4.01,19.34Z"/><path class="cls-2" d="M458.26,231.08c9.64,18.47,1.31,62.94-21.9,109.21-27.45,54.72-65.32,91.24-84.58,81.57-19.27-9.66-12.63-61.85,14.82-116.57,3.12-6.22,6.38-12.21,9.73-17.92-18.77,4.87-39.67,7.59-61.69,7.59-9.01,0-17.84-.46-26.41-1.33-12.44-1.27-24.34-3.41-35.49-6.33-4.33,16.35-11.22,34.52-20.48,52.99-27.45,54.72-65.32,91.24-84.59,81.57-19.26-9.66-12.63-61.85,14.82-116.57,9.24-18.42,19.66-34.78,30.16-48.01-2.98-2.22-5.94-4.56-8.88-6.99-2.59-2.15-5.16-4.37-7.71-6.66-54.64-49.18-77.13-113.26-50.24-143.12,26.31-29.24,90.2-14.86,144.12,31.9,14.1-2.53,29.12-3.89,44.7-3.89,81.54,0,147.63,37.26,147.63,83.22,0,6.66-1.39,13.14-4.01,19.34Z"/><path class="cls-8" d="M288.23,293.63c-17.26.91-37.73-3.94-58.81-13.93,17.24,6.88,37.21,11.73,58.81,13.93Z"/><path class="cls-4" d="M152.56,183.01c-40.56,17.01-80.49,20.05-104.08,10.09-19.15-5.52-32.02-15.64-32.79-27.92-.64-10.31,7.36-20.16,20.77-27.72,13.35-20.31,39.98-41.02,73.86-55.22,56.45-23.67,111.68-20.3,123.35,7.53,11.66,27.83-24.65,69.57-81.11,93.24Z"/><path class="cls-6" d="M56.74,174.03c-2-3-7,2-11,4-7,3-15,6-22,11-.13.07-.27.12-.43.17,3.5,1.61,7.36,3.02,11.52,4.22,2.48,1.05,5.15,1.94,7.98,2.7,11.37-4.31,20.89-9.33,13.93-22.09Z"/><path class="cls-2" d="M220.02,90.09c-11.67-27.83-66.9-31.2-123.35-7.53-33.88,14.2-60.51,34.91-73.86,55.22-13.41,7.56-21.41,17.41-20.77,27.72.6,9.62,8.63,17.91,21.27,23.7.15-.05.3-.11.43-.17,7-5,15-8,22-11,4-2,9-7,11-4,6.96,12.76-2.56,17.78-13.93,22.09,24.03,6.46,59.81,2.43,96.1-12.79,56.46-23.67,92.77-65.41,81.11-93.24Z"/><circle class="cls-2" cx="98.57" cy="115.63" r="11.68"/><circle class="cls-3" cx="98.57" cy="115.63" r="3.21"/><path class="cls-2" d="M151.66,74.86C158.41,28.36,201.57-3.86,248.06,2.89c37.19,5.4,62.97,39.93,57.57,77.12-4.32,29.75-31.94,50.38-61.7,46.06-23.8-3.46-40.3-25.55-36.84-49.36,2.76-19.04,20.44-32.24,39.49-29.48,15.23,2.21,25.79,16.35,23.58,31.59-1.77,12.19-13.08,20.63-25.27,18.86-9.75-1.42-16.51-10.47-15.09-20.22,1.13-7.8,8.37-13.21,16.17-12.07,6.24.91,10.56,6.7,9.66,12.94"/><path class="cls-2" d="M468.26,186.77c13.96-.81,27.35,15.42,29.89,36.25,2.04,16.66-5.37,30.7-16.54,31.35-8.94.52-17.5-9.87-19.13-23.2-1.3-10.67,3.44-19.65,10.59-20.06,5.72-.33,11.2,6.32,12.24,14.85.83,6.83-2.2,12.57-6.78,12.84-3.66.21-7.17-4.04-7.84-9.5-.53-4.37,1.41-8.05,4.34-8.22,2.34-.14,4.59,2.59,5.02,6.08.34,2.8-.9,5.15-2.78,5.26"/><path class="cls-1" d="M276.83,205.64c19.41,42.78.47,93.2-42.31,112.61-34.22,15.53-74.56.38-90.09-33.85-12.42-27.38-.3-59.65,27.08-72.07,21.9-9.94,47.72-.24,57.66,21.66,7.95,17.52.19,38.17-17.33,46.13-14.02,6.36-30.54.15-36.9-13.86-5.09-11.21-.12-24.43,11.09-29.52,8.97-4.07,19.55-.1,23.62,8.87,3.26,7.18.08,15.64-7.1,18.89-5.74,2.61-12.51.06-15.11-5.68"/><path class="cls-5" d="M276.83,205.64c19.41,42.78.47,93.2-42.31,112.61-34.22,15.53-74.56.38-90.09-33.85-12.42-27.38-.3-59.65,27.08-72.07,21.9-9.94,47.72-.24,57.66,21.66,7.95,17.52.19,38.17-17.33,46.13-14.02,6.36-30.54.15-36.9-13.86-5.09-11.21-.12-24.43,11.09-29.52,8.97-4.07,19.55-.1,23.62,8.87,3.26,7.18.08,15.64-7.1,18.89-5.74,2.61-12.51.06-15.11-5.68"/><path class="cls-1" d="M373.34,197.98c19.41,42.78.47,93.2-42.31,112.61-34.22,15.53-74.56.38-90.09-33.85-12.42-27.38-.3-59.65,27.08-72.07,21.9-9.94,47.72-.24,57.66,21.66,7.95,17.52.19,38.17-17.33,46.13-14.02,6.36-30.54.15-36.9-13.86-5.09-11.21-.12-24.43,11.09-29.52,8.97-4.07,19.55-.1,23.62,8.87,3.26,7.18.08,15.64-7.1,18.89-5.74,2.61-12.51.06-15.11-5.68"/><path class="cls-5" d="M373.34,197.98c19.41,42.78.47,93.2-42.31,112.61-34.22,15.53-74.56.38-90.09-33.85-12.42-27.38-.3-59.65,27.08-72.07,21.9-9.94,47.72-.24,57.66,21.66,7.95,17.52.19,38.17-17.33,46.13-14.02,6.36-30.54.15-36.9-13.86-5.09-11.21-.12-24.43,11.09-29.52,8.97-4.07,19.55-.1,23.62,8.87,3.26,7.18.08,15.64-7.1,18.89-5.74,2.61-12.51.06-15.11-5.68"/><path class="cls-1" d="M457.92,192.12c19.41,42.78.47,93.2-42.31,112.61-34.22,15.53-74.56.38-90.09-33.85-12.42-27.38-.3-59.65,27.08-72.07,21.9-9.94,47.72-.24,57.66,21.66,7.95,17.52.19,38.17-17.33,46.13-14.02,6.36-30.54.15-36.9-13.86-5.09-11.21-.12-24.43,11.09-29.52,8.97-4.07,19.55-.1,23.62,8.87,3.26,7.18.08,15.64-7.1,18.89-5.74,2.61-12.51.06-15.11-5.68"/><path class="cls-5" d="M457.92,192.12c19.41,42.78.47,93.2-42.31,112.61-34.22,15.53-74.56.38-90.09-33.85-12.42-27.38-.3-59.65,27.08-72.07,21.9-9.94,47.72-.24,57.66,21.66,7.95,17.52.19,38.17-17.33,46.13-14.02,6.36-30.54.15-36.9-13.86-5.09-11.21-.12-24.43,11.09-29.52,8.97-4.07,19.55-.1,23.62,8.87,3.26,7.18.08,15.64-7.1,18.89-5.74,2.61-12.51.06-15.11-5.68"/><path class="cls-1" d="M358.14,144.6c19.79-30.6,60.64-39.37,91.24-19.59,24.48,15.83,31.5,48.51,15.67,72.99-12.66,19.59-38.81,25.2-58.39,12.54-15.67-10.13-20.16-31.05-10.03-46.71,8.1-12.54,24.84-16.13,37.37-8.02,10.03,6.48,12.9,19.87,6.42,29.9-5.19,8.02-15.9,10.32-23.92,5.13-6.42-4.15-8.26-12.72-4.11-19.13,3.32-5.13,10.17-6.61,15.31-3.29,4.11,2.66,5.28,8.14,2.63,12.25"/><path class="cls-5" d="M358.14,144.6c19.79-30.6,60.64-39.37,91.24-19.59,24.48,15.83,31.5,48.51,15.67,72.99-12.66,19.59-38.81,25.2-58.39,12.54-15.67-10.13-20.16-31.05-10.03-46.71,8.1-12.54,24.84-16.13,37.37-8.02,10.03,6.48,12.9,19.87,6.42,29.9-5.19,8.02-15.9,10.32-23.92,5.13-6.42-4.15-8.26-12.72-4.11-19.13,3.32-5.13,10.17-6.61,15.31-3.29,4.11,2.66,5.28,8.14,2.63,12.25"/><path class="cls-1" d="M265.59,143.2c19.79-30.6,60.64-39.37,91.24-19.59,24.48,15.83,31.5,48.51,15.67,72.99-12.66,19.59-38.81,25.2-58.39,12.54-15.67-10.13-20.16-31.05-10.03-46.71,8.1-12.54,24.84-16.13,37.37-8.02,10.03,6.48,12.9,19.87,6.42,29.9-5.19,8.02-15.9,10.32-23.92,5.13-6.42-4.15-8.26-12.72-4.11-19.13,3.32-5.13,10.17-6.61,15.31-3.29,4.11,2.66,5.28,8.14,2.63,12.25"/><path class="cls-5" d="M265.59,143.2c19.79-30.6,60.64-39.37,91.24-19.59,24.48,15.83,31.5,48.51,15.67,72.99-12.66,19.59-38.81,25.2-58.39,12.54-15.67-10.13-20.16-31.05-10.03-46.71,8.1-12.54,24.84-16.13,37.37-8.02,10.03,6.48,12.9,19.87,6.42,29.9-5.19,8.02-15.9,10.32-23.92,5.13-6.42-4.15-8.26-12.72-4.11-19.13,3.32-5.13,10.17-6.61,15.31-3.29,4.11,2.66,5.28,8.14,2.63,12.25"/><path class="cls-1" d="M177.94,168.24c16.79-32.34,57.15-43.95,89.5-27.16,25.88,13.43,35.96,45.3,22.53,71.17-10.75,20.7-36.24,28.77-56.94,18.03-16.56-8.6-23.02-28.99-14.42-45.55,6.88-13.25,23.19-18.41,36.44-11.54,10.6,5.5,14.73,18.55,9.23,29.15-4.4,8.48-14.84,11.78-23.32,7.38-6.78-3.52-9.43-11.87-5.91-18.66,2.82-5.43,9.5-7.54,14.93-4.73,4.34,2.25,6.03,7.6,3.78,11.94"/><path class="cls-5" d="M177.94,168.24c16.79-32.34,57.15-43.95,89.5-27.16,25.88,13.43,35.96,45.3,22.53,71.17-10.75,20.7-36.24,28.77-56.94,18.03-16.56-8.6-23.02-28.99-14.42-45.55,6.88-13.25,23.19-18.41,36.44-11.54,10.6,5.5,14.73,18.55,9.23,29.15-4.4,8.48-14.84,11.78-23.32,7.38-6.78-3.52-9.43-11.87-5.91-18.66,2.82-5.43,9.5-7.54,14.93-4.73,4.34,2.25,6.03,7.6,3.78,11.94"/></g></svg>