<?xml version="1.0" encoding="UTF-8"?><svg id="Layer_2" xmlns="http://www.w3.org/2000/svg" viewBox="0 0 415 607.58"><defs><style>.cls-1{fill:#7e6057;}.cls-1,.cls-2,.cls-3,.cls-4{stroke-width:0px;}.cls-2{fill:#b6866d;}.cls-5{fill:#fff;stroke:#1d1d1b;stroke-miterlimit:10;}.cls-3{fill:#fff9f1;}.cls-4{fill:#54423d;}</style></defs><g id="_Слой_1_копия2_"><path class="cls-4" d="M278.9,581.64c40.56,2.44,67.71,6.89,67.71,11.98,0,7.71-62.28,13.96-139.11,13.96s-139.11-6.25-139.11-13.96c0-5.09,27.15-9.54,67.71-11.98-16.09-5.63-31.1-13.12-44.69-22.14-.72-.47-1.44-.95-2.15-1.44-5.57-3.8-10.88-7.87-15.92-12.18-.73-.63-1.45-1.26-2.17-1.89-8.91-7.84-16.92-16.46-23.91-25.72,2.93-1.32,5.95-2.42,9.03-3.31,3.14-.91,6.45-1.59,9.66-.95,4.06.81,7.39,3.63,10.62,6.23,23.71,19.11,52.83,31.45,83.06,35.19,2.8.34,5.75.6,8.35-.49,2.3-.96,4.05-2.86,5.74-4.7,9.19-10,19.11-20.05,31.83-24.8,22.39-8.35,47.29,1.64,67.87,13.78,9.17,5.41,18.22,11.34,28.45,14.28,10.22,2.94,22.12,2.42,30.41-4.25,4.79-3.85,7.97-9.38,12.48-13.56,4.02-3.72,9.12-6.09,14.49-7.07-20.71,23.38-48.4,41.84-80.35,53.02Z"/><path class="cls-1" d="M383.03,493.71c-6.29,12.52-14.31,24.23-23.78,34.91-5.37.98-10.47,3.35-14.49,7.07-4.51,4.18-7.69,9.71-12.48,13.56-8.29,6.67-20.19,7.19-30.41,4.25-10.23-2.94-19.28-8.87-28.45-14.28-20.58-12.14-45.48-22.13-67.87-13.78-12.72,4.75-22.64,14.8-31.83,24.8-1.69,1.84-3.44,3.74-5.74,4.7-2.6,1.09-5.55.83-8.35.49-30.23-3.74-59.35-16.08-83.06-35.19-3.23-2.6-6.56-5.42-10.62-6.23-3.21-.64-6.52.04-9.66.95-3.08.89-6.1,1.99-9.03,3.31-7.2-9.55-13.3-19.79-18.16-30.57,6.61-3.19,13.79-5.16,21.12-5.64,3.53-.23,7.17-.12,10.43,1.26,4.08,1.74,7.08,5.25,10.15,8.46,15.21,15.92,35.12,26.36,54.64,36.53,6.36,3.3,13.01,6.69,20.18,6.75,18.24.16,29.4-19.9,45.63-28.23,6.14-3.15,12.99-4.58,19.76-5.91,10.67-2.1,21.84-4.04,32.26-.95,18.36,5.43,29.57,24.89,47.55,31.49,12.36,4.53,26.45,2.23,38.25-3.63,11.79-5.86,21.63-14.97,30.81-24.41,4.4-4.53,9.14-9.41,15.36-10.46,2.73-.46,5.34-.14,7.79.75Z"/><path class="cls-4" d="M399.06,426.83c0,23.78-5.72,46.41-16.03,66.88-2.45-.89-5.06-1.21-7.79-.75-6.22,1.05-10.96,5.93-15.36,10.46-9.18,9.44-19.02,18.55-30.81,24.41-11.8,5.86-25.89,8.16-38.25,3.63-17.98-6.6-29.19-26.06-47.55-31.49-10.42-3.09-21.59-1.15-32.26.95-6.77,1.33-13.62,2.76-19.76,5.91-16.23,8.33-27.39,28.39-45.63,28.23-7.17-.06-13.82-3.45-20.18-6.75-19.52-10.17-39.43-20.61-54.64-36.53-3.07-3.21-6.07-6.72-10.15-8.46-3.26-1.38-6.9-1.49-10.43-1.26-7.33.48-14.51,2.45-21.12,5.64-8.5-18.86-13.16-39.39-13.16-60.87,0,3.31,3,6.51,8.57,9.52,16.71,9.02,56.56,16.34,107.92,20.01,23.05,1.65,48.43,2.56,75.07,2.56s52.02-.91,75.07-2.56c51.36-3.67,91.21-10.99,107.92-20.01,5.57-3.01,8.57-6.21,8.57-9.52Z"/><path class="cls-1" d="M415,425.22c0,5-3.25,9.83-9.28,14.37-18.1,13.62-61.27,24.67-116.9,30.21-24.97,2.49-52.45,3.86-81.32,3.86s-56.35-1.37-81.32-3.86c-55.63-5.54-98.8-16.59-116.9-30.21-6.03-4.54-9.28-9.37-9.28-14.37,0-3.16,1.29-6.25,3.77-9.24,3.73-4.53,10.15-8.82,18.85-12.79h.01c16.89,7.7,42.35,14.22,73.46,18.84,32.18,4.8,70.41,7.58,111.41,7.58s79.22-2.78,111.4-7.58c31.11-4.62,56.59-11.14,73.46-18.84h.02c8.7,3.97,15.12,8.27,18.85,12.79,2.48,2.99,3.77,6.08,3.77,9.24Z"/><path class="cls-4" d="M399.06,426.83c0,3.31-3,6.51-8.57,9.52-16.71,9.02-56.56,16.34-107.92,20.01-23.05,1.65-48.42,2.56-75.07,2.56s-52.02-.91-75.07-2.56c-51.36-3.67-91.21-10.99-107.92-20.01-5.57-3.01-8.57-6.21-8.57-9.52,0-2.09,1.19-4.14,3.48-6.12,3.44-3,9.37-5.84,17.4-8.47h.01c15.59,5.1,39.1,9.42,67.82,12.48,29.71,3.18,65,5.02,102.85,5.02s73.13-1.84,102.84-5.02c28.72-3.06,52.24-7.38,67.82-12.48h.02c8.03,2.63,13.96,5.48,17.4,8.47,2.29,1.98,3.48,4.03,3.48,6.12Z"/><path class="cls-1" d="M415,395.6c0,5-3.25,9.83-9.28,14.37-18.1,13.62-61.27,24.67-116.9,30.21-24.97,2.49-52.45,3.86-81.32,3.86s-56.35-1.37-81.32-3.86c-55.63-5.54-98.8-16.59-116.9-30.21-6.03-4.54-9.28-9.37-9.28-14.37,0-3.16,1.29-6.25,3.77-9.24,3.73-4.53,10.15-8.82,18.85-12.79h.01c16.89,7.7,42.35,14.22,73.46,18.84,32.18,4.8,70.41,7.58,111.41,7.58s79.22-2.78,111.4-7.58c31.11-4.62,56.59-11.14,73.46-18.84h.02c8.7,3.97,15.12,8.27,18.85,12.79,2.48,2.99,3.77,6.08,3.77,9.24Z"/><path class="cls-1" d="M339.12,248.21c-6.43,1.23-13.18,2.37-20.22,3.42-32.18,4.8-70.4,7.58-111.4,7.58s-79.23-2.78-111.41-7.58c-7.03-1.05-13.78-2.19-20.21-3.42.27-1.19.56-2.36.86-3.54,1.62-6.42,3.5-12.68,5.62-18.76.32-.92.65-1.85.99-2.76,13.15,2.3,27.52,4.25,42.83,5.77,24.97,2.49,52.46,3.87,81.32,3.87s56.35-1.38,81.32-3.87c15.31-1.52,29.68-3.47,42.83-5.77.33.92.66,1.84.98,2.76,2.13,6.08,4.01,12.34,5.62,18.76.3,1.17.59,2.35.87,3.54Z"/><path class="cls-1" d="M324.11,205.16c-11.04,1.76-22.86,3.27-35.29,4.51-24.97,2.49-52.45,3.86-81.32,3.86s-56.35-1.37-81.32-3.86c-12.43-1.24-24.25-2.75-35.29-4.51.3-.65.61-1.3.93-1.94,1.33-2.73,2.72-5.41,4.16-8.03,1.22-2.23,2.48-4.41,3.78-6.56.74-1.23,1.49-2.46,2.26-3.66.17-.27.35-.54.52-.81.41-.64.82-1.27,1.25-1.9.76-1.15,1.53-2.29,2.32-3.42,3.45-5,7.12-9.74,10.99-14.2,27.32,3.1,58,4.84,90.4,4.84s63.08-1.74,90.4-4.84c1.73,1.99,3.42,4.04,5.08,6.15,1.33,1.7,2.64,3.44,3.92,5.21,1.25,1.74,2.47,3.5,3.67,5.3.22.31.43.63.64.95.43.63.84,1.27,1.24,1.91.53.83,1.06,1.66,1.58,2.51,3.28,5.28,6.34,10.81,9.14,16.56.32.64.63,1.28.94,1.93Z"/><path class="cls-4" d="M379.44,327.61c-15.92,5.49-36.56,10.18-60.54,13.74-32.18,4.8-70.4,7.58-111.4,7.58s-79.23-2.78-111.41-7.58c-23.98-3.56-44.6-8.25-60.53-13.74.65-1.02,1.31-2.02,1.99-3.02,3.76-5.56,7.98-10.9,12.6-16.01.71-.79,1.44-1.58,2.18-2.35,20.23,5.32,45.41,9.59,73.85,12.42,24.97,2.49,52.46,3.86,81.32,3.86s56.35-1.37,81.32-3.86c28.44-2.83,53.62-7.1,73.85-12.42.74.77,1.46,1.55,2.17,2.34,4.63,5.11,8.84,10.46,12.61,16.02.68,1,1.34,2,1.99,3.02Z"/><path class="cls-1" d="M362.67,306.23c-20.23,5.32-45.41,9.59-73.85,12.42-24.97,2.49-52.45,3.86-81.32,3.86s-56.35-1.37-81.32-3.86c-28.44-2.83-53.62-7.1-73.85-12.42,5.09-5.41,10.65-10.54,16.64-15.36.33-.26.66-.53.99-.79.02-.35.04-.71.06-1.06,8.15,1.68,16.86,3.22,26.07,4.58,32.18,4.81,70.41,7.58,111.41,7.58s79.22-2.77,111.4-7.58c9.21-1.36,17.93-2.9,26.07-4.58.02.35.04.71.06,1.06.33.26.66.53.99.8,5.99,4.81,11.56,9.94,16.65,15.35Z"/><path class="cls-4" d="M344.97,289.02c-8.14,1.68-16.86,3.22-26.07,4.58-3.53.53-7.14,1.03-10.82,1.51-6,.78-12.18,1.49-18.53,2.13h-.02c-25.16,2.54-52.89,3.94-82.03,3.94-41,0-79.23-2.77-111.41-7.58-9.21-1.36-17.92-2.9-26.07-4.58.11-2.04.25-4.07.43-6.09.2-2.64.46-5.26.77-7.87.19-1.63.39-3.25.61-4.86.09-.72.19-1.45.3-2.17.05-.42.11-.84.18-1.26.24-1.57.49-3.14.76-4.7.8-4.69,1.74-9.31,2.81-13.86,6.43,1.23,13.18,2.37,20.21,3.42,32.18,4.8,70.41,7.58,111.41,7.58s79.22-2.78,111.4-7.58c7.04-1.05,13.79-2.19,20.22-3.42.85,3.63,1.62,7.31,2.31,11.03.46,2.49.88,4.99,1.26,7.52.06.42.12.84.18,1.26h0c.13.88.25,1.75.36,2.62.4,2.96.74,5.95,1.02,8.96.3,3.11.54,6.26.72,9.42Z"/><path class="cls-4" d="M331.65,223.15c-13.15,2.3-27.52,4.25-42.83,5.77-24.97,2.49-52.45,3.87-81.32,3.87s-56.35-1.38-81.32-3.87c-15.31-1.52-29.68-3.47-42.83-5.77,2.26-6.2,4.78-12.21,7.54-17.99,11.04,1.76,22.86,3.27,35.29,4.51,24.97,2.49,52.46,3.86,81.32,3.86s56.35-1.37,81.32-3.86c12.43-1.24,24.25-2.75,35.29-4.51,2.76,5.78,5.27,11.79,7.54,17.99Z"/><path class="cls-4" d="M297.9,164.64c-27.32,3.1-57.99,4.84-90.4,4.84s-63.08-1.74-90.4-4.84c6.72-7.76,14.01-14.67,21.78-20.6,21.48,1.76,44.57,2.72,68.62,2.72s47.14-.96,68.62-2.72c7.77,5.93,15.06,12.84,21.78,20.6Z"/><path class="cls-1" d="M276.12,144.04c-21.48,1.76-44.57,2.72-68.62,2.72s-47.14-.96-68.62-2.72c5.38-4.11,10.99-7.74,16.79-10.87.77-.42,1.54-.82,2.32-1.22-3.84-3-7.11-6.36-9.72-9.98-4.38-6.12-6.84-13.01-6.84-20.29,0-17.86,14.8-33.33,36.37-40.85,8.93,3.11,19.02,4.87,29.7,4.87s20.76-1.75,29.69-4.87c21.58,7.52,36.37,22.99,36.37,40.85,0,7.97-2.95,15.47-8.14,22-2.36,2.97-5.19,5.75-8.42,8.27,2.2,1.12,4.37,2.32,6.51,3.6,4.33,2.54,8.54,5.38,12.61,8.49Z"/><path class="cls-1" d="M395.69,364.98c-1.62.81-3.33,1.61-5.13,2.39-6.46,2.82-14.09,5.47-22.73,7.92-7.83,2.22-16.5,4.28-25.89,6.14-15.83,3.16-33.72,5.76-53.12,7.69-1.61.16-3.22.31-4.85.46-7.5.7-15.22,1.3-23.12,1.78-17.02,1.06-34.9,1.62-53.35,1.62-8.93,0-17.73-.13-26.36-.38-9.69-.29-19.18-.73-28.4-1.33-9.12-.57-17.99-1.3-26.56-2.15-5.84-.58-11.55-1.22-17.11-1.92-13.41-1.69-25.94-3.72-37.38-6.04-19.82-4.01-36.36-8.88-48.54-14.36-1.33-.6-2.61-1.21-3.84-1.82.9-3.64,1.97-7.23,3.21-10.77,1.13-3.22,2.39-6.4,3.8-9.53,2.62-5.87,5.71-11.57,9.24-17.07,15.93,5.49,36.55,10.18,60.53,13.74,32.18,4.8,70.41,7.58,111.41,7.58s79.22-2.78,111.4-7.58c23.98-3.56,44.62-8.25,60.54-13.74,3.53,5.5,6.62,11.2,9.24,17.07,1.55,3.46,2.94,6.98,4.15,10.56,1.1,3.2,2.05,6.45,2.86,9.74Z"/><path class="cls-4" d="M273.56,19.98c0,17.86-14.79,33.33-36.37,40.85-8.93,3.12-19.01,4.87-29.69,4.87s-20.77-1.76-29.7-4.87c-21.57-7.52-36.37-22.99-36.37-40.85,0-2.74.35-5.42,1.02-8.03,5.5,4.57,32.53,8.03,65.05,8.03s59.54-3.46,65.04-8.03c.67,2.61,1.02,5.29,1.02,8.03Z"/><path class="cls-5" d="M272.54,11.95c-5.5,4.57-32.52,8.03-65.04,8.03s-59.55-3.46-65.05-8.03c.37-1.48.85-2.93,1.44-4.35,7.81-4.1,33.33-7.1,63.61-7.1s55.81,3,63.61,7.1c.58,1.42,1.06,2.87,1.43,4.35Z"/><path class="cls-2" d="M273.56,10.24c0,.59-.35,1.16-1.02,1.71-5.5,4.57-32.52,8.03-65.04,8.03s-59.55-3.46-65.05-8.03c-.67-.55-1.02-1.12-1.02-1.71,0-.92.86-1.8,2.46-2.64,7.81-4.1,33.33-7.1,63.61-7.1s55.81,3,63.61,7.1c1.6.84,2.45,1.73,2.45,2.64Z"/><circle class="cls-2" cx="130.12" cy="506.71" r="11.54"/><circle class="cls-2" cx="221.53" cy="551.08" r="11.54"/><circle class="cls-2" cx="308.16" cy="502.22" r="11.54"/><path class="cls-2" d="M92.56,554.48c0,1.8-.41,3.51-1.15,5.02-.72-.47-1.44-.95-2.15-1.44-5.57-3.8-10.88-7.87-15.92-12.18,2.04-1.83,4.73-2.94,7.68-2.94,6.37,0,11.54,5.17,11.54,11.54Z"/><path class="cls-2" d="M90.16,384.49c-8.53-1.36-16.6-2.87-24.14-4.52-1.97-2.03-4.03-3.96-6.41-5.52-4.8-3.14-10.32-5.1-16.01-5.78-4.74-.57-9.52-.3-14.08.78-3.28-1.26-6.31-2.57-9.08-3.91.62-2.21,1.32-4.4,2.08-6.57,6.12-2.02,12.63-2.87,19.1-2.47,7.21.45,14.24,2.27,20.65,5.61,7.3,3.79,12.12,9.84,17.93,15.43,2.95,2.84,6.35,5.08,9.96,6.95Z"/><path class="cls-2" d="M275.92,390.28c-8.16.67-16.55,1.22-25.14,1.64-3.34-1.15-6.75-2.05-10.26-2.56-8.42-1.21-17.14-.3-25.48,1.09-4.78.8-9.64,1.59-14.52,2.5-13.29-.1-26.26-.49-38.8-1.16,4.62-2.03,9.32-3.83,14.25-5.26,16.15-4.69,33.66-8.34,50.45-9.47,17.6-1.19,32.67,4.59,48.06,12.48.48.25.96.49,1.44.74Z"/><path class="cls-2" d="M394.57,365.53c-11.37,5.51-27.09,10.44-46.11,14.55,1.58-1.45,3.17-2.87,4.79-4.21,11.07-9.16,23.57-14.92,38.04-15.8.51-.03,1.03-.06,1.54-.07.63,1.83,1.21,3.67,1.74,5.53Z"/><circle class="cls-3" cx="130.12" cy="502.22" r="11.54"/><circle class="cls-3" cx="221.53" cy="546.6" r="11.54"/><circle class="cls-3" cx="308.16" cy="497.74" r="11.54"/><path class="cls-3" d="M92.56,549.99c0,3.15-1.25,5.99-3.3,8.07-6.37-4.35-12.41-9.05-18.09-14.07,2.03-3.32,5.68-5.54,9.85-5.54,6.37,0,11.54,5.17,11.54,11.54Z"/><path class="cls-3" d="M109.07,387.2c-13.41-1.69-25.94-3.72-37.38-6.04-3.96-3.92-7.4-8.41-12.08-11.47-4.8-3.14-10.32-5.1-16.01-5.78-7.01-.84-14.11.15-20.45,2.89-1.33-.6-2.61-1.21-3.84-1.82.9-3.64,1.97-7.23,3.21-10.77,6.12-2.02,12.63-2.87,19.1-2.47,7.21.45,14.24,2.27,20.65,5.61,7.3,3.79,12.12,9.84,17.93,15.43,5.64,5.44,12.93,8.66,20.19,11.37,2.87,1.07,5.77,2.09,8.68,3.05Z"/><path class="cls-2" d="M399.06,392.63c0,1.38-.02,2.75-.07,4.12v.02c-.03.76-.07,1.52-.11,2.27h0c-.29,1.13-.91,2.23-1.87,3.32-3.08,3.5-9.54,6.83-18.83,9.88h-.02c-15.58,5.1-39.1,9.42-67.82,12.48-29.71,3.18-64.99,5.02-102.84,5.02s-73.14-1.84-102.85-5.02c-28.72-3.06-52.23-7.38-67.82-12.48h-.01c-9.28-3.05-15.75-6.37-18.83-9.88-.96-1.09-1.58-2.19-1.87-3.31h0c-.04-.76-.08-1.52-.11-2.28v-.02c-.05-1.37-.07-2.74-.07-4.12,0-9.45,1.16-18.7,3.37-27.65.37.19.75.37,1.13.56,2.77,1.34,5.8,2.65,9.08,3.91,10.03,3.9,22.34,7.44,36.5,10.52,7.54,1.65,15.61,3.16,24.14,4.52,11.26,1.81,23.31,3.37,36.02,4.63,11.36,1.13,23.24,2.03,35.54,2.67,12.54.67,25.51,1.06,38.8,1.16,2.32.02,4.64.03,6.98.03,14.85,0,29.33-.36,43.28-1.06,8.59-.42,16.98-.97,25.14-1.64,4.37-.35,8.67-.74,12.9-1.16,22.12-2.2,42.26-5.27,59.64-9.04,19.02-4.11,34.74-9.04,46.11-14.55.38-.18.75-.37,1.12-.55,2.21,8.95,3.37,18.2,3.37,27.65Z"/><path class="cls-3" d="M283.97,389.58c-7.5.7-15.22,1.3-23.12,1.78-6.47-3.08-13.21-5.73-20.33-6.76-8.42-1.21-17.14-.3-25.48,1.09-11.17,1.86-22.8,3.73-33.9,6.91-9.69-.29-19.18-.73-28.4-1.33,7.56-3.76,15.08-7.14,23.23-9.5,16.15-4.69,33.66-8.34,50.45-9.47,17.6-1.19,32.67,4.59,48.06,12.48,3.07,1.58,6.24,3.23,9.49,4.8Z"/><path class="cls-3" d="M395.69,364.98c-1.62.81-3.33,1.61-5.13,2.39-2.95.23-5.89.74-8.81,1.51-5.15,1.37-9.7,3.63-13.92,6.41-7.83,2.22-16.5,4.28-25.89,6.14,3.81-3.53,7.49-7.16,11.31-10.32,11.07-9.16,23.57-14.92,38.04-15.8.51-.03,1.03-.06,1.54-.07,1.1,3.2,2.05,6.45,2.86,9.74Z"/><path class="cls-2" d="M344.25,279.6c-4.05,1.06-7.84,2.37-10.69,3.21-6.18,1.81-11.82,4.24-17.24,7.64-2.71,1.7-5.39,3.36-8.24,4.66-2.16.97-4.41,1.73-6.86,2.14-3.94.65-7.84.55-11.67-.01h-.02c-7.16-1.06-14.12-3.76-20.85-6.35-10.39-3.99-20.61-6.75-31.88-5.85-11.72.94-22.54,6.2-33.94,8.66-10.99,2.38-22.36,3.39-33.61,2.9-11.23-.49-22.51-2.36-33.22-5.7-10.44-3.26-20.35-7.96-31.18-9.91-11.51-2.06-23.31-1.27-34.4,1.94.2-2.64.46-5.26.77-7.87.19-1.63.39-3.25.61-4.86,12.1-2.72,24.78-2.98,37.07-.64,11.74,2.24,22.45,7.62,33.9,10.81,11.61,3.23,23.59,4.65,35.65,4.3,12.15-.35,23.8-2.77,35.31-6.47,11.46-3.68,22.83-6.26,34.96-4.97,11.82,1.26,22.02,6.09,33.12,9.77,5.62,1.86,12.01,3.64,17.95,2.34,5.46-1.19,9.83-5.21,14.62-7.81,8.75-4.73,18.71-7.41,28.46-9.51h0c.13.88.25,1.75.36,2.62.4,2.96.74,5.95,1.02,8.96Z"/><path class="cls-3" d="M343.23,270.64c-4.62,1.13-9.05,2.72-12.25,3.68-6.05,1.81-11.58,4.24-16.89,7.64-4.66,2.99-9.23,5.86-14.79,6.8-11.09,1.86-21.76-2.39-31.88-6.36-10.17-3.99-20.18-6.75-31.22-5.85-11.48.94-22.08,6.2-33.25,8.66-10.77,2.38-21.9,3.39-32.92,2.9-11.01-.49-22.05-2.36-32.55-5.7-10.22-3.26-19.93-7.96-30.54-9.91-11.98-2.19-24.27-1.16-35.72,2.56.27-2.36.57-4.7.91-7.03.05-.42.11-.84.18-1.26.24-1.57.49-3.14.76-4.7,12.31-3.05,25.28-3.44,37.84-1,11.5,2.24,21.99,7.62,33.21,10.81,11.37,3.23,23.1,4.65,34.92,4.3,11.9-.35,23.31-2.77,34.59-6.47,11.22-3.68,22.36-6.26,34.24-4.97,11.58,1.26,21.57,6.09,32.45,9.77,5.5,1.86,11.76,3.64,17.58,2.34,5.35-1.19,9.63-5.21,14.32-7.81,8.97-4.95,19.24-7.66,29.21-9.8.46,2.49.88,4.99,1.26,7.52.06.42.12.85.18,1.27.13.87.25,1.74.36,2.61Z"/><path class="cls-2" d="M314.03,186.67c-9.65,2.14-19.57,4.46-28.4,8.72-8.27,3.99-15.06,10.17-24.32,12.26-9.2,2.08-18.8,1.09-28.04-.22-10.06-1.43-19.95-3.84-29.48-7.21-9.25-3.26-17.54-8.24-27.74-7.68-19.43,1.07-37.45,10.1-57.22,9.12-8.49-.42-16.29-2.6-22.85-6.47,1.22-2.23,2.48-4.41,3.78-6.56.74-1.23,1.49-2.46,2.26-3.66,11.44,6.73,28.22,4.8,41.17,1.84,9.89-2.27,19.66-4.96,29.82-6.01,9.84-1.01,17.86,1.23,26.72,4.96,9.05,3.81,18.54,6.66,28.22,8.61,9.22,1.85,19.67,3.68,29.05,1.89,9.22-1.76,16.21-8.66,24.61-12.33,8.11-3.55,16.65-5.86,25.29-7.93,1.25,1.74,2.47,3.5,3.67,5.3.22.31.43.63.64.95.43.63.84,1.27,1.24,1.91.53.83,1.06,1.66,1.58,2.51Z"/><path class="cls-3" d="M310.57,181.3c-.35.08-.71.16-1.06.24-9.7,2.29-19.8,4.63-28.71,9.2-7.77,3.99-14.16,10.17-22.86,12.26-8.65,2.08-17.67,1.09-26.36-.22-9.45-1.43-18.75-3.84-27.71-7.21-8.69-3.26-16.48-8.24-26.07-7.68-18.27,1.07-35.2,10.1-53.79,9.12-9.21-.49-17.55-3.31-24.25-8.38.9-1.51,1.83-3,2.78-4.47.41-.64.82-1.27,1.25-1.9.76-1.15,1.53-2.29,2.32-3.42,10.71,8.46,27.81,6.48,40.8,3.32,9.3-2.27,18.48-4.96,28.03-6.01,9.25-1.01,16.79,1.23,25.12,4.96,8.5,3.81,17.42,6.66,26.52,8.61,8.67,1.85,18.49,3.68,27.31,1.89,8.67-1.76,15.24-8.66,23.13-12.33,7.96-3.71,16.38-6.06,24.86-8.21.37-.09.73-.19,1.1-.28,2.64,3.37,5.17,6.87,7.59,10.51Z"/><ellipse class="cls-2" cx="52.33" cy="322.14" rx="7.7" ry="5.11"/><ellipse class="cls-2" cx="74.11" cy="328.32" rx="7.7" ry="5.11"/><ellipse class="cls-2" cx="110.13" cy="333.2" rx="7.7" ry="5.11"/><ellipse class="cls-2" cx="155.71" cy="336.53" rx="7.7" ry="5.11"/><ellipse class="cls-2" cx="206.14" cy="338.1" rx="7.7" ry="5.11"/><ellipse class="cls-2" cx="256.74" cy="337.67" rx="7.7" ry="5.11"/><ellipse class="cls-2" cx="302.83" cy="335.02" rx="7.7" ry="5.11"/><ellipse class="cls-2" cx="339.7" cy="329.92" rx="7.7" ry="5.11"/><ellipse class="cls-2" cx="362.67" cy="322.14" rx="7.7" ry="5.11"/><ellipse class="cls-3" cx="52.33" cy="319.11" rx="7.7" ry="5.11"/><ellipse class="cls-3" cx="74.11" cy="325.3" rx="7.7" ry="5.11"/><ellipse class="cls-3" cx="110.13" cy="330.17" rx="7.7" ry="5.11"/><ellipse class="cls-3" cx="155.71" cy="333.5" rx="7.7" ry="5.11"/><ellipse class="cls-3" cx="206.14" cy="335.07" rx="7.7" ry="5.11"/><ellipse class="cls-3" cx="256.74" cy="334.64" rx="7.7" ry="5.11"/><ellipse class="cls-3" cx="302.83" cy="331.99" rx="7.7" ry="5.11"/><ellipse class="cls-3" cx="339.7" cy="326.89" rx="7.7" ry="5.11"/><ellipse class="cls-3" cx="362.67" cy="319.11" rx="7.7" ry="5.11"/><ellipse class="cls-2" cx="98.66" cy="217.46" rx="5.39" ry="2.64"/><ellipse class="cls-2" cx="113.9" cy="220.66" rx="5.39" ry="2.64"/><ellipse class="cls-2" cx="139.11" cy="223.18" rx="5.39" ry="2.64"/><ellipse class="cls-2" cx="170.99" cy="224.9" rx="5.39" ry="2.64"/><ellipse class="cls-2" cx="206.27" cy="225.71" rx="5.39" ry="2.64"/><ellipse class="cls-2" cx="241.68" cy="225.49" rx="5.39" ry="2.64"/><ellipse class="cls-2" cx="273.92" cy="224.12" rx="5.39" ry="2.64"/><ellipse class="cls-2" cx="299.72" cy="221.48" rx="5.39" ry="2.64"/><ellipse class="cls-2" cx="315.79" cy="217.46" rx="5.39" ry="2.64"/><ellipse class="cls-3" cx="98.66" cy="214.82" rx="5.39" ry="2.64"/><ellipse class="cls-3" cx="113.9" cy="218.02" rx="5.39" ry="2.64"/><ellipse class="cls-3" cx="139.11" cy="220.54" rx="5.39" ry="2.64"/><ellipse class="cls-3" cx="170.99" cy="222.26" rx="5.39" ry="2.64"/><ellipse class="cls-3" cx="206.27" cy="223.07" rx="5.39" ry="2.64"/><ellipse class="cls-3" cx="241.68" cy="222.85" rx="5.39" ry="2.64"/><ellipse class="cls-3" cx="273.92" cy="221.48" rx="5.39" ry="2.64"/><ellipse class="cls-3" cx="299.72" cy="218.84" rx="5.39" ry="2.64"/><ellipse class="cls-3" cx="315.79" cy="214.82" rx="5.39" ry="2.64"/><circle class="cls-2" cx="207.5" cy="107.02" r="26.21"/><circle class="cls-2" cx="207.5" cy="91.91" r="26.21"/><ellipse class="cls-3" cx="207.5" cy="99.19" rx="40.1" ry="26.21"/></g></svg>