<?xml version="1.0" encoding="UTF-8"?><svg id="Layer_2" xmlns="http://www.w3.org/2000/svg" viewBox="0 0 432.59 546.36"><defs><style>.cls-1{fill:#be5c1e;}.cls-1,.cls-2,.cls-3,.cls-4{stroke-width:0px;}.cls-2{fill:#fff;}.cls-3{fill:#8e2713;}.cls-4,.cls-5{fill:#d58b59;}.cls-5{stroke:#be5c1e;stroke-miterlimit:10;stroke-width:3px;}</style></defs><g id="_Слой_2_копия3_"><path class="cls-4" d="M344.28,243.78c0,35.44-18.92,67.22-48.88,88.84h-.01c-8.95,6.47-18.87,12.02-29.58,16.49-.01,0-.02.01-.03.02-19.34,8.06-41.2,12.61-64.35,12.61s-44.2-4.38-63.27-12.18h0c-11.38-4.65-21.9-10.51-31.32-17.4-22.17-16.18-38.2-37.97-44.85-62.68,9.96,18.68,27.48,31.08,47.43,31.08,5.77,0,11.33-1.04,16.57-2.96,11.21,20.92,40.66,35.85,75.22,35.85,44.22,0,115.77-67.54,115.77-97.69,0-7.99-5.03-12.55-13.24-14.94,12.86-.48,24.97-3.07,35.79-7.33,3.11,9.67,4.76,19.82,4.76,30.29Z"/><path class="cls-4" d="M427.91,64.9c-19.71,8.77-33.95,33.91-33.95,63.57v23.5c0,25.9-19.3,48.37-47.54,59.48-10.82,4.26-22.93,6.85-35.79,7.33h-.01c-.69-.2-1.41-.39-2.15-.56-.28-.07-.57-.13-.87-.19-.2-.05-.41-.09-.62-.13-.64-.13-1.29-.25-1.97-.36-.02,0-.05,0-.09-.01-.19-.03-.39-.06-.59-.09-.17-.03-.35-.05-.53-.08-.2-.03-.4-.05-.61-.08-.25-.04-.51-.07-.77-.1-.42-.05-.85-.1-1.29-.14-.43-.05-.87-.09-1.32-.13-.38-.03-.77-.06-1.16-.09-.41-.03-.84-.06-1.26-.09-.1,0-.2-.01-.3-.02-.26-.01-.51-.02-.77-.04-.09,0-.18,0-.27-.01-.04,0-.09,0-.13-.01-.08,0-.15,0-.23-.01-.14,0-.27,0-.41,0-1.65-.07-3.35-.1-5.1-.11h-.72c-.67,0-1.35.01-2.04.02-.33.01-.67.01-1,.02-.88.02-1.76.04-2.66.07h-.02c-7.61-1.53-14.8-3.83-21.45-6.78-7.46-3.31-14.23-7.43-20.08-12.21-14.65-11.95-23.63-28.01-23.63-45.67v-23.5c0-1.47-.04-2.93-.1-4.38-.57-11.81-3.39-22.79-7.9-32.14-4.37-9.08-10.32-16.63-17.33-21.93-3.54-2.68-7.35-4.78-11.36-6.22,19.83,4.28,68.77,7.31,126,7.31,52.13,0,97.38-2.52,120.02-6.21Z"/><path class="cls-4" d="M158.4,100.73c4.1,8.34,6.4,17.73,6.4,27.66,0,.32,0,.64-.01.95-.3,20.11-10.04,37.93-24.99,49.21-1.76,1.34-3.6,2.57-5.5,3.72-1,.6-2.03,1.18-3.08,1.73-4.17,2.2-8.62,3.95-13.29,5.16-5.09,1.34-10.44,2.05-15.95,2.05-9.4,0-18.31-2.06-26.31-5.76-1.57-.72-3.11-1.51-4.61-2.37-10.08-5.71-18.43-14.12-24.05-24.26-5.01-9.01-7.85-19.39-7.85-30.43,0-6.48.98-12.73,2.8-18.61,5.09-16.42,16.74-29.97,31.88-37.57-4.53-1.47-8.64-3.3-12.19-5.42-9-5.34-14.51-12.53-14.51-20.44v-10.52c0-.65-.03-1.31-.06-1.96-.35-5.28-2.08-10.2-4.85-14.38-2.69-4.07-6.34-7.45-10.65-9.82-2.17-1.2-4.51-2.14-6.97-2.78,12.18,1.91,42.23,3.27,77.37,3.27,32.01,0,59.8-1.13,73.7-2.78-12.1,3.92-20.85,15.18-20.85,28.45v10.52c0,10.76-10.2,20.19-25.52,25.47,1.58.76,3.12,1.59,4.62,2.48,4.8,2.83,9.18,6.28,13.04,10.25,4.61,4.73,8.48,10.18,11.43,16.18Z"/><path class="cls-4" d="M162.66,99.71c4.1,8.34,6.4,17.73,6.4,27.66,0,.32,0,.64-.01.95-.3,20.11-10.04,37.93-24.99,49.21-1.76,1.34-3.6,2.57-5.5,3.72-1,.6-2.03,1.18-3.08,1.73-4.17,2.2-8.62,3.95-13.29,5.16-5.09,1.34-10.44,2.05-15.95,2.05-9.4,0-18.31-2.06-26.31-5.76-1.57-.72-3.11-1.51-4.61-2.37-10.08-5.71-18.43-14.12-24.05-24.26-5.01-9.01-7.85-19.39-7.85-30.43,0-6.48.98-12.73,2.8-18.61,5.09-16.42,16.74-29.97,31.88-37.57-4.53-1.47-8.64-3.3-12.19-5.42-9-5.34-14.51-12.53-14.51-20.44v-10.52c0-.65-.03-1.31-.06-1.96-.35-5.28-2.08-10.2-4.85-14.38-2.69-4.07-6.34-7.45-10.65-9.82-2.17-1.2-4.51-2.14-6.97-2.78,12.18,1.91,42.23,3.27,77.37,3.27,32.01,0,59.8-1.13,73.7-2.78-12.1,3.92-20.85,15.18-20.85,28.45v10.52c0,10.76-10.2,20.19-25.52,25.47,1.58.76,3.12,1.59,4.62,2.48,4.8,2.83,9.18,6.28,13.04,10.25,4.61,4.73,8.48,10.18,11.43,16.18Z"/><path class="cls-1" d="M176.38,226.29c-1.12.21-2.23.43-3.33.67-.99.21-1.97.44-2.93.68-.97.23-1.93.48-2.88.75-.89.24-1.77.5-2.64.77-.17.05-.34.1-.51.16-.82.25-1.63.52-2.44.79-.12-2.56-.36-5.08-.71-7.55,4.94,1.59,10.09,2.85,15.44,3.73Z"/><path class="cls-1" d="M273.01,218.79c-1.41.05-2.85.11-4.3.18-.01,0-.01,0-.01,0-2.83-.67-6.07-.96-9.5-.78-4.05.22-7.77,1.07-10.81,2.36h-.02c-3.78.35-7.61.73-11.42,1.11h0c-1.06-.28-2.18-.51-3.35-.67,6.48-2.42,12.51-5.44,17.97-8.98,6.65,2.95,13.84,5.25,21.45,6.78Z"/><path class="cls-2" d="M233.59,220.99c1.17.16,2.29.39,3.35.67-2.45.24-4.89.49-7.32.72-.01.01-.02.01-.03.01-2.54.25-5.08.48-7.59.7-1.25.11-2.5.22-3.74.31-1.25.1-2.48.2-3.7.28-.84.06-1.67.12-2.5.17-.78.05-1.57.1-2.34.14-1.68.1-3.33.18-4.95.25,0,0,0-.01,0,0-1.12.04-2.22.07-3.3.1-1.39.03-2.75.05-4.09.05-.88,0-1.76.01-2.64.03h-.1c-.69.02-1.38.04-2.07.07h-.02c-.35.01-.7.03-1.05.05-.49.02-.97.05-1.45.08-.22.01-.43.02-.65.04-.32.02-.65.05-.97.07-1.25.1-2.48.21-3.71.35h-.02c-.7.07-1.41.15-2.1.25-.6.07-1.19.15-1.79.24-1.48.21-2.95.45-4.4.72t-.02,0c-5.35-.88-10.5-2.14-15.44-3.73-1.32-9.3-4.24-17.95-8.44-25.52-.39-.73-.81-1.44-1.24-2.15,1.96.93,3.98,1.81,6.05,2.62,12.06,4.77,25.77,7.47,40.29,7.47,12.01,0,23.46-1.84,33.88-5.18,5.85,4.78,12.62,8.9,20.08,12.21-5.46,3.54-11.49,6.56-17.97,8.98Z"/><path class="cls-2" d="M268.7,218.97c-.81.04-1.63.09-2.45.14-.6.03-1.2.07-1.8.11-.59.04-1.18.07-1.77.12-1.3.09-2.62.19-3.95.29-.82.07-1.64.14-2.47.2-2.6.22-5.22.47-7.87.72,3.04-1.29,6.76-2.14,10.81-2.36,3.43-.18,6.67.11,9.5.78Z"/><path class="cls-1" d="M340.45,243.9c0,35.44-18.92,67.22-48.88,88.84h-.01c-8.95,6.47-18.87,12.02-29.58,16.49-.01,0-.02.01-.03.02-19.34,8.06-41.2,12.61-64.35,12.61s-44.2-4.38-63.27-12.18h0c-11.38-4.65-21.9-10.51-31.32-17.4-22.17-16.18-38.2-37.97-44.85-62.68,9.96,18.68,27.48,31.08,47.43,31.08,5.77,0,11.33-1.04,16.57-2.96,11.21,20.92,40.66,35.85,75.22,35.85,44.22,0,115.77-67.54,115.77-97.69,0-7.99-5.03-12.55-13.24-14.94,12.86-.48,24.97-3.07,35.79-7.33,3.11,9.67,4.76,19.82,4.76,30.29Z"/><path class="cls-2" d="M430.36,63.8c-2.48,1.16-6.98,2.26-13.18,3.26,4.17-1.86,8.59-2.99,13.18-3.26Z"/><path class="cls-3" d="M432.59,61.7c0,.72-.76,1.42-2.23,2.1-2.48,1.16-6.98,2.26-13.18,3.26-22.64,3.69-67.89,6.21-120.02,6.21-57.23,0-106.17-3.03-126-7.31t-.02-.01h-.02c-2.33-.51-4.26-1.03-5.75-1.57h-.01c-2.37-.86-3.63-1.76-3.63-2.68,0-6.4,60.63-11.58,135.43-11.58s135.43,5.18,135.43,11.58Z"/><path class="cls-2" d="M157.31,197.51c-1.63-.05-3.23-.21-4.81-.47-.39-.73-.81-1.44-1.24-2.15,1.96.93,3.98,1.81,6.05,2.62Z"/><path class="cls-2" d="M171.12,65.95c-2.33-.51-4.26-1.03-5.75-1.57,1.95.36,3.87.89,5.75,1.57Z"/><path class="cls-1" d="M161.65,230.11c-1.64.56-3.25,1.15-4.83,1.79-4.73,1.89-9.15,4.11-13.19,6.61-.76.47-1.5.95-2.23,1.44-.57.37-1.13.76-1.68,1.15-.63.45-1.25.9-1.86,1.36-.59.44-1.17.9-1.73,1.35-.08.06-.15.12-.21.17-.53.44-1.06.88-1.57,1.33-.57.49-1.12.98-1.65,1.48-.51.48-1.01.96-1.5,1.45-.07.06-.13.12-.19.19-.43.44-.86.88-1.27,1.33-2.41,2.57-4.49,5.29-6.23,8.13-.43.69-.83,1.38-1.21,2.08-.1.17-.19.35-.28.52-.38.71-.74,1.44-1.07,2.17-.28.6-.54,1.22-.79,1.84-.19.46-.37.93-.53,1.39-.17.46-.33.93-.48,1.4-.45,1.41-.82,2.85-1.11,4.3-.1.48-.19.97-.26,1.45-.05.33-.1.66-.14,1-.04.28-.08.55-.1.83-.05.37-.08.75-.11,1.12-.04.5-.07.99-.09,1.49-.02.5-.03,1-.03,1.5,0,6.59,1.71,12.9,4.84,18.74-5.24,1.92-10.8,2.96-16.57,2.96-19.95,0-37.47-12.4-47.43-31.08-5.52-10.35-8.72-22.64-8.72-35.81,0-20.16,7.49-38.24,19.33-50.51,1.5.86,3.04,1.65,4.61,2.37,8,3.7,16.91,5.76,26.31,5.76,5.51,0,10.86-.71,15.95-2.05,4.67-1.21,9.12-2.96,13.29-5.16,1.05-.55,2.08-1.13,3.08-1.73,5.59,4.81,12.08,9,19.26,12.42.43.71.85,1.42,1.24,2.15,4.2,7.57,7.12,16.22,8.44,25.52.35,2.47.59,4.99.71,7.55Z"/><path class="cls-3" d="M251.56,212.01c-5.46,3.54-11.49,6.56-17.97,8.98,0,0,0-.01-.01,0-1.3.49-2.62.95-3.96,1.39-.01.01-.02.01-.03.01-2.54.25-5.08.48-7.59.7-1.25.11-2.5.22-3.74.31-1.25.1-2.48.2-3.7.28-.84.06-1.67.12-2.5.17-.78.05-1.57.1-2.34.14-1.68.1-3.33.18-4.95.25,0,0,0-.01,0,0-1.12.04-2.22.07-3.3.1-1.39.03-2.75.05-4.09.05-.88,0-1.76.01-2.64.03h-.1c-.69.02-1.38.04-2.07.07h-.02c-.35.01-.7.03-1.05.05-.49.02-.97.05-1.45.08-.22.01-.43.02-.65.04-.32.02-.65.05-.97.07-1.25.1-2.48.21-3.71.35h-.02c-.7.07-1.41.15-2.1.25-.6.07-1.19.15-1.79.24-1.48.21-2.95.45-4.4.72t-.02,0c-5.35-.88-10.5-2.14-15.44-3.73-1.32-9.3-4.24-17.95-8.44-25.52-.39-.73-.81-1.44-1.24-2.15,1.96.93,3.98,1.81,6.05,2.62,12.06,4.77,25.77,7.47,40.29,7.47,12.01,0,23.46-1.84,33.88-5.18,5.85,4.78,12.62,8.9,20.08,12.21Z"/><path class="cls-4" d="M313.14,235.88c0,.27,0,.55-.02.83,0,.13-.01.25-.02.38,0,.13-.01.26-.03.39-.01.19-.03.39-.05.58-.02.24-.05.49-.09.75,0,.05-.01.1-.02.15-.02.18-.05.37-.08.55-.04.23-.09.47-.13.71-.06.3-.12.61-.19.92h0c-.07.32-.14.63-.22.94s-.17.62-.26.94c-.11.41-.23.82-.36,1.23h0c-.13.42-.27.82-.42,1.23-6.84.51-12.65,2.83-15.66,5.92-1.49,1.53-2.29,3.25-2.2,5.03.03.53.14,1.04.31,1.53.3.83.8,1.61,1.48,2.34-.37,0-.75.02-1.13.04-7.17.38-13.31,2.76-16.44,5.97-.48.49-.89,1.01-1.22,1.54-.63.99-.97,2.04-.99,3.12-4.81.99-8.76,2.91-11.06,5.28-1.5,1.53-2.3,3.25-2.2,5.02.03.52.13,1.03.31,1.52.29.83.79,1.62,1.46,2.34-.37,0-.74.02-1.12.04-7.17.38-13.31,2.76-16.43,5.97-.5.5-.91,1.02-1.24,1.56-.62.99-.96,2.03-.97,3.1-4.8,1-8.76,2.92-11.07,5.29-1.49,1.53-2.29,3.24-2.2,5.02.03.52.13,1.02.31,1.51.29.83.79,1.62,1.46,2.34.53.58,1.18,1.13,1.92,1.63,2.79,1.87,6.96,3.13,11.75,3.44.17.01.35.02.53.03-.21.14-.41.27-.62.4-.08.06-.17.12-.25.17-.16.1-.32.2-.48.3-.16.11-.32.21-.48.3-.4.25-.8.5-1.2.75-1.21.76-2.43,1.49-3.64,2.19-.41.24-.81.47-1.21.7-.8.47-1.6.92-2.4,1.36-.53.29-1.05.57-1.57.85-1.05.56-2.1,1.1-3.14,1.63-.46.23-.92.46-1.38.68-.37.18-.73.36-1.1.53-.59.29-1.19.57-1.78.84-.24.11-.49.22-.73.33-.79.35-1.57.7-2.36,1.03-.53.23-1.06.45-1.59.67-.28.11-.56.22-.83.33-.37.15-.73.29-1.1.43h-.01s-.05.02-.08.03c-.79.3-1.57.59-2.36.87-.05.02-.09.03-.14.05-.34.12-.69.24-1.03.35-.7.24-1.4.47-2.1.69-1.51.47-3,.89-4.48,1.25-.5.12-.99.24-1.48.35-.38.09-.75.17-1.12.24-.38.08-.75.15-1.12.22-.37.07-.74.14-1.11.2-.3.05-.59.1-.89.14-.29.05-.57.09-.85.13-.42.06-.84.12-1.26.16-.23.03-.46.05-.69.08-.23.02-.46.05-.68.07h-.05c-.47.04-.94.08-1.41.1-.38.03-.76.05-1.14.06h-.04c-.1,0-.21,0-.32,0-.42.01-.84.02-1.26.02-.86,0-1.71-.01-2.56-.03-.52-.01-1.03-.02-1.54-.04-.09,0-.17-.01-.25-.01-.16-.01-.32-.01-.47-.02-.69-.03-1.37-.06-2.06-.1-.53-.03-1.07-.07-1.6-.11-.37-.02-.73-.05-1.09-.08-.04,0-.08-.01-.11-.01-1.32-.11-2.62-.24-3.91-.39-1.47-.17-2.93-.37-4.37-.6-.7-.11-1.4-.22-2.09-.34-.76-.14-1.5-.28-2.25-.43-.29-.05-.57-.1-.86-.16-.28-.06-.56-.12-.84-.19-.74-.15-1.47-.31-2.2-.48-.76-.18-1.51-.37-2.26-.56-.52-.14-1.03-.27-1.55-.42-.43-.12-.86-.24-1.28-.36-.49-.14-.98-.28-1.47-.44-.18-.05-.36-.11-.54-.16-.92-.29-1.83-.59-2.73-.9-.6-.2-1.19-.41-1.78-.63-.53-.19-1.05-.39-1.56-.58-.22-.09-.44-.18-.66-.26-.48-.19-.96-.38-1.43-.58-.6-.25-1.19-.5-1.77-.76-.54-.23-1.07-.47-1.59-.71-.05-.02-.11-.05-.16-.07-.58-.27-1.14-.55-1.71-.82-.57-.28-1.13-.56-1.68-.85-.38-.2-.75-.39-1.13-.59-.37-.2-.74-.41-1.11-.61-.37-.21-.73-.42-1.1-.62-.36-.21-.72-.42-1.08-.64-.35-.21-.71-.43-1.06-.65-.35-.21-.7-.43-1.04-.65-.7-.45-1.38-.9-2.04-1.36-.49-.34-.97-.67-1.44-1.02-.47-.34-.94-.68-1.4-1.04-.33-.25-.66-.51-.99-.77-.86-.68-1.69-1.37-2.5-2.09-.34-.3-.68-.6-1.02-.91-.37-.34-.74-.69-1.1-1.04-.29-.27-.58-.56-.86-.84-1.27-1.27-2.45-2.57-3.55-3.9-.24-.29-.47-.57-.7-.86-.47-.59-.93-1.2-1.37-1.81-.01-.01-.02-.03-.03-.04-.18-.26-.36-.51-.54-.77-.26-.37-.51-.74-.75-1.12-.24-.35-.46-.71-.68-1.07-.48-.78-.93-1.56-1.36-2.36-3.13-5.84-4.84-12.15-4.84-18.74,0-.5.01-1,.03-1.5.02-.5.05-.99.09-1.49.03-.37.06-.75.11-1.12.02-.28.06-.55.1-.83.04-.34.09-.67.14-1,.08-.49.16-.97.26-1.45.29-1.45.66-2.89,1.11-4.3.15-.47.31-.94.48-1.4.17-.47.34-.93.53-1.39.25-.62.51-1.24.79-1.84.34-.73.69-1.45,1.07-2.17.09-.17.18-.35.28-.52.38-.7.78-1.4,1.21-2.08,1.74-2.84,3.82-5.56,6.23-8.13.41-.45.84-.89,1.27-1.33.06-.07.12-.13.19-.19.49-.49.99-.97,1.5-1.45.53-.5,1.08-.99,1.65-1.48.51-.45,1.04-.89,1.57-1.33.06-.05.13-.11.21-.17.56-.45,1.14-.91,1.73-1.35.61-.46,1.23-.91,1.86-1.36.55-.39,1.11-.78,1.68-1.15.73-.49,1.47-.97,2.23-1.44,4.04-2.5,8.46-4.72,13.19-6.61,1.58-.64,3.19-1.23,4.83-1.79.81-.27,1.62-.54,2.44-.79.17-.06.34-.11.51-.16.87-.27,1.75-.52,2.64-.77.95-.26,1.91-.52,2.88-.75.97-.24,1.95-.47,2.93-.68,1.1-.24,2.21-.46,3.33-.67t.02,0c1.45-.27,2.92-.51,4.4-.72.6-.09,1.19-.17,1.79-.24.7-.09,1.4-.17,2.1-.25h.02c1.23-.14,2.46-.25,3.71-.35.32-.02.65-.05.97-.07.22-.02.43-.03.65-.04.48-.03.96-.06,1.45-.08.35-.02.7-.04,1.05-.05h.02c.69-.03,1.38-.05,2.07-.07h.1c.88-.02,1.76-.03,2.64-.03,1.34,0,2.7-.02,4.09-.05,1.08-.02,2.18-.06,3.3-.1,0-.01,0,0,0,0,1.62-.07,3.27-.15,4.95-.25.77-.04,1.56-.09,2.34-.14.83-.05,1.66-.11,2.5-.17,1.22-.08,2.45-.18,3.7-.28,1.24-.09,2.49-.2,3.74-.31,2.51-.22,5.05-.45,7.59-.7.01,0,.02,0,.03-.01,2.43-.23,4.87-.48,7.32-.72h0c3.81-.38,7.64-.76,11.42-1.11h.02c2.65-.25,5.27-.5,7.87-.72.83-.06,1.65-.13,2.47-.2,1.33-.1,2.65-.2,3.95-.29.59-.05,1.18-.08,1.77-.12.6-.04,1.2-.08,1.8-.11.82-.05,1.64-.1,2.45-.14,0,0,0,0,.01,0,1.45-.07,2.89-.13,4.3-.18h.02c.9-.03,1.78-.05,2.66-.07.33-.01.67-.01,1-.02.69-.01,1.37-.02,2.04-.02h.72c1.75.01,3.45.04,5.1.11.14,0,.28,0,.41,0,.08.01.15.01.23.01.04.01.09.01.13.01.09.01.18.01.27.01.26.02.51.03.77.04.07.01.14.01.21.02h.09c.43.03.85.06,1.26.09.39.03.78.06,1.16.09.45.04.89.08,1.32.13.44.04.87.09,1.29.14.26.03.52.06.77.1.2.03.41.05.61.08.18.03.36.05.53.08.2.03.4.06.59.09.04.01.07.01.09.01.68.11,1.33.23,1.97.36.21.04.42.08.62.13.3.06.59.12.87.19.74.17,1.45.36,2.15.56h.01c.34.1.68.2,1.01.31.17.05.33.11.49.17.14.05.29.1.43.15.22.08.44.16.65.24.28.1.55.21.81.33.27.11.53.22.78.34.25.12.5.24.74.35.25.14.5.26.74.4.23.13.46.26.68.4h.01c.23.14.45.28.66.42.06.04.12.08.17.12.16.1.31.21.47.33.2.15.41.3.6.46.19.15.37.31.55.47,0,.01.02.01.02.02.19.16.37.33.54.51.17.17.34.35.51.53.16.18.31.36.47.55.15.19.29.38.43.58.06.08.11.16.17.24.05.08.11.16.16.24.1.15.2.31.3.48,0,0,.01,0,.01.01.08.14.16.28.24.43.11.19.21.39.3.59.09.18.16.36.24.54.08.18.15.36.21.55.07.18.13.37.19.57.06.19.12.38.17.58.01.03.02.06.02.09.07.28.14.57.19.86.06.3.11.61.15.92v.06c.04.3.07.59.09.9.01.11.01.23.02.35.01.11.01.22.01.34,0,.17,0,.34,0,.51Z"/><path class="cls-5" d="M181.55,234.65c.09,1.78-.71,3.49-2.2,5.02-3.13,3.21-9.27,5.59-16.44,5.97-.07,0-.13.01-.2.01-9.29.46-17.19-2.62-19.08-7.14,4.04-2.5,8.46-4.72,13.19-6.61,1.58-.64,3.19-1.23,4.83-1.79.81-.27,1.62-.54,2.44-.79.17-.06.34-.11.51-.16.87-.27,1.75-.52,2.64-.77.95-.26,1.91-.52,2.88-.75.97-.24,1.95-.47,2.93-.68,1.85.58,3.48,1.32,4.81,2.21,1.66,1.12,2.84,2.46,3.37,3.94.19.5.29,1.01.32,1.54Z"/><ellipse class="cls-5" cx="163.58" cy="258" rx="19.2" ry="9.98" transform="translate(-13.58 9.13) rotate(-3.07)"/><ellipse class="cls-5" cx="164.78" cy="280.33" rx="19.2" ry="9.98" transform="translate(-14.77 9.22) rotate(-3.07)"/><ellipse class="cls-5" cx="165.97" cy="302.65" rx="19.2" ry="9.98" transform="translate(-15.97 9.32) rotate(-3.07)"/><path class="cls-5" d="M186.34,323.95c.09,1.78-.71,3.49-2.2,5.02-1.18,1.21-2.79,2.3-4.73,3.21-11.22-1.74-21.54-5.1-30.41-9.7,2.49-3.94,9.38-7.03,17.63-7.47.38-.02.75-.04,1.12-.04,6.1-.15,11.51,1.22,14.9,3.5.74.5,1.39,1.05,1.92,1.63,1.07,1.15,1.69,2.45,1.77,3.85Z"/><ellipse class="cls-5" cx="181.56" cy="243.09" rx="19.2" ry="9.98" transform="translate(-12.75 10.07) rotate(-3.07)"/><ellipse class="cls-5" cx="182.76" cy="265.42" rx="19.2" ry="9.98" transform="translate(-13.95 10.17) rotate(-3.07)"/><ellipse class="cls-5" cx="183.95" cy="287.76" rx="19.2" ry="9.98" transform="translate(-15.14 10.26) rotate(-3.07)"/><ellipse class="cls-5" cx="185.15" cy="310.1" rx="19.2" ry="9.98" transform="translate(-16.34 10.36) rotate(-3.07)"/><ellipse class="cls-5" cx="194.83" cy="233.17" rx="19.2" ry="9.98" transform="translate(-12.2 10.77) rotate(-3.07)"/><ellipse class="cls-5" cx="196.03" cy="255.5" rx="19.2" ry="9.98" transform="translate(-13.4 10.86) rotate(-3.07)"/><ellipse class="cls-5" cx="197.23" cy="277.82" rx="19.2" ry="9.98" transform="translate(-14.59 10.96) rotate(-3.07)"/><ellipse class="cls-5" cx="198.42" cy="300.14" rx="19.2" ry="9.98" transform="translate(-15.78 11.05) rotate(-3.07)"/><ellipse class="cls-5" cx="199.62" cy="322.47" rx="19.2" ry="9.98" transform="translate(-16.98 11.15) rotate(-3.07)"/><ellipse class="cls-5" cx="214.01" cy="240.58" rx="19.2" ry="9.98" transform="translate(-12.57 11.8) rotate(-3.07)"/><ellipse class="cls-5" cx="215.21" cy="262.92" rx="19.2" ry="9.98" transform="translate(-13.77 11.9) rotate(-3.07)"/><ellipse class="cls-5" cx="216.41" cy="285.25" rx="19.2" ry="9.98" transform="translate(-14.96 12) rotate(-3.07)"/><path class="cls-5" d="M234.57,311.59c-3.13,3.21-9.27,5.58-16.44,5.97-.37.02-.74.03-1.1.04-1.08.03-2.14,0-3.17-.06-4.79-.31-8.95-1.57-11.74-3.45-.75-.5-1.4-1.05-1.93-1.63-.67-.73-1.16-1.51-1.46-2.34-.17-.48-.27-.98-.3-1.5-.09-1.78.71-3.5,2.2-5.03,2.31-2.37,6.27-4.29,11.07-5.28,1.7-.35,3.5-.59,5.37-.69.07,0,.14-.01.21-.01,6.46-.31,12.24,1.08,15.8,3.48-1.49,1.53-2.29,3.24-2.2,5.02.03.52.13,1.02.31,1.51.29.83.79,1.62,1.46,2.34.53.58,1.18,1.13,1.92,1.63Z"/><path class="cls-5" d="M246.45,229.64c.1,1.78-.71,3.49-2.2,5.02-2.3,2.37-6.26,4.29-11.06,5.28-1.69.35-3.5.59-5.37.69-.07,0-.14.01-.21.01-6.47.31-12.25-1.08-15.81-3.47-2.22-1.5-3.58-3.38-3.69-5.48-.01-.13-.01-.26-.01-.39.04-1.64.83-3.22,2.21-4.63,1.08-1.11,2.52-2.12,4.25-2.99,3.25-1.63,7.5-2.73,12.19-2.98,2.39-.13,4.7-.02,6.83.29.01-.01.01,0,.01,0,1.17.16,2.29.39,3.35.67h0c2.28.6,4.26,1.46,5.82,2.51,1.66,1.11,2.83,2.44,3.36,3.93.19.5.29,1.01.32,1.54Z"/><ellipse class="cls-5" cx="228.48" cy="252.99" rx="19.2" ry="9.98" transform="translate(-13.22 12.6) rotate(-3.07)"/><ellipse class="cls-5" cx="229.68" cy="275.31" rx="19.2" ry="9.98" transform="translate(-14.41 12.69) rotate(-3.07)"/><path class="cls-5" d="M246.36,291.14c-.5.5-.91,1.02-1.24,1.56-.62.99-.96,2.03-.97,3.1-4.8,1-8.76,2.92-11.07,5.29-1.49,1.53-2.29,3.24-2.2,5.02.03.52.13,1.02.31,1.51-6.46.3-12.25-1.09-15.8-3.48-2.22-1.49-3.57-3.37-3.68-5.47-.01-.12-.01-.24-.01-.36.01-1.07.35-2.12.98-3.11.32-.53.74-1.05,1.23-1.55,3.11-3.21,9.26-5.59,16.43-5.98.37-.02.74-.04,1.11-.04,1.08-.03,2.13-.01,3.15.06,4.8.31,8.97,1.57,11.76,3.45Z"/><path class="cls-5" d="M246.85,315.06c-.29.19-.58.38-.87.57-8.34,5.32-16.81,9.78-24.99,12.92-1.69-.56-3.18-1.26-4.4-2.08-2.22-1.5-3.58-3.38-3.69-5.48-.06-1.19.28-2.35.96-3.45.33-.54.75-1.07,1.24-1.57,3.13-3.21,9.27-5.59,16.44-5.97.37-.02.74-.04,1.11-.04.53.58,1.18,1.13,1.92,1.63,2.79,1.87,6.96,3.13,11.75,3.44.17.01.35.02.53.03Z"/><ellipse class="cls-5" cx="246.46" cy="238.07" rx="19.2" ry="9.98" transform="translate(-12.39 13.54) rotate(-3.07)"/><ellipse class="cls-5" cx="247.66" cy="260.41" rx="19.2" ry="9.98" transform="translate(-13.59 13.63) rotate(-3.07)"/><path class="cls-5" d="M262.45,282.79c.29.83.79,1.62,1.46,2.34-.37,0-.74.02-1.12.04-7.17.38-13.31,2.76-16.43,5.97-.5.5-.91,1.02-1.24,1.56-4.79-.31-8.96-1.57-11.75-3.45-.74-.5-1.38-1.04-1.92-1.62-.67-.72-1.16-1.51-1.45-2.34-.18-.49-.28-.99-.31-1.51-.1-1.78.7-3.49,2.2-5.02,2.3-2.37,6.25-4.29,11.06-5.29,1.69-.35,3.5-.59,5.37-.69.07,0,.15-.01.22-.01,6.46-.31,12.24,1.08,15.8,3.48-1.5,1.53-2.3,3.25-2.2,5.02.03.52.13,1.03.31,1.52Z"/><path class="cls-5" d="M260.82,305.14c-1.65,1.28-3.32,2.54-5,3.75t-.01.01c-2.46,1.79-4.93,3.51-7.44,5.17l-1.52.99c-.18-.01-.36-.02-.53-.03-4.79-.31-8.96-1.57-11.75-3.44-.74-.5-1.39-1.05-1.92-1.63-.67-.72-1.17-1.51-1.46-2.34-.18-.49-.28-.99-.31-1.51-.09-1.78.71-3.49,2.2-5.02,2.31-2.37,6.27-4.29,11.07-5.29,0,.12,0,.24.01.36.11,2.1,1.46,3.98,3.68,5.48,3.03,2.03,7.67,3.34,12.98,3.5Z"/><path class="cls-5" d="M278.9,227.13c.1,1.78-.71,3.5-2.2,5.03-2.31,2.37-6.26,4.28-11.06,5.28-1.69.35-3.5.59-5.37.69-.07,0-.14.01-.21.01-6.47.31-12.25-1.08-15.81-3.48-2.22-1.49-3.57-3.37-3.68-5.47-.01-.13-.01-.27-.01-.4.04-1.63.82-3.21,2.21-4.62,1.34-1.39,3.27-2.63,5.6-3.62h.02c3.04-1.29,6.76-2.14,10.81-2.36,3.43-.18,6.67.11,9.5.78,0,0,0,0,.01,0,2.57.62,4.8,1.54,6.51,2.69,1.66,1.11,2.83,2.45,3.36,3.93.19.5.29,1.01.32,1.54Z"/><ellipse class="cls-5" cx="260.93" cy="250.48" rx="19.2" ry="9.98" transform="translate(-13.04 14.33) rotate(-3.07)"/><path class="cls-5" d="M277.61,266.31c-.48.49-.89,1.01-1.22,1.54-.63.99-.97,2.04-.99,3.12-4.81.99-8.76,2.91-11.06,5.28-1.5,1.53-2.3,3.25-2.2,5.02.03.52.13,1.03.31,1.52-6.46.31-12.25-1.09-15.8-3.48-2.22-1.49-3.58-3.37-3.69-5.47-.01-.12-.01-.25-.01-.37.02-1.07.36-2.12.99-3.11.32-.53.73-1.05,1.22-1.55,3.13-3.21,9.27-5.58,16.43-5.97.38-.02.76-.04,1.13-.04,1.07-.03,2.11,0,3.12.06h.01c4.8.3,8.96,1.57,11.76,3.45Z"/><path class="cls-5" d="M278.17,290.22c-.39.38-.79.75-1.18,1.12-.91.86-1.83,1.7-2.76,2.54h-.01c-2.28,2.09-4.6,4.11-6.99,6.1-1.29,1.08-2.59,2.14-3.9,3.19-.83.67-1.65,1.3-2.49,1.97h-.02c-5.31-.16-9.95-1.47-12.98-3.5-2.22-1.5-3.57-3.38-3.68-5.48-.01-.12-.01-.24-.01-.36.01-1.07.35-2.11.97-3.1.33-.54.74-1.06,1.24-1.56,3.12-3.21,9.26-5.59,16.43-5.97.38-.02.75-.04,1.12-.04.53.58,1.17,1.12,1.91,1.62,2.79,1.88,6.96,3.14,11.76,3.44.19.01.39.02.59.03Z"/><ellipse class="cls-5" cx="278.91" cy="235.57" rx="19.2" ry="9.98" transform="translate(-12.21 15.27) rotate(-3.07)"/><path class="cls-5" d="M293.7,257.96c.3.83.8,1.61,1.48,2.34-.37,0-.75.02-1.13.04-7.17.38-13.31,2.76-16.44,5.97-.48.49-.89,1.01-1.22,1.54-4.8-.3-8.97-1.56-11.77-3.45-.73-.49-1.37-1.02-1.9-1.6-.67-.72-1.17-1.51-1.47-2.34-.18-.49-.28-1-.31-1.53-.1-1.78.71-3.49,2.2-5.02,2.31-2.37,6.26-4.28,11.06-5.28,1.69-.35,3.5-.59,5.37-.69.07,0,.15-.01.22-.01,6.46-.31,12.24,1.08,15.8,3.47-1.49,1.53-2.29,3.25-2.2,5.03.03.53.14,1.04.31,1.53Z"/><path class="cls-5" d="M310.66,227.62c-1.72,3.28-6.46,6.04-12.57,7.31-1.69.35-3.5.59-5.37.69-.07,0-.14.01-.21.01-6.47.31-12.25-1.08-15.81-3.47-2.22-1.5-3.57-3.38-3.68-5.48,0-.13,0-.26,0-.39.03-1.64.82-3.21,2.21-4.63,1.07-1.11,2.51-2.12,4.23-2.98,7.89.02,14.89.64,20.44,2.26h.01c2.4.7,4.53,1.59,6.34,2.69s3.31,2.42,4.42,3.99Z"/><path class="cls-5" d="M311.67,244.25h0c-.13.42-.27.82-.42,1.23-6.84.51-12.65,2.83-15.66,5.92-1.49,1.53-2.29,3.25-2.2,5.03.03.53.14,1.04.31,1.53-6.46.3-12.25-1.09-15.8-3.48-2.22-1.49-3.58-3.37-3.69-5.47-.01-.13-.01-.25-.01-.38.02-1.07.37-2.12.99-3.11.33-.53.74-1.04,1.22-1.54,3.13-3.21,9.27-5.58,16.44-5.97.38-.02.76-.04,1.14-.04,1.06-.03,2.1-.01,3.11.06,6.05.38,11.11,2.29,13.66,5.04.35.38.66.77.91,1.18Z"/><path class="cls-5" d="M303.19,261.04c-.63.94-1.27,1.9-1.95,2.86-.06.09-.12.17-.18.26-1.94,2.76-4.09,5.57-6.4,8.39-2.02,2.47-4.17,4.95-6.44,7.43-3.68-.53-6.85-1.65-9.12-3.17-2.22-1.5-3.58-3.38-3.69-5.48-.01-.12-.01-.24-.01-.36.02-1.08.36-2.13.99-3.12.33-.53.74-1.05,1.22-1.54,3.13-3.21,9.27-5.59,16.44-5.97.38-.02.76-.04,1.13-.04,1.07-.03,2.11,0,3.12.06,1.72.11,3.36.34,4.89.68Z"/><path class="cls-5" d="M288.22,279.98c-1.81,1.98-3.69,3.96-5.64,5.92-1.04,1.06-2.11,2.11-3.19,3.15-.4.39-.81.79-1.22,1.17-.2-.01-.4-.02-.59-.03-4.8-.3-8.97-1.56-11.76-3.44-.74-.5-1.38-1.04-1.91-1.62-.67-.72-1.17-1.51-1.46-2.34-.18-.49-.28-1-.31-1.52-.1-1.77.7-3.49,2.2-5.02,2.3-2.37,6.25-4.29,11.06-5.28,0,.12,0,.24.01.36.11,2.1,1.47,3.98,3.69,5.48,2.27,1.52,5.44,2.64,9.12,3.17Z"/><path class="cls-5" d="M313.14,235.88c0,2.19-.38,4.59-1.11,7.14-.04.01-.09.01-.13.01-.38.02-.76.04-1.14.04-6.09.15-11.49-1.23-14.88-3.5-.73-.49-1.37-1.03-1.89-1.6-.68-.72-1.18-1.51-1.48-2.34-.18-.5-.29-1.01-.32-1.54-.09-1.78.71-3.49,2.2-5.02,2.43-2.5,6.7-4.5,11.85-5.44,1.81,1.1,3.31,2.42,4.42,3.99.91,1.25,1.58,2.65,1.99,4.23.32,1.24.49,2.57.49,4.03Z"/><path class="cls-5" d="M311.25,245.48c-.99,2.82-2.35,5.8-4.04,8.89-1.19,2.17-2.53,4.4-4.02,6.67-1.53-.34-3.17-.57-4.89-.68-1.01-.07-2.05-.09-3.12-.06-.68-.73-1.18-1.51-1.48-2.34-.17-.49-.28-1-.31-1.53-.09-1.78.71-3.5,2.2-5.03,3.01-3.09,8.82-5.41,15.66-5.92Z"/><path class="cls-1" d="M417.18,67.06c-19.71,8.77-33.95,33.91-33.95,63.57v23.5c0,25.9-19.3,48.37-47.54,59.48-10.82,4.26-22.93,6.85-35.79,7.33h-.01c-.69-.2-1.41-.39-2.15-.56-.28-.07-.57-.13-.87-.19-.2-.05-.41-.09-.62-.13-.64-.13-1.29-.25-1.97-.36-.02,0-.05,0-.09-.01-.19-.03-.39-.06-.59-.09-.17-.03-.35-.05-.53-.08-.2-.03-.4-.05-.61-.08-.25-.04-.51-.07-.77-.1-.42-.05-.85-.1-1.29-.14-.43-.05-.87-.09-1.32-.13-.38-.03-.77-.06-1.16-.09-.41-.03-.84-.06-1.26-.09-.1,0-.2-.01-.3-.02-.26-.01-.51-.02-.77-.04-.09,0-.18,0-.27-.01-.04,0-.09,0-.13-.01-.08,0-.15,0-.23-.01-.14,0-.27,0-.41,0-1.65-.07-3.35-.1-5.1-.11h-.72c-.67,0-1.35.01-2.04.02-.33.01-.67.01-1,.02-.88.02-1.76.04-2.66.07h-.02c-7.61-1.53-14.8-3.83-21.45-6.78-7.46-3.31-14.23-7.43-20.08-12.21-14.65-11.95-23.63-28.01-23.63-45.67v-23.5c0-1.47-.04-2.93-.1-4.38-.57-11.81-3.39-22.79-7.9-32.14-4.37-9.08-10.32-16.63-17.33-21.93-3.54-2.68-7.35-4.78-11.36-6.22,19.83,4.28,68.77,7.31,126,7.31,52.13,0,97.38-2.52,120.02-6.21Z"/><path class="cls-3" d="M182.84,5.18c0,.32-.46.63-1.37.94-1.52.52-4.28,1.01-8.09,1.46-13.9,1.65-41.69,2.78-73.7,2.78-35.14,0-65.19-1.36-77.37-3.27h-.01s-.01-.01-.02-.01c-1.43-.23-2.61-.46-3.53-.7-1.46-.39-2.23-.79-2.23-1.2C16.52,2.31,53.75,0,99.68,0s83.16,2.31,83.16,5.18Z"/><path class="cls-4" d="M44.71,159.02c-3.61.5-7.4-.63-10.16-3.39l-31.05-15.32c-4.67-4.67-4.67-12.3,0-16.97l31.05-10.34c1.48-1.48,3.24-2.48,5.11-3.02-1.82,5.88-2.8,12.13-2.8,18.61,0,11.04,2.84,21.42,7.85,30.43Z"/><path class="cls-3" d="M54.29,154.24c-3.61.4-7.4-.51-10.16-2.73l-31.05-12.33c-4.67-3.76-4.67-9.9,0-13.66l31.05-8.32c1.48-1.19,3.24-2,5.11-2.43-1.82,4.73-2.8,9.76-2.8,14.98,0,8.88,2.84,17.24,7.85,24.49Z"/><path class="cls-1" d="M156.1,100.93c4.1,8.34,6.4,17.73,6.4,27.66,0,.32,0,.64-.01.95-.3,20.11-10.04,37.93-24.99,49.21-1.76,1.34-3.6,2.57-5.5,3.72-1,.6-2.03,1.18-3.08,1.73-4.17,2.2-8.62,3.95-13.29,5.16-5.09,1.34-10.44,2.05-15.95,2.05-9.4,0-18.31-2.06-26.31-5.76-1.57-.72-3.11-1.51-4.61-2.37-10.08-5.71-18.43-14.12-24.05-24.26-5.01-9.01-7.85-19.39-7.85-30.43,0-6.48.98-12.73,2.8-18.61,5.09-16.42,16.74-29.97,31.88-37.57-4.53-1.47-8.64-3.3-12.19-5.42-9-5.34-14.51-12.53-14.51-20.44v-10.52c0-.65-.03-1.31-.06-1.96-.35-5.28-2.08-10.2-4.85-14.38-2.69-4.07-6.34-7.45-10.65-9.82-2.17-1.2-4.51-2.14-6.97-2.78,12.18,1.91,42.23,3.27,77.37,3.27,32.01,0,59.8-1.13,73.7-2.78-12.1,3.92-20.85,15.18-20.85,28.45v10.52c0,10.76-10.2,20.19-25.52,25.47,1.58.76,3.12,1.59,4.62,2.48,4.8,2.83,9.18,6.28,13.04,10.25,4.61,4.73,8.48,10.18,11.43,16.18Z"/><circle class="cls-3" cx="97.85" cy="112.96" r="19.06"/><circle class="cls-4" cx="91.9" cy="112.96" r="19.06"/><path class="cls-4" d="M288.82,438.83c0,36.95-39.26,66.9-87.69,66.9s-87.69-29.95-87.69-66.9c0-3.08.28-6.13.81-9.1,0-.02.01-.03.01-.05,24.52-12.01,39.59-28.3,39.59-46.23,0-.33,0-.65-.01-.97-.37-11.96-7.43-23.15-19.51-32.8,19.07,7.8,40.55,12.18,63.27,12.18s45.01-4.55,64.35-12.61c-11.46,8.99-18.53,19.35-19.84,30.42-.15,1.25-.23,2.51-.23,3.78,0,19.45,17.72,36.96,46.01,49.18.19.08.38.17.58.25.23,1.96.35,3.95.35,5.95Z"/><path class="cls-1" d="M345.65,482.82c0,35.1-66.85,63.54-149.33,63.54s-149.33-28.44-149.33-63.54c0-22.19,26.74-41.73,67.26-53.09-.53,2.97-.81,6.02-.81,9.1,0,36.95,39.26,66.9,87.69,66.9s87.69-29.95,87.69-66.9c0-2-.12-3.99-.35-5.95-.2-.08-.39-.17-.58-.25,35.15,11.62,57.76,29.78,57.76,50.19Z"/><ellipse class="cls-3" cx="207.85" cy="99.05" rx="11.44" ry="7.66"/><ellipse class="cls-3" cx="224.68" cy="111.72" rx="11.44" ry="7.66"/><ellipse class="cls-3" cx="245.62" cy="121.01" rx="11.44" ry="7.66"/><ellipse class="cls-3" cx="269.36" cy="126.83" rx="11.44" ry="7.66"/><ellipse class="cls-3" cx="294.55" cy="129.05" rx="11.44" ry="7.66"/><ellipse class="cls-3" cx="319.86" cy="127.56" rx="11.44" ry="7.66"/><ellipse class="cls-3" cx="343.97" cy="122.26" rx="11.44" ry="7.66"/><ellipse class="cls-3" cx="365.54" cy="113.03" rx="11.44" ry="7.66"/><ellipse class="cls-3" cx="383.23" cy="99.77" rx="11.44" ry="7.66"/><ellipse class="cls-4" cx="207.85" cy="93.89" rx="11.44" ry="7.66"/><ellipse class="cls-4" cx="224.68" cy="106.56" rx="11.44" ry="7.66"/><ellipse class="cls-4" cx="245.62" cy="115.86" rx="11.44" ry="7.66"/><ellipse class="cls-4" cx="269.36" cy="121.67" rx="11.44" ry="7.66"/><ellipse class="cls-4" cx="294.55" cy="123.89" rx="11.44" ry="7.66"/><ellipse class="cls-4" cx="319.86" cy="122.4" rx="11.44" ry="7.66"/><ellipse class="cls-4" cx="343.97" cy="117.1" rx="11.44" ry="7.66"/><ellipse class="cls-4" cx="365.54" cy="107.87" rx="11.44" ry="7.66"/><ellipse class="cls-4" cx="383.23" cy="94.61" rx="11.44" ry="7.66"/><ellipse class="cls-3" cx="145.6" cy="356.77" rx="11.44" ry="7.66"/><ellipse class="cls-3" cx="168.02" cy="363.8" rx="11.44" ry="7.66"/><ellipse class="cls-3" cx="193.11" cy="365.59" rx="11.44" ry="7.66"/><ellipse class="cls-3" cx="219.62" cy="362.65" rx="11.44" ry="7.66"/><ellipse class="cls-3" cx="246.34" cy="355.5" rx="11.44" ry="7.66"/><ellipse class="cls-3" cx="272.03" cy="344.63" rx="11.44" ry="7.66"/><ellipse class="cls-3" cx="295.48" cy="330.57" rx="11.44" ry="7.66"/><ellipse class="cls-3" cx="315.44" cy="313.8" rx="11.44" ry="7.66"/><ellipse class="cls-3" cx="330.7" cy="294.85" rx="11.44" ry="7.66"/><ellipse class="cls-3" cx="340.03" cy="274.22" rx="11.44" ry="7.66"/><ellipse class="cls-3" cx="342.2" cy="252.41" rx="11.44" ry="7.66"/><ellipse class="cls-3" cx="335.98" cy="229.94" rx="11.44" ry="7.66"/><ellipse class="cls-4" cx="145.6" cy="353.79" rx="11.44" ry="7.66"/><ellipse class="cls-4" cx="168.02" cy="360.82" rx="11.44" ry="7.66"/><ellipse class="cls-4" cx="193.11" cy="362.61" rx="11.44" ry="7.66"/><ellipse class="cls-4" cx="219.62" cy="359.67" rx="11.44" ry="7.66"/><ellipse class="cls-4" cx="246.34" cy="352.52" rx="11.44" ry="7.66"/><ellipse class="cls-4" cx="272.03" cy="341.65" rx="11.44" ry="7.66"/><ellipse class="cls-4" cx="295.48" cy="327.59" rx="11.44" ry="7.66"/><ellipse class="cls-4" cx="315.44" cy="310.82" rx="11.44" ry="7.66"/><ellipse class="cls-4" cx="330.7" cy="291.87" rx="11.44" ry="7.66"/><ellipse class="cls-4" cx="340.03" cy="271.24" rx="11.44" ry="7.66"/><ellipse class="cls-4" cx="342.2" cy="249.43" rx="11.44" ry="7.66"/><ellipse class="cls-4" cx="335.98" cy="226.96" rx="11.44" ry="7.66"/><ellipse class="cls-3" cx="42.95" cy="26.86" rx="7.16" ry="4.88"/><ellipse class="cls-3" cx="53.48" cy="34.93" rx="7.16" ry="4.88"/><ellipse class="cls-3" cx="66.59" cy="40.85" rx="7.16" ry="4.88"/><ellipse class="cls-3" cx="81.45" cy="44.55" rx="7.16" ry="4.88"/><ellipse class="cls-3" cx="97.22" cy="45.97" rx="7.16" ry="4.88"/><ellipse class="cls-3" cx="113.07" cy="45.02" rx="7.16" ry="4.88"/><ellipse class="cls-3" cx="128.16" cy="41.64" rx="7.16" ry="4.88"/><ellipse class="cls-3" cx="141.67" cy="35.77" rx="7.16" ry="4.88"/><ellipse class="cls-3" cx="152.75" cy="27.32" rx="7.16" ry="4.88"/><ellipse class="cls-4" cx="42.95" cy="23.01" rx="7.16" ry="4.88"/><ellipse class="cls-4" cx="53.48" cy="31.08" rx="7.16" ry="4.88"/><ellipse class="cls-4" cx="66.59" cy="37.01" rx="7.16" ry="4.88"/><ellipse class="cls-4" cx="81.45" cy="40.71" rx="7.16" ry="4.88"/><ellipse class="cls-4" cx="97.22" cy="42.12" rx="7.16" ry="4.88"/><ellipse class="cls-4" cx="113.07" cy="41.18" rx="7.16" ry="4.88"/><ellipse class="cls-4" cx="128.16" cy="37.8" rx="7.16" ry="4.88"/><ellipse class="cls-4" cx="141.67" cy="31.92" rx="7.16" ry="4.88"/><ellipse class="cls-4" cx="152.75" cy="23.47" rx="7.16" ry="4.88"/><ellipse class="cls-3" cx="68.8" cy="466.37" rx="12.74" ry="12.01"/><ellipse class="cls-3" cx="94.14" cy="488.31" rx="12.64" ry="11.88"/><ellipse class="cls-3" cx="118.47" cy="505.92" rx="12.55" ry="11.75"/><ellipse class="cls-3" cx="142.01" cy="519.17" rx="12.46" ry="11.62"/><ellipse class="cls-3" cx="165.03" cy="528.07" rx="12.36" ry="11.48"/><ellipse class="cls-3" cx="187.75" cy="532.6" rx="12.27" ry="11.35"/><ellipse class="cls-3" cx="210.41" cy="532.77" rx="12.17" ry="11.22"/><ellipse class="cls-3" cx="233.28" cy="528.55" rx="12.08" ry="11.09"/><ellipse class="cls-3" cx="256.57" cy="519.95" rx="11.98" ry="10.95"/><ellipse class="cls-3" cx="280.54" cy="506.95" rx="11.89" ry="10.82"/><ellipse class="cls-3" cx="305.43" cy="489.54" rx="11.79" ry="10.69"/><ellipse class="cls-3" cx="331.49" cy="467.73" rx="11.7" ry="10.56"/><ellipse class="cls-4" cx="68.28" cy="461.52" rx="12.74" ry="12.01"/><ellipse class="cls-4" cx="93.62" cy="483.46" rx="12.64" ry="11.88"/><ellipse class="cls-4" cx="117.95" cy="501.07" rx="12.55" ry="11.75"/><ellipse class="cls-4" cx="141.49" cy="514.32" rx="12.46" ry="11.62"/><ellipse class="cls-4" cx="164.5" cy="523.22" rx="12.36" ry="11.48"/><ellipse class="cls-4" cx="187.22" cy="527.75" rx="12.27" ry="11.35"/><ellipse class="cls-4" cx="209.89" cy="527.92" rx="12.17" ry="11.22"/><ellipse class="cls-4" cx="232.75" cy="523.7" rx="12.08" ry="11.09"/><ellipse class="cls-4" cx="256.05" cy="515.1" rx="11.98" ry="10.95"/><ellipse class="cls-4" cx="280.02" cy="502.1" rx="11.89" ry="10.82"/><ellipse class="cls-4" cx="304.91" cy="484.69" rx="11.79" ry="10.69"/><ellipse class="cls-4" cx="330.96" cy="462.88" rx="11.7" ry="10.56"/><ellipse class="cls-3" cx="67.75" cy="196.79" rx="4.23" ry="6.4"/><ellipse class="cls-3" cx="73.97" cy="207.38" rx="4.23" ry="6.4"/><ellipse class="cls-3" cx="81.71" cy="215.15" rx="4.23" ry="6.4"/><ellipse class="cls-3" cx="90.47" cy="220.01" rx="4.23" ry="6.4"/><ellipse class="cls-3" cx="99.78" cy="221.87" rx="4.23" ry="6.4"/><ellipse class="cls-3" cx="109.13" cy="220.63" rx="4.23" ry="6.4"/><ellipse class="cls-3" cx="118.03" cy="216.19" rx="4.23" ry="6.4"/><ellipse class="cls-3" cx="126" cy="208.48" rx="4.23" ry="6.4"/><ellipse class="cls-3" cx="132.54" cy="197.39" rx="4.23" ry="6.4"/><ellipse class="cls-4" cx="67.75" cy="193.59" rx="4.23" ry="6.4"/><ellipse class="cls-4" cx="73.97" cy="204.18" rx="4.23" ry="6.4"/><ellipse class="cls-4" cx="81.71" cy="211.95" rx="4.23" ry="6.4"/><ellipse class="cls-4" cx="90.47" cy="216.81" rx="4.23" ry="6.4"/><ellipse class="cls-4" cx="99.78" cy="218.67" rx="4.23" ry="6.4"/><ellipse class="cls-4" cx="109.13" cy="217.42" rx="4.23" ry="6.4"/><ellipse class="cls-4" cx="118.03" cy="212.99" rx="4.23" ry="6.4"/><ellipse class="cls-4" cx="126" cy="205.28" rx="4.23" ry="6.4"/><ellipse class="cls-4" cx="132.54" cy="194.19" rx="4.23" ry="6.4"/><ellipse class="cls-3" cx="53.02" cy="223.28" rx="4.23" ry="6.4"/><ellipse class="cls-3" cx="57.79" cy="230.6" rx="4.23" ry="6.4"/><ellipse class="cls-3" cx="64.49" cy="236.53" rx="4.23" ry="6.4"/><ellipse class="cls-3" cx="72.72" cy="241" rx="4.23" ry="6.4"/><ellipse class="cls-3" cx="82.1" cy="243.95" rx="4.23" ry="6.4"/><ellipse class="cls-3" cx="92.22" cy="245.31" rx="4.23" ry="6.4"/><ellipse class="cls-3" cx="102.7" cy="245" rx="4.23" ry="6.4"/><ellipse class="cls-3" cx="113.15" cy="242.96" rx="4.23" ry="6.4"/><ellipse class="cls-3" cx="123.18" cy="239.1" rx="4.23" ry="6.4"/><ellipse class="cls-3" cx="132.4" cy="233.37" rx="4.23" ry="6.4"/><ellipse class="cls-3" cx="140.41" cy="225.69" rx="4.23" ry="6.4"/><ellipse class="cls-3" cx="146.83" cy="215.99" rx="4.23" ry="6.4"/><ellipse class="cls-3" cx="151.26" cy="204.2" rx="4.23" ry="6.4"/><ellipse class="cls-4" cx="53.02" cy="220.94" rx="4.23" ry="6.4"/><ellipse class="cls-4" cx="57.79" cy="228.25" rx="4.23" ry="6.4"/><ellipse class="cls-4" cx="64.49" cy="234.18" rx="4.23" ry="6.4"/><ellipse class="cls-4" cx="72.72" cy="238.66" rx="4.23" ry="6.4"/><ellipse class="cls-4" cx="82.1" cy="241.61" rx="4.23" ry="6.4"/><ellipse class="cls-4" cx="92.22" cy="242.97" rx="4.23" ry="6.4"/><ellipse class="cls-4" cx="102.7" cy="242.66" rx="4.23" ry="6.4"/><ellipse class="cls-4" cx="113.15" cy="240.61" rx="4.23" ry="6.4"/><ellipse class="cls-4" cx="123.18" cy="236.76" rx="4.23" ry="6.4"/><ellipse class="cls-4" cx="132.4" cy="231.03" rx="4.23" ry="6.4"/><ellipse class="cls-4" cx="140.41" cy="223.34" rx="4.23" ry="6.4"/><ellipse class="cls-4" cx="146.83" cy="213.64" rx="4.23" ry="6.4"/><ellipse class="cls-4" cx="151.26" cy="201.85" rx="4.23" ry="6.4"/><circle class="cls-3" cx="91.13" cy="111.01" r="11.01"/></g></svg>