<?xml version="1.0" encoding="UTF-8"?><svg id="Layer_2" xmlns="http://www.w3.org/2000/svg" viewBox="0 0 678.32 706.29"><defs><style>.cls-1{fill:#e2935c;}.cls-1,.cls-2,.cls-3,.cls-4{stroke-width:0px;}.cls-2{fill:#c27944;}.cls-3{fill:#c1845b;}.cls-4{fill:#9e5f32;}</style></defs><g id="_Слой_2_копия_"><path class="cls-4" d="M645.22,249.55c0,35.84-19.38,67.43-48.84,86.09-.02-.15-.05-.31-.07-.46-.51-3.38-1.1-6.73-1.77-10.06,19.78-16.98,31.99-40.32,31.99-66.07,0-51.94-49.65-94.04-110.89-94.04-11.25,0-22.11,1.42-32.34,4.05-3.48-2.04-7.02-4-10.62-5.86,17.62-11.07,38.83-17.52,61.65-17.52,61.24,0,110.89,46.5,110.89,103.87Z"/><path class="cls-2" d="M598.87,362.85c-.11-3.32-.29-6.61-.54-9.89-.44-5.83-1.09-11.61-1.95-17.32-.02-.15-.05-.31-.07-.46-.51-3.38-1.1-6.73-1.77-10.06-.88-4.51-1.91-8.97-3.05-13.38-15.79-60.67-55.37-111.76-108.19-142.68-3.48-2.04-7.02-4-10.62-5.86-4.47-2.31-9.02-4.48-13.65-6.51-1.7-.75-3.42-1.47-5.15-2.17-2.41-.99-4.84-1.94-7.3-2.85-3.32-1.23-6.68-2.38-10.08-3.46l-.11-.04c-5.79-1.85-9.47-7.65-8.46-13.65.57-3.42.87-6.93.87-10.52,0-8.05-1.51-15.76-4.25-22.84-.87,1.44-3.02,2.81-6.2,4.04-9.9,3.85-29.85,6.48-52.85,6.48-4.25,0-8.39-.09-12.38-.26-17.64-.75-32.4-3.08-40.47-6.22-3.18-1.23-5.33-2.6-6.2-4.04-2.74,7.08-4.25,14.79-4.25,22.84,0,3.35.26,6.64.76,9.85.91,5.79-2.22,11.43-7.67,13.59-26.9,10.67-58.07,16.77-91.29,16.77-31.39,0-60.94-5.45-86.8-15.05-.24.18-.5.37-.78.55,1.68,1.11,2.58,2.28,2.58,3.5,0,6.63-26.64,12-59.5,12-12.49,0-24.08-.78-33.64-2.1,44.57,12.37,90.81,47.64,123.91,99.43,1.66,2.6,3.27,5.21,4.83,7.84-14.49,30.4-22.6,64.42-22.6,100.33,0,29.95,5.64,58.58,15.91,84.89,3.02,7.74,6.44,15.28,10.24,22.59,19.64,37.8,49.3,69.55,85.47,91.72,17.14,10.52,35.74,18.87,55.42,24.71,21.07,4.27,43.37,6.57,66.46,6.57s45.33-2.29,66.37-6.56h0c19.72-5.82,38.35-14.19,55.51-24.72,43.05-26.39,76.89-66.35,95.56-113.93,10.37-26.42,16.06-55.18,16.06-85.27,0-2.63-.04-5.25-.13-7.86ZM492.97,373.58c-.02.71-.04,1.43-.07,2.14-.03.83-.07,1.66-.12,2.48-.04.83-.1,1.66-.16,2.48-.07.82-.14,1.64-.22,2.45-.08.82-.16,1.64-.26,2.45-.07.61-.14,1.22-.23,1.83-.06.48-.12.95-.19,1.42-.15,1.08-.32,2.15-.5,3.22-.09.53-.18,1.06-.28,1.59-.18,1.02-.38,2.03-.59,3.03-.01.05-.02.1-.03.15-.82,3.96-1.83,7.85-3.01,11.66-.02.05-.03.11-.05.16-.15.51-.31,1.01-.48,1.5-.17.56-.36,1.1-.55,1.65-.36,1.1-.75,2.19-1.16,3.27-.19.54-.4,1.08-.61,1.62-.37.97-.76,1.93-1.16,2.89-.71,1.72-1.46,3.41-2.24,5.08-.33.71-.67,1.42-1.02,2.13-.32.66-.65,1.31-.98,1.96-.09.17-.17.34-.26.51-.3.58-.6,1.15-.91,1.71-.37.69-.74,1.38-1.13,2.06-.2.37-.41.74-.63,1.11-.38.67-.77,1.33-1.17,1.99-.18.32-.37.64-.57.95-.41.68-.82,1.35-1.25,2.01-.3.47-.6.93-.9,1.39-.27.42-.55.84-.83,1.25-.24.36-.49.72-.74,1.08-.66.98-1.34,1.95-2.05,2.9-.41.58-.84,1.15-1.27,1.72-.24.33-.49.65-.74.97-.22.3-.45.6-.7.89-.63.83-1.29,1.64-1.95,2.44-.26.33-.53.65-.8.97-.31.36-.61.72-.91,1.07-.6.71-1.22,1.41-1.84,2.1-2.68,2.98-5.5,5.83-8.44,8.55-.8.74-1.6,1.46-2.42,2.17-.58.52-1.17,1.03-1.77,1.53-.07.06-.14.12-.22.19-.71.6-1.42,1.18-2.14,1.76-1.3,1.05-2.62,2.07-3.96,3.06-.52.39-1.04.77-1.56,1.14-.16.13-.33.25-.5.36-.5.37-1.02.72-1.53,1.07-.14.11-.29.21-.43.29-.53.38-1.07.74-1.62,1.1-1.37.92-2.76,1.8-4.17,2.65-.51.32-1.04.63-1.56.93-.14.09-.27.17-.41.24-.5.3-1.01.59-1.52.88-1.47.83-2.97,1.64-4.48,2.41-.5.26-1.01.52-1.53.77-.58.3-1.16.58-1.75.86-.57.27-1.14.54-1.71.8-.24.11-.48.22-.72.33-.57.26-1.14.51-1.71.76-1.09.47-2.2.93-3.31,1.38-1.04.42-2.08.82-3.12,1.2-.64.24-1.28.47-1.93.7-1.04.37-2.09.72-3.14,1.06-3.79,1.23-7.65,2.28-11.59,3.15-.06.01-.13.03-.19.04-.7.16-1.4.31-2.1.44-.66.14-1.32.26-1.98.38-.48.1-.97.19-1.46.27-.94.16-1.89.32-2.84.46-.39.06-.78.12-1.18.17-.71.1-1.42.2-2.13.28-.3.04-.58.07-.87.1-.73.09-1.47.17-2.2.24-.13.02-.27.03-.4.04-.99.1-1.98.18-2.97.25-.98.07-1.97.13-2.96.18-.12.01-.25.01-.37.02-.82.04-1.64.07-2.47.09-.16,0-.32,0-.48,0-1.02.03-2.04.04-3.07.04-3.49,0-6.96-.14-10.38-.42-.82-.07-1.64-.14-2.46-.22-.75-.07-1.49-.15-2.22-.24-.7-.08-1.39-.17-2.08-.27-.57-.07-1.14-.15-1.71-.24-.63-.09-1.26-.18-1.89-.29-2.15-.35-4.29-.75-6.4-1.21-3.94-.86-7.81-1.89-11.61-3.1-.12-.04-.24-.08-.36-.12-1.33-.42-2.64-.87-3.95-1.34-1.47-.53-2.94-1.09-4.39-1.67-.99-.4-1.97-.81-2.95-1.23-.75-.32-1.49-.65-2.23-.98-.09-.05-.19-.09-.29-.14-.83-.37-1.65-.76-2.47-1.16-.58-.28-1.16-.56-1.73-.86-.36-.17-.71-.35-1.06-.53-.17-.09-.35-.18-.52-.27-.62-.31-1.22-.64-1.83-.97-.84-.45-1.68-.91-2.51-1.39-.64-.36-1.28-.73-1.91-1.11-.33-.19-.65-.38-.97-.58-.69-.42-1.37-.84-2.05-1.27-.79-.49-1.57-1-2.35-1.52-.93-.61-1.86-1.25-2.78-1.9-.58-.4-1.16-.81-1.73-1.23-.17-.12-.35-.25-.52-.38-.59-.43-1.17-.86-1.75-1.31-.13-.1-.27-.2-.4-.3-.71-.54-1.42-1.1-2.12-1.66-.75-.6-1.48-1.2-2.21-1.81-.68-.56-1.35-1.14-2.02-1.73-.77-.67-1.53-1.35-2.28-2.04-2.96-2.7-5.78-5.55-8.47-8.52-12.2-13.49-21.55-29.61-27.11-47.41-1.2-3.81-2.21-7.69-3.04-11.65-.11-.53-.22-1.07-.33-1.6-.09-.44-.17-.87-.25-1.31-.03-.18-.07-.35-.1-.52-.28-1.52-.53-3.06-.75-4.61-.01-.03-.01-.06-.02-.09-.07-.53-.15-1.06-.21-1.59-.19-1.42-.35-2.85-.49-4.29-.08-.77-.15-1.55-.21-2.32,0-.08-.01-.15-.02-.22-.12-1.6-.21-3.2-.27-4.81v-.06c-.03-.73-.05-1.46-.07-2.19-.02-.94-.03-1.88-.03-2.82,0-1.05.01-2.09.04-3.13.02-.95.05-1.9.1-2.85.01-.21.02-.42.03-.63.04-.77.08-1.54.14-2.31l.03-.42c.07-1.02.16-2.04.26-3.06v-.05c.09-.98.2-1.96.32-2.93.14-1.16.29-2.31.47-3.45.07-.54.15-1.07.25-1.6.03-.24.07-.47.11-.7.05-.36.11-.71.18-1.07.1-.61.21-1.21.33-1.82.14-.75.29-1.5.45-2.25.11-.51.21-1.01.33-1.51,0-.05.02-.11.03-.16.88-3.95,1.95-7.82,3.2-11.62.18-.55.36-1.09.55-1.64.15-.48.31-.96.5-1.44.21-.6.43-1.21.65-1.81.16-.46.34-.92.52-1.38.06-.15.12-.3.18-.46.17-.46.35-.91.54-1.37.34-.85.69-1.69,1.05-2.53.32-.74.64-1.47.97-2.2.11-.24.22-.48.33-.72.35-.78.72-1.55,1.09-2.32.01-.02.02-.04.02-.05.42-.87.85-1.73,1.29-2.58.44-.87.9-1.74,1.37-2.6.43-.79.87-1.58,1.31-2.37.04-.06.07-.12.11-.19.36-.63.73-1.26,1.1-1.88.31-.51.61-1.03.93-1.53.25-.42.51-.84.78-1.25.52-.84,1.06-1.67,1.61-2.5.6-.9,1.2-1.79,1.83-2.68,0,0,.01-.01.01-.02.64-.91,1.29-1.81,1.96-2.71,0-.03.03-.05.05-.06.59-.82,1.21-1.63,1.85-2.44.15-.2.3-.4.47-.59.58-.76,1.19-1.51,1.81-2.25.71-.87,1.44-1.73,2.19-2.58.73-.85,1.48-1.69,2.25-2.52,17.53-19.08,40.79-32.8,67.06-38.42.67-.16,1.34-.3,2.02-.42.68-.14,1.35-.27,2.03-.39.44-.08.89-.16,1.34-.23.76-.14,1.52-.26,2.29-.37.84-.13,1.68-.25,2.53-.36.76-.1,1.53-.19,2.29-.27.57-.07,1.14-.13,1.72-.18.75-.08,1.5-.15,2.25-.21,3.42-.28,6.89-.42,10.38-.42.71,0,1.42.01,2.14.02.8,0,1.61.03,2.41.06.61.02,1.22.05,1.83.08.5.02.99.05,1.49.08.8.05,1.6.1,2.39.17.41.03.83.06,1.24.1.51.05,1.01.1,1.52.15.58.06,1.16.12,1.74.19.69.08,1.38.16,2.07.25.6.08,1.21.17,1.82.26.45.06.91.13,1.36.2.14.03.28.05.42.07.51.08,1.02.17,1.53.26.35.06.7.12,1.05.19.46.08.93.16,1.4.26.82.16,1.64.33,2.45.5,3.99.85,7.91,1.89,11.75,3.11.09.03.19.06.28.09.91.29,1.82.59,2.72.91.1.03.19.06.29.1,1,.34,2,.7,2.99,1.08.69.26,1.38.52,2.07.81.47.17.93.36,1.38.55.2.07.4.16.6.25.58.23,1.16.48,1.73.73,1.86.8,3.68,1.64,5.49,2.54.44.21.88.43,1.31.65.08.04.16.08.24.12.65.33,1.3.67,1.94,1.01,1.05.55,2.08,1.12,3.11,1.7,2.28,1.29,4.51,2.64,6.69,4.07.73.47,1.45.95,2.17,1.44,1.06.72,2.11,1.46,3.14,2.22.71.5,1.41,1.02,2.1,1.55.22.16.43.32.64.49.83.63,1.65,1.27,2.47,1.93.84.68,1.67,1.36,2.49,2.07.14.12.29.24.43.37.79.67,1.58,1.36,2.35,2.06,3.01,2.7,5.89,5.55,8.63,8.53.57.61,1.13,1.23,1.67,1.86.12.13.24.26.36.4.48.55.96,1.1,1.43,1.66.09.11.18.21.27.32.4.47.8.95,1.18,1.43.35.41.68.83,1.02,1.25.12.16.25.33.39.49.48.61.95,1.22,1.42,1.84.01.01.02.03.03.05.43.55.84,1.1,1.24,1.66.23.31.46.62.68.94.28.38.56.76.82,1.15.42.58.82,1.17,1.22,1.76,0,.01,0,.02,0,.03.42.59.81,1.19,1.2,1.8.36.54.71,1.08,1.05,1.64.33.5.64,1,.95,1.51.39.63.77,1.27,1.15,1.92.43.72.85,1.45,1.26,2.18.04.07.08.15.13.24.43.77.86,1.55,1.27,2.33,1.7,3.2,3.28,6.49,4.71,9.85.36.83.7,1.67,1.04,2.51.26.65.52,1.3.77,1.96.1.26.2.53.3.79.24.64.47,1.28.69,1.92.09.23.17.46.25.7.28.77.54,1.55.79,2.33,1.26,3.81,2.33,7.69,3.22,11.65.28,1.26.55,2.52.79,3.79.1.53.2,1.05.3,1.58.19,1.05.36,2.11.53,3.17.25,1.6.46,3.2.64,4.82.06.45.11.91.15,1.36.04.3.07.59.09.88.06.58.11,1.17.16,1.75.12,1.39.21,2.79.28,4.19.03.53.05,1.07.07,1.6.07,1.65.1,3.31.1,4.97,0,.96-.01,1.92-.03,2.87Z"/><path class="cls-2" d="M678.32,246.34c0,51.52-32.5,95.96-79.45,116.51-.11-3.32-.29-6.61-.54-9.89-.44-5.83-1.09-11.61-1.95-17.32,29.46-18.66,48.84-50.25,48.84-86.09,0-57.37-49.65-103.87-110.89-103.87-22.82,0-44.03,6.45-61.65,17.52-4.47-2.31-9.02-4.48-13.65-6.51-1.7-.75-3.42-1.47-5.15-2.17-2.41-.99-4.84-1.94-7.3-2.85,24.61-21.12,57.48-34.02,93.59-34.02,76.3,0,138.15,57.62,138.15,128.69Z"/><path class="cls-4" d="M520.37,652.77c0,2.43-.9,4.8-2.63,7.1-13.15,17.54-74.2,30.81-147.53,30.81-.47,0-.95,0-1.42-.01-.04.01-.07.01-.11,0-3.37,0-6.71-.04-10.02-.1-.08,0-.15-.01-.22-.01-70.02-1.37-126.56-14.85-136.76-32.17-1.08-1.83-1.64-3.71-1.64-5.62,0-1.62.4-3.21,1.19-4.78,8.14-2.73,17.85-5.22,28.88-7.41,6.12-1.22,12.65-2.35,19.53-3.37,5.85-4.66,11.06-9.92,15.5-15.67,6.28-8.11,11.03-17.19,13.9-26.92,21.07,4.27,43.37,6.57,66.46,6.57s45.33-2.29,66.37-6.56h0c2.62,9.04,6.85,17.51,12.43,25.17,4.18,5.76,9.12,11.07,14.69,15.81,8.08,1,15.75,2.14,22.95,3.41,14.51,2.53,27.11,5.57,37.24,8.97.79,1.57,1.19,3.16,1.19,4.78Z"/><path class="cls-2" d="M546.92,668.38c0,20.94-79.11,37.91-176.71,37.91s-176.72-16.97-176.72-37.91c0-2.89,1.51-5.71,4.38-8.41,4.56-4.32,12.56-8.36,23.36-11.98-.79,1.57-1.19,3.16-1.19,4.78,0,1.91.56,3.79,1.64,5.62,10.2,17.32,66.74,30.8,136.76,32.17.07,0,.14.01.22.01,2.26.09,4.54.13,6.84.13,1.06,0,2.12-.01,3.18-.03.04.01.07.01.11,0,.47.01.95.01,1.42.01,73.33,0,134.38-13.27,147.53-30.81,1.73-2.3,2.63-4.67,2.63-7.1,0-1.62-.4-3.21-1.19-4.78,10.51,3.52,18.37,7.44,22.98,11.63,3.12,2.81,4.76,5.74,4.76,8.76Z"/><path class="cls-4" d="M425,99.68c0,.5-.15,1-.45,1.48-.87,1.44-3.02,2.81-6.2,4.04-9.9,3.85-29.85,6.48-52.85,6.48-4.25,0-8.39-.09-12.38-.26-17.64-.75-32.4-3.08-40.47-6.22-3.18-1.23-5.33-2.6-6.2-4.04-.3-.48-.45-.98-.45-1.48,0-1.24.93-2.43,2.66-3.55h0c.69-.45,1.51-.89,2.44-1.31-.08,1.05-.12,2.12-.12,3.19,0,.81.02,1.61.07,2.41.49.14,1.01.27,1.55.41,8.58,2.11,23.05,3.66,40.15,4.18,4.11.12,8.37.19,12.75.19,22.56,0,42.26-1.76,52.9-4.38.54-.13,1.06-.26,1.55-.4.05-.8.07-1.6.07-2.41,0-1.07-.04-2.14-.12-3.19.93.42,1.75.86,2.44,1.3h0c1.73,1.13,2.66,2.32,2.66,3.56Z"/><path class="cls-4" d="M402.5,28.23c-2.58,1.89-4.85,4.08-6.74,6.51-9,1.11-19.58,1.75-30.9,1.75-4.25,0-8.39-.09-12.38-.26-6.1-.26-11.86-.71-17.11-1.31-1.89-2.47-4.17-4.69-6.77-6.62,6.88.73,14.86,1.26,23.51,1.52,4.11.12,8.37.19,12.75.19,14.19,0,27.25-.7,37.63-1.86,0,.03.01.05.01.08Z"/><path class="cls-2" d="M328.6,28.3s-.07-.05-.1-.07c1.91-14.37,14.98-25.84,31.62-27.9,1.76-.22,3.56-.33,5.38-.33,19.09,0,34.84,12.31,36.99,28.15-10.38,1.16-23.44,1.86-37.63,1.86-4.38,0-8.64-.07-12.75-.19-8.65-.26-16.63-.79-23.51-1.52Z"/><path class="cls-2" d="M420.02,98.01c0,.81-.02,1.61-.07,2.41-.49.14-1.01.27-1.55.4-10.64,2.62-30.34,4.38-52.9,4.38-4.38,0-8.64-.07-12.75-.19-17.1-.52-31.57-2.07-40.15-4.18-.54-.14-1.06-.27-1.55-.41-.05-.8-.07-1.6-.07-2.41,0-1.07.04-2.14.12-3.19.07-.88.17-1.76.29-2.62.26-1.72.62-3.41,1.08-5.07,1.95-1.95,4.11-3.79,6.46-5.5,3.49-2.54,7.37-4.79,11.58-6.72t.02-.01c5.73-4.9,9.61-11.4,10.64-18.65.02-.08.03-.16.03-.24.16-1.19.24-2.41.24-3.64,0-6.44-2.23-12.44-6.07-17.45,5.25.6,11.01,1.05,17.11,1.31,3.99.17,8.13.26,12.38.26,11.32,0,21.9-.64,30.9-1.75-3.92,5.05-6.2,11.11-6.2,17.63,0,1.23.08,2.45.24,3.64,0,.08.01.16.03.24,1.02,7.25,4.9,13.75,10.64,18.65t.02.01c4.21,1.93,8.09,4.18,11.58,6.72,2.35,1.71,4.51,3.55,6.46,5.5.46,1.66.82,3.35,1.08,5.07.12.86.22,1.74.29,2.62.08,1.05.12,2.12.12,3.19Z"/><path class="cls-4" d="M493,370.71c0,53.65-33.13,99.56-80.05,118.38-14.66,5.88-30.68,9.12-47.45,9.12-3.49,0-6.96-.14-10.38-.42,16.45-1.32,32.02-5.77,46.11-12.74,42.08-20.83,71.01-64.2,71.01-114.34,0-66.92-51.56-121.8-117.12-127.08,3.42-.28,6.89-.42,10.38-.42,22.82,0,44.23,5.99,62.76,16.49,24.25,13.74,43.56,35.2,54.57,61.04,6.55,15.34,10.17,32.23,10.17,49.97Z"/><path class="cls-2" d="M119,153.21c0,6.63-26.64,12-59.5,12-12.49,0-24.08-.78-33.64-2.1h-.03c-5.71-1.59-11.38-2.8-17-3.61-5.6-1.83-8.83-10.98-8.83-13.29,0-1.22,32.69,12,59.5,12s49.48-3.58,56.92-8.5c1.68,1.11,2.58,2.28,2.58,3.5Z"/><path class="cls-4" d="M119,146.21c0,1.01-.62,2-1.8,2.95-.24.18-.5.37-.78.55-7.44,4.92-30.11,8.5-56.92,8.5s-49.48-3.58-56.92-8.5c-1.68-1.11-2.58-2.28-2.58-3.5,0-6.62,26.64-12,59.5-12,10.31,0,20.02.53,28.47,1.46,18.49,2.04,31.03,6,31.03,10.54Z"/><path class="cls-1" d="M393.84,182.31v11.52c-11.91,0-22.37-9.61-28.34-24.1-5.97,14.49-16.43,24.1-28.34,24.1v-11.52c11.91,0,22.37-9.61,28.34-24.1,5.97,14.49,16.43,24.1,28.34,24.1Z"/><path class="cls-1" d="M296.33,193.32l5.76,9.98c-10.31,5.96-24.18,2.86-36.59-6.7,2.07,15.53-2.18,29.09-12.49,35.04l-5.76-9.98c10.31-5.95,14.57-19.51,12.49-35.04,12.42,9.56,26.28,12.66,36.59,6.7Z"/><path class="cls-1" d="M217.39,251.62l9.98,5.76c-5.96,10.31-19.51,14.57-35.04,12.49,9.56,12.42,12.66,26.28,6.7,36.59l-9.98-5.76c5.95-10.31,2.86-24.18-6.7-36.59,15.53,2.07,29.09-2.18,35.04-12.49Z"/><path class="cls-1" d="M178.17,341.57h11.52c0,11.91-9.61,22.37-24.1,28.34,14.49,5.97,24.1,16.43,24.1,28.34h-11.52c0-11.91-9.61-22.37-24.1-28.34,14.49-5.97,24.1-16.43,24.1-28.34Z"/><path class="cls-1" d="M189.19,439.09l9.98-5.76c5.96,10.31,2.86,24.18-6.7,36.59,15.53-2.07,29.09,2.18,35.04,12.49l-9.98,5.76c-5.95-10.31-19.51-14.57-35.04-12.49,9.56-12.42,12.66-26.28,6.7-36.59Z"/><path class="cls-1" d="M247.48,518.03l5.76-9.98c10.31,5.96,14.57,19.51,12.49,35.04,12.42-9.56,26.28-12.66,36.59-6.7l-5.76,9.98c-10.31-5.95-24.18-2.86-36.59,6.7,2.07-15.53-2.18-29.09-12.49-35.04Z"/><path class="cls-1" d="M337.44,557.24v-11.52c11.91,0,22.37,9.61,28.34,24.1,5.97-14.49,16.43-24.1,28.34-24.1v11.52c-11.91,0-22.37,9.61-28.34,24.1-5.97-14.49-16.43-24.1-28.34-24.1Z"/><path class="cls-1" d="M434.95,546.23l-5.76-9.98c10.31-5.96,24.18-2.86,36.59,6.7-2.07-15.53,2.18-29.09,12.49-35.04l5.76,9.98c-10.31,5.95-14.57,19.51-12.49,35.04-12.42-9.56-26.28-12.66-36.59-6.7Z"/><path class="cls-1" d="M513.89,487.93l-9.98-5.76c5.96-10.31,19.51-14.57,35.04-12.49-9.56-12.42-12.66-26.28-6.7-36.59l9.98,5.76c-5.95,10.31-2.86,24.18,6.7,36.59-15.53-2.07-29.09,2.18-35.04,12.49Z"/><path class="cls-1" d="M553.1,397.98h-11.52c0-11.91,9.61-22.37,24.1-28.34-14.49-5.97-24.1-16.43-24.1-28.34h11.52c0,11.91,9.61,22.37,24.1,28.34-14.49,5.97-24.1,16.43-24.1,28.34Z"/><path class="cls-1" d="M542.09,300.47l-9.98,5.76c-5.96-10.31-2.86-24.18,6.7-36.59-15.53,2.07-29.09-2.18-35.04-12.49l9.98-5.76c5.95,10.31,19.51,14.57,35.04,12.49-9.56,12.42-12.66,26.28-6.7,36.59Z"/><path class="cls-1" d="M483.79,221.53l-5.76,9.98c-10.31-5.96-14.57-19.51-12.49-35.04-12.42,9.56-26.28,12.66-36.59,6.7l5.76-9.98c10.31,5.95,24.18,2.86,36.59-6.7-2.07,15.53,2.18,29.09,12.49,35.04Z"/><path class="cls-3" d="M393.84,193.83v43.3c0,3.22-.54,6.27-1.48,8.92-.81-.17-1.63-.34-2.45-.5-.47-.09-.93-.18-1.4-.26-.35-.07-.7-.13-1.05-.19-.51-.09-1.02-.18-1.53-.26-.14-.02-.28-.04-.42-.07-.45-.07-.91-.14-1.36-.2-.61-.09-1.22-.18-1.82-.26-.69-.09-1.38-.18-2.07-.25-.58-.07-1.16-.13-1.74-.19-.51-.05-1.01-.1-1.52-.15-.41-.03-.82-.07-1.24-.1-.79-.07-1.59-.12-2.39-.17-.5-.03-1-.06-1.49-.08-.61-.03-1.22-.06-1.83-.08-.8-.03-1.61-.05-2.41-.06-.71-.01-1.43-.02-2.14-.02-3.49,0-6.96.14-10.38.42-.75.06-1.5.13-2.25.21-.57.05-1.15.11-1.72.18-.76.08-1.53.17-2.29.27-.84.11-1.69.23-2.53.36-.77.11-1.53.23-2.29.37-.45.07-.89.15-1.34.23-.68.12-1.35.25-2.03.39-.68.13-1.35.27-2.02.42-.95-2.66-1.49-5.7-1.49-8.93v-43.3c11.91,0,22.37-9.61,28.34-24.1,5.97,14.49,16.43,24.1,28.34,24.1Z"/><path class="cls-3" d="M271.59,284.48c-.77.83-1.52,1.67-2.25,2.52-.74.85-1.47,1.71-2.19,2.58-.62.74-1.22,1.49-1.81,2.25-.17.19-.32.39-.47.59-.63.81-1.25,1.62-1.85,2.44-.02.01-.04.03-.05.06-.66.89-1.32,1.8-1.96,2.71,0,.01-.01.02-.01.02-.62.89-1.23,1.78-1.83,2.68-.55.83-1.09,1.66-1.61,2.5-.27.42-.53.83-.78,1.25-.32.51-.63,1.01-.93,1.53-.37.62-.74,1.25-1.1,1.88-.04.07-.07.13-.11.19-.45.79-.89,1.58-1.31,2.37-.47.86-.93,1.73-1.37,2.6-.44.85-.87,1.71-1.29,2.58,0,0,0,.03-.02.05-.37.77-.74,1.54-1.09,2.32-.11.24-.22.48-.33.72-.33.73-.65,1.46-.97,2.2-.36.84-.71,1.68-1.05,2.53-.18.46-.36.92-.54,1.37-.06.16-.12.31-.18.46-.17.46-.35.92-.52,1.38-.22.6-.44,1.21-.65,1.81-.17.48-.34.96-.5,1.44-.19.55-.37,1.09-.55,1.64-2.55-.55-5.19-1.55-7.75-3.03l-37.5-21.65c5.96-10.32,2.87-24.18-6.7-36.6,15.54,2.08,29.09-2.18,35.04-12.49l37.5,21.65c2.67,1.54,4.94,3.42,6.73,5.45Z"/><path class="cls-3" d="M238.04,367.58c-.03,1.04-.04,2.08-.04,3.13,0,.94.01,1.88.03,2.82.02.73.04,1.46.07,2.19v.06c.06,1.61.15,3.21.27,4.81.01.07.02.14.02.22.06.77.13,1.55.21,2.32.14,1.44.3,2.87.49,4.29.07.53.14,1.06.21,1.59.01.03.01.06.02.09.22,1.55.47,3.09.75,4.61.03.17.07.34.1.52.08.44.17.87.25,1.31.11.53.22,1.07.33,1.6-2.36.72-4.99,1.11-7.76,1.11h-43.3c0-11.91-9.61-22.37-24.1-28.34,14.49-5.97,24.1-16.43,24.1-28.34h43.3c2.89,0,5.63.43,8.08,1.2-.01.05-.02.11-.03.16-.12.5-.22,1-.33,1.51-.16.75-.31,1.5-.45,2.25-.11.6-.23,1.21-.33,1.82-.06.35-.13.71-.18,1.07-.04.23-.08.46-.11.7-.1.53-.18,1.06-.25,1.6-.18,1.14-.33,2.29-.47,3.45-.12.97-.23,1.95-.32,2.93v.05c-.1,1.02-.19,2.03-.26,3.06l-.03.42c-.05.76-.1,1.53-.14,2.31,0,.21-.02.42-.03.63-.04.95-.08,1.9-.1,2.85Z"/><path class="cls-3" d="M270.9,456.2c-1.64,1.69-3.63,3.25-5.9,4.56l-37.5,21.65c-5.95-10.31-19.5-14.57-35.04-12.49,9.57-12.42,12.66-26.28,6.7-36.59l37.5-21.65c2.35-1.35,4.77-2.32,7.13-2.89,5.56,17.8,14.91,33.92,27.11,47.41Z"/><path class="cls-3" d="M326.75,492.22c-.58,2.21-1.5,4.47-2.77,6.67l-21.65,37.5c-10.32-5.96-24.18-2.86-36.6,6.7,2.08-15.53-2.17-29.09-12.49-35.04l21.65-37.5c1.29-2.24,2.82-4.2,4.48-5.83.75.69,1.51,1.37,2.28,2.04.67.58,1.34,1.16,2.02,1.73.73.61,1.46,1.21,2.21,1.81.7.56,1.41,1.11,2.12,1.66.13.1.27.2.4.3.58.45,1.16.88,1.75,1.31.17.13.35.26.52.38.57.42,1.15.83,1.73,1.23.92.65,1.85,1.29,2.78,1.9.78.52,1.56,1.02,2.35,1.52.68.43,1.36.85,2.05,1.27.32.19.65.39.97.58.63.37,1.27.74,1.91,1.11.83.47,1.67.94,2.51,1.39.61.33,1.22.65,1.83.97.17.09.35.18.52.27.35.18.71.36,1.06.53.57.3,1.15.58,1.73.86.82.4,1.64.78,2.47,1.16.1.05.2.09.29.14.74.33,1.48.66,2.23.98.98.42,1.96.83,2.95,1.23,1.45.58,2.92,1.14,4.39,1.67,1.31.47,2.62.92,3.95,1.34.12.04.24.08.36.12Z"/><path class="cls-3" d="M394.12,502.42v43.3c-11.91,0-22.37,9.61-28.34,24.1-5.97-14.49-16.43-24.1-28.34-24.1v-43.3c0-2.51.33-4.91.92-7.1,2.11.46,4.25.86,6.4,1.21.62.1,1.25.2,1.89.29.56.09,1.14.17,1.71.24.69.1,1.38.19,2.08.27.74.08,1.48.16,2.22.24.82.08,1.64.15,2.46.22,3.42.28,6.89.42,10.38.42,1.03,0,2.05-.01,3.07-.04.16,0,.32,0,.48,0,.83-.02,1.65-.05,2.47-.09.12-.01.25-.01.37-.02.99-.05,1.98-.11,2.96-.18,1-.07,1.99-.16,2.97-.25.13-.01.27-.02.4-.04.73-.07,1.47-.15,2.2-.24.29-.03.57-.06.87-.1.71-.09,1.42-.18,2.13-.28.39-.06.79-.11,1.18-.17.95-.14,1.9-.3,2.84-.46.49-.09.97-.17,1.46-.27.66-.12,1.32-.24,1.98-.38.7-.14,1.4-.29,2.1-.44.06,0,.13-.03.19-.04.61,2.22.95,4.66.95,7.22Z"/><path class="cls-3" d="M465.78,542.95c-12.42-9.56-26.28-12.65-36.59-6.7l-21.65-37.5c-1.27-2.21-2.2-4.48-2.78-6.7,1.05-.34,2.1-.69,3.14-1.06.64-.22,1.29-.46,1.93-.7,1.04-.38,2.08-.78,3.12-1.2,1.11-.45,2.22-.91,3.31-1.38.57-.25,1.14-.5,1.71-.76.24-.11.48-.22.72-.33.58-.26,1.14-.53,1.71-.8.59-.28,1.17-.56,1.75-.86.51-.25,1.02-.5,1.53-.77,1.51-.77,3.01-1.58,4.48-2.41.51-.29,1.02-.58,1.52-.88.14-.07.27-.15.41-.24.52-.3,1.05-.61,1.56-.93,1.41-.85,2.8-1.73,4.17-2.65.54-.35,1.08-.72,1.62-1.1.14-.08.29-.18.43-.29.51-.35,1.02-.71,1.53-1.07.17-.11.34-.23.5-.36.52-.37,1.04-.75,1.56-1.14,1.34-.99,2.66-2.01,3.96-3.06.72-.58,1.43-1.17,2.14-1.76.08-.07.15-.13.22-.19.6-.5,1.19-1.01,1.77-1.53.82-.71,1.62-1.43,2.42-2.17,1.73,1.67,3.32,3.69,4.65,6l21.65,37.5c-10.31,5.96-14.56,19.51-12.49,35.04Z"/><path class="cls-3" d="M538.95,469.68c-15.53-2.07-29.08,2.18-35.04,12.49l-37.5-21.65c-2.32-1.34-4.34-2.93-6-4.66.62-.69,1.24-1.39,1.84-2.1.31-.35.61-.71.91-1.07.27-.32.54-.64.8-.97.67-.8,1.32-1.61,1.95-2.44.25-.29.48-.59.7-.89.26-.32.5-.64.74-.97.44-.57.86-1.14,1.27-1.72.71-.95,1.39-1.92,2.05-2.9.26-.36.5-.71.74-1.08.28-.41.56-.83.83-1.25.31-.46.61-.92.9-1.39.43-.66.84-1.33,1.25-2.01.2-.31.39-.63.57-.95.4-.66.79-1.32,1.17-1.99.22-.37.43-.74.63-1.11.39-.68.77-1.37,1.13-2.06.31-.57.61-1.14.91-1.71.09-.17.17-.34.26-.51.33-.65.66-1.3.98-1.96.35-.7.69-1.41,1.02-2.13.78-1.67,1.53-3.36,2.24-5.08.4-.96.79-1.92,1.16-2.89.21-.54.41-1.08.61-1.62.4-1.08.79-2.17,1.16-3.27.19-.55.37-1.1.55-1.65.17-.5.32-1,.48-1.5.02-.05.03-.11.05-.16,2.45.56,4.99,1.55,7.44,2.96l37.5,21.65c-5.95,10.31-2.86,24.17,6.7,36.59Z"/><path class="cls-3" d="M565.68,369.64c-14.49,5.97-24.1,16.43-24.1,28.34h-43.3c-2.84,0-5.54-.42-7.96-1.16.01-.05.02-.1.03-.15.21-1,.41-2.01.59-3.03.1-.53.19-1.06.28-1.59.18-1.07.35-2.14.5-3.22.07-.47.13-.95.19-1.42.09-.61.16-1.22.23-1.83.1-.81.18-1.63.26-2.45.08-.81.15-1.63.22-2.45.06-.82.12-1.65.16-2.48.05-.83.09-1.65.12-2.48.03-.71.05-1.42.07-2.14.02-.95.03-1.91.03-2.87,0-1.66-.03-3.32-.1-4.97-.02-.53-.04-1.07-.07-1.6-.07-1.4-.16-2.8-.28-4.19-.05-.58-.1-1.17-.16-1.75-.02-.29-.05-.58-.09-.88-.04-.45-.09-.91-.15-1.36-.18-1.62-.39-3.22-.64-4.82-.16-1.06-.34-2.12-.53-3.17-.1-.53-.19-1.06-.3-1.58-.24-1.27-.51-2.53-.79-3.79,2.53-.83,5.38-1.3,8.39-1.3h43.3c0,11.91,9.61,22.37,24.1,28.34Z"/><path class="cls-3" d="M532.11,306.23l-37.5,21.65c-2.62,1.51-5.33,2.53-7.94,3.07-.25-.78-.52-1.56-.79-2.33-.08-.24-.16-.47-.25-.7-.22-.64-.45-1.28-.69-1.92-.1-.26-.2-.53-.3-.79-.25-.66-.51-1.31-.77-1.96-.34-.84-.68-1.68-1.04-2.51-1.43-3.36-3.01-6.65-4.71-9.85-.41-.79-.84-1.56-1.27-2.33-.05-.09-.09-.17-.13-.24-.42-.73-.83-1.46-1.26-2.18-.38-.65-.76-1.29-1.15-1.92-.31-.51-.62-1.01-.95-1.51-.34-.56-.69-1.1-1.05-1.64-.39-.61-.79-1.21-1.2-1.8,0-.01,0-.02,0-.03-.4-.59-.81-1.18-1.22-1.76-.27-.39-.54-.77-.82-1.15-.22-.32-.45-.63-.68-.94-.4-.56-.82-1.11-1.24-1.66-.01-.02-.02-.04-.03-.05-.47-.62-.94-1.23-1.42-1.84-.14-.16-.27-.33-.39-.49-.34-.42-.67-.84-1.02-1.25-.38-.48-.78-.96-1.18-1.43-.09-.11-.18-.21-.27-.32-.47-.56-.95-1.11-1.43-1.66-.12-.14-.24-.27-.36-.4-.55-.63-1.11-1.25-1.67-1.86,1.82-2.1,4.15-4.05,6.9-5.64l37.5-21.65c5.96,10.32,19.51,14.57,35.04,12.49-9.56,12.42-12.65,26.28-6.7,36.6Z"/><path class="cls-3" d="M478.03,231.5l-21.65,37.5c-1.59,2.75-3.53,5.09-5.64,6.9-.78-.7-1.56-1.39-2.35-2.06-.14-.13-.29-.25-.43-.37-.82-.7-1.65-1.39-2.49-2.07-.82-.65-1.64-1.3-2.47-1.93-.21-.17-.42-.33-.64-.49-.69-.53-1.39-1.05-2.1-1.55-1.03-.76-2.08-1.5-3.14-2.22-.72-.49-1.44-.97-2.17-1.44-2.18-1.43-4.41-2.78-6.69-4.07-1.03-.58-2.06-1.15-3.11-1.7-.64-.35-1.29-.68-1.94-1.01-.08-.04-.16-.08-.24-.12-.43-.22-.87-.44-1.31-.65-1.81-.9-3.63-1.74-5.49-2.54-.57-.25-1.15-.5-1.73-.73-.2-.09-.4-.18-.6-.25-.46-.2-.92-.38-1.38-.55-.69-.29-1.38-.55-2.07-.81-.99-.38-1.99-.74-2.99-1.08-.1-.04-.19-.07-.29-.1-.9-.32-1.81-.62-2.72-.91-.09-.03-.19-.06-.28-.09.51-2.78,1.57-5.69,3.19-8.5l21.65-37.5c10.31,5.96,24.18,2.87,36.59-6.7-2.07,15.54,2.18,29.09,12.49,35.04Z"/><path class="cls-3" d="M326.89,249.17c-17.5,5.55-33.37,14.78-46.7,26.78-2.06-1.8-3.98-4.1-5.54-6.81l-21.65-37.5c10.32-5.95,14.57-19.51,12.5-35.04,12.41,9.56,26.27,12.66,36.59,6.7l21.65,37.5c1.59,2.76,2.64,5.63,3.15,8.37Z"/></g></svg>