<?xml version="1.0" encoding="UTF-8"?><svg id="Layer_1" xmlns="http://www.w3.org/2000/svg" viewBox="0 0 526.03 590.88"><defs><style>.cls-1{fill:#a47029;stroke-width:0px;}</style></defs><path class="cls-1" d="M79.94,302.91c1.29,1.33,1.26,3.4.02,4.78-3.51,3.89-4.3,8.42-3.11,13.51.91,3.86,3.03,6.63,6.49,7.89,1.68.61,2.64,2.39,2.2,4.13-.02.07-.04.14-.05.22-2.12,9.11-3.63,18.27-4.56,27.49-.14,1.43.61,2.8,1.88,3.45,22.12,11.32,45.2,19.56,70.25,23.84,34.03,5.81,68.44,11.74,102.94,13.66,33.82,1.88,67.73.05,101.36-3.71,56.19-6.29,112.84-14.83,164.86-37.28,1.42-.61,2.28-2.1,2.08-3.64-1.85-14.38-5.23-28.44-9.96-42.23-10.49-33.49-20.23-48.54-38.9-70.1-18.14-19.1-25.57-28.56-39.27-40.64-13.53-11.53-24.57-25.13-32.99-40.8-4.11-7.64-7.16-15.72-8.89-24.23-2.03-10.01-1.71-20.07.13-30.05,2.9-15.74,9.52-29.82,19.95-41.97,13.84-16.13,31.18-26.24,52.25-29.65,3.46-.56,6.99-.69,10.49-1.01.01,0,.02,0,.04,0,2.38-.21,3.9-2.59,3.01-4.81-.4-1-.93-1.98-1.48-2.95-4.51-7.96-10.76-14.29-18.37-19.25C451.11,3.57,441.01.43,430.02.05c-10.54-.37-20.68,1.47-30.63,4.76-10.04,3.32-19.61,7.76-29.12,12.35-14.11,6.8-28.13,13.81-42.38,20.31-14.01,6.4-28.65,10.98-43.95,13.18-8.29,1.19-16.55,1.12-24.77-.81-9.98-2.34-19.61-5.76-29.25-9.17-10.4-3.68-20.74-7.55-31.53-9.98-6.4-1.44-12.85-2.62-19.46-2.43-1.43.04-2.96-.08-4.28.36-3,1-5.21-.15-7.44-1.96-4.59-3.76-9.61-6.9-14.8-9.75-11.76-6.45-24.23-10.89-37.55-12.49-13.8-1.65-27.43-.61-40.79,3.59-11.09,3.49-21.41,8.43-30.71,15.42-14.39,10.82-24.89,24.7-32.04,41.17-5.78,13.33-8.9,27.3-10.48,41.71-1.96,17.85-.33,35.47,2.89,52.99,4.76,25.83,13.78,50.22,25.75,73.52,12.64,24.61,28.3,47.12,47.53,67.07.95.98,1.9,1.96,2.92,3.01ZM19.01,156.88c-3.23-16.39-4.68-32.89-2.99-49.62,1.34-13.34,4.36-26.14,9.97-38.33,7.22-15.69,18-28.2,32.76-37.24,10.68-6.54,22.26-10.59,34.65-11.96,15.76-1.73,30.95.81,45.31,7.65,17.4,8.29,31.93,20.02,42.45,36.32,6.86,10.63,12.85,21.77,17.32,33.63,3.69,9.79,6.14,19.88,5.66,30.45-.21,4.63-.5,9.26-1.05,13.86-1.44,12.04-5.19,23.37-10.91,34.06-6.03,11.28-14.13,20.88-23.56,29.43-10.43,9.46-20.44,19.33-29.94,29.73-15.73,17.21-29.33,35.89-39.11,57.18-.2.44-.41.87-.63,1.31-1.03,2.08-3.78,2.57-5.49,1-1.92-1.76-3.6-3.49-5.28-5.22-10.88-11.23-20.76-23.42-29.26-36.55-19.16-29.57-33.09-61.24-39.89-95.71Z"/><path class="cls-1" d="M447.25,394.82c-33.31,6.72-58.55,10.31-92.36,13.63-35.08,3.45-64.22,6.04-95.25,3.48-17.32-1.42-53.79-5.39-70.97-7.96-16.83-2.52-33.81-4.86-50.45-8.43-18.55-3.98-36.12-10.48-52.97-18.66-2.49-1.21-5.39.57-5.44,3.33-.09,5.19-.02,10.4.22,15.63.44,9.6,1.71,19.11,3.32,28.57,1.12,6.62,2.2,13.24,3.43,19.84.53,2.82,1.35,5.59,2.12,8.36,2.52,9.13,6.05,17.84,10.89,25.99,1.23,2.06,3.18,5.48,4.34,7.58,3.88,7,8.44,13.47,14.11,19.18,3.03,3.05,5.64,6.53,8.44,9.81,13.92,16.33,30.13,29.97,48.45,41.1,4.1,2.49,8.32,4.77,12.47,7.16.23.13.47.27.7.41,1.68,1.02,2.34,3.14,1.46,4.9-.1.2-.2.41-.29.61-5.06,10.79,3.88,20.98,12.18,21.38,1.76.09,3.52.14,5.27.14,64.31.01,128.61.01,192.92.01,1.12,0,2.24-.03,3.36-.06,10-.27,17.94-11.26,12.75-22.05,0,0,0-.02-.01-.03-.93-1.93-.16-4.27,1.8-5.15.47-.21.95-.42,1.39-.65,7.93-4.2,15.51-8.95,22.84-14.1,25.71-18.06,46.11-40.88,60.97-68.57,7.82-14.57,13.4-30.02,17.27-46.13,4.62-19.25,6.44-38.69,5.65-58.31-.11-2.62-2.79-4.37-5.22-3.35-23.64,9.87-48.36,17.29-73.38,22.34Z"/></svg>